<?xml version="1.0" encoding="UTF-8" standalone="no"?>
<!-- 
.d8888. db    db  d888b       db       .d8b.  db    db d88888b d8888b. 
88'  YP 88    88 88' Y8b      88      d8' `8b `8b  d8' 88'     88  `8D 
`8bo.   Y8    8P 88           88      88ooo88  `8bd8'  88ooooo 88oobY' 
  `Y8b. `8b  d8' 88  ooo      88      88~~~88    88    88~~~~~ 88`8b   
db   8D  `8bd8'  88. ~8~      88booo. 88   88    88    88.     88 `88. 
`8888Y'    YP     Y888P       Y88888P YP   YP    YP    Y88888P 88   YD 

d888888b d88888b .88b  d88. d8888b. db       .d8b.  d888888b d88888b   
`~~88~~' 88'     88'YbdP`88 88  `8D 88      d8' `8b `~~88~~' 88'       
   88    88ooooo 88  88  88 88oodD' 88      88ooo88    88    88ooooo   
   88    88~~~~~ 88  88  88 88~~~   88      88~~~88    88    88~~~~~   
   88    88.     88  88  88 88      88booo. 88   88    88    88.       
   YP    Y88888P YP  YP  YP 88      Y88888P YP   YP    YP    Y88888P   
-->

<svg
   width="500"
   height="500"
   viewBox="0 0 500 500"
   version="1.1"
   id="svg1"
   inkscape:version="1.3.2 (091e20e, 2023-11-25, custom)"
   sodipodi:docname="foreground.svg"
   xmlns:inkscape="http://www.inkscape.org/namespaces/inkscape"
   xmlns:sodipodi="http://sodipodi.sourceforge.net/DTD/sodipodi-0.dtd"
   xmlns="http://www.w3.org/2000/svg"
   xmlns:svg="http://www.w3.org/2000/svg">
  <sodipodi:namedview
     id="namedview1"
     pagecolor="#ffffff"
     bordercolor="#000000"
     borderopacity="0"
     inkscape:showpageshadow="false"
     inkscape:pageopacity="0.0"
     inkscape:pagecheckerboard="0"
     inkscape:deskcolor="#d1d1d1"
     inkscape:document-units="px"
     showborder="false"
     borderlayer="false"
     shape-rendering="auto"
     inkscape:zoom="6.8851235"
     inkscape:cx="-78.865688"
     inkscape:cy="-256.85814"
     inkscape:window-width="3360"
     inkscape:window-height="1780"
     inkscape:window-x="6708"
     inkscape:window-y="-12"
     inkscape:window-maximized="1"
     inkscape:current-layer="layer1" />
  <defs
     id="defs1">
    <rect
       x="-909.05646"
       y="-439.23425"
       width="630.96338"
       height="255.45869"
       id="rect7" />
    <rect
       x="-909.05646"
       y="-439.23425"
       width="630.96338"
       height="255.45869"
       id="rect3-5-0" />
    <rect
       x="-909.05646"
       y="-439.23425"
       width="316.4538"
       height="85.411484"
       id="rect3-5" />
    <rect
       x="-909.05646"
       y="-439.23425"
       width="316.4538"
       height="85.411484"
       id="rect3" />
    <rect
       x="-909.05646"
       y="-439.23425"
       width="630.96338"
       height="255.45869"
       id="rect20" />
    <rect
       x="-909.05646"
       y="-439.23425"
       width="630.96338"
       height="255.45869"
       id="rect21" />
    <rect
       x="-909.05646"
       y="-439.23425"
       width="630.96338"
       height="255.45869"
       id="rect22" />
  </defs>
  <g
     inkscape:label="L1"
     inkscape:groupmode="layer"
     id="layer1"
     style="display:inline">
    <path
       style="clip-rule:evenodd;display:inline;fill:#8bbf77;fill-opacity:1;fill-rule:evenodd;stroke:#474747;stroke-width:1;stroke-linecap:round;stroke-linejoin:round;stroke-dasharray:none;stroke-opacity:0.804786;paint-order:stroke fill markers;image-rendering:optimizeQuality;shape-rendering:geometricPrecision;text-rendering:geometricPrecision"
       d="m -320.80832,355.46961 c -3.29883,-9.6738 -18.30522,-11.84329 -32.37748,-36.05629 -14.07225,-24.213 -24.3275,-28.83394 -38.8624,-48.75837 -14.53489,-19.92442 -25.05385,-18.19293 -39.26607,-44.65548 -14.21222,-26.46254 -42.28706,-39.79933 -52.05675,-60.86601 -9.76968,-21.06667 -13.62659,-25.66773 -26.98908,-57.2775 -13.3625,-31.609775 -41.64849,-65.030705 -41.64849,-65.030705 0,0 -5.37573,-14.82977 -7.69576,-32.08425 -2.32003,-17.2544899 -15.63946,-44.095 -13.56421,-60.88324 2.07526,-16.78823 2.35012,-34.27654 10.34784,-55.949675 7.99773,-21.67315 14.5708,-50.69341 20.23646,-64.11366 5.66566,-13.42026 2.09084,-20.86554 19.29751,-48.31872 17.20667,-27.45318 30.00678,-44.46156 53.20717,-72.05724 23.20039,-27.59567 32.49445,-42.50904 42.43659,-55.56399 9.94213,-13.05496 18.42948,-28.50538 18.42948,-28.50538 l 29.04515,-38.20412 c 0,0 -3.3975,-0.99355 12.29472,-15.4033 15.69222,-14.40975 13.12728,-16.97456 43.22938,-32.66678 30.10209,-15.69222 42.4951,-18.8051 42.4951,-18.8051 0,0 13.82913,-4.64032 34.13671,-5.67795 20.30759,-1.03763 56.85456,-6.06157 73.09485,-10.70163 16.24028,-4.64007 18.06425,-0.57155 47.89199,-4.80426 29.827755,-4.23272 52.657714,-6.27378 74.259035,-3.16089 21.60133,3.11288 29.38252,-1.00368 51.3154496,3.11288 21.9329304,4.11656 47.3363244,8.7565 79.0825254,10.03897 31.7462,1.28247 66.3557,2.23878 101.6083,12.52335 35.2526,10.28457 38.666,-10.53004 64.7946,20.55939 26.1287,31.08944 33.8231,43.66877 37.4256,53.19375 3.6024,9.52497 -3.8448,14.79797 31.1601,31.15504 35.0048,16.35708 69.2962,21.25478 66.9761,36.70228 -2.3201,15.44751 -3.6979,14.85282 -6.1543,25.29902 -2.4564,10.44619 -12.2502,20.01537 -2.4564,26.66166 9.7937,6.64628 30.0797,-6.94611 50.8893,28.99543 20.8097,35.94154 29.0522,52.7299 38.3909,59.9933 9.3386,7.26339 39.2868,25.07633 39.2868,25.07633 0,0 35.7519,40.50979 39.3078,59.69855 3.5558,19.188765 6.1206,55.360705 6.1206,55.360705 0,0 8.3014,22.25414 10.6215,43.927291 2.3201,21.6731391 2.6014,34.265269 -16.0142,61.151249 -18.6156,26.88598 -36.4887,37.726878 -43.3432,47.218268 -15.7518,21.811157 -27.0054,56.846097 -26.6963,59.434457 0,34.92848 4.8849,20.98232 0,53.15967 -4.8849,32.17735 -9.7697,37.06226 -11.0521,61.48653 -1.2825,24.42428 -9.5249,29.18125 -8.2425,62.52391 1.2823,33.34265 25.6719,33.94278 -10.0146,62.3486 -35.6864,28.40582 -58.8869,41.04354 -58.8869,41.04354 0,0 -3.8367,22.39893 -76.7213,44.76796 -72.8846,22.36903 -84.5411,26.82871 -115.9384,36.1058 -31.3972,9.27709 -50.4418,2.53038 -50.4418,2.53038 0,0 -50.673,10.70864 -65.8611,19.49934 -15.188101,8.7907 -37.138741,3.90225 -37.138741,18.80472 0,14.90247 -208.144419,11.52512 -208.144419,11.52512 0,0 3.70301,-4.10745 -27.37806,-20.28922 -31.08107,-16.18177 -60.62876,-22.20158 -69.47469,-43.27865 -8.84593,-21.07706 -19.91429,-31.9111 -27.39757,-50.29505 -7.48329,-18.38394 -26.67762,-43.30271 -26.67762,-55.77552 0,-12.47281 3.11288,-44.71451 3.11288,-44.71451 z"
       id="path62"
       sodipodi:nodetypes="cssssscsssssssccsscssssssssssssssscscsssssssscsscsscssssc"
       inkscape:label="level1" />
    <path
       style="clip-rule:evenodd;display:inline;fill:#a3d293;fill-opacity:1;fill-rule:evenodd;stroke:none;stroke-width:1;stroke-linecap:round;stroke-linejoin:round;stroke-dasharray:none;stroke-opacity:1;paint-order:stroke fill markers;image-rendering:optimizeQuality;shape-rendering:geometricPrecision;text-rendering:geometricPrecision"
       d="m -513.94556,55.008741 c -3.96216,-8.3378 -34.16543,-44.65728 -25.46517,-102.3627 8.70025,-57.705411 5.86342,-101.550601 37.68697,-131.820851 31.82354,-30.27024 40.89514,-35.91347 60.06968,-33.83659 19.17454,2.07688 46.32195,5.66537 59.97734,31.71243 13.65538,26.04706 21.68078,65.62812 23.55759,90.179171 1.87682,24.55105 -0.51239,79.14505 2.7486,127.70267 3.26098,48.55762 7.03306,111.862409 1.93501,159.180289 -4.57035,42.41995 31.60619,141.15353 -42.48547,42.11029 C -470.01267,138.83021 -513.94556,55.008741 -513.94556,55.008741 Z"
       id="path186"
       sodipodi:nodetypes="cssssssssc"
       inkscape:label="#Obliczanie" />
    <path
       style="clip-rule:evenodd;display:inline;fill:#a3d293;fill-opacity:1;fill-rule:evenodd;stroke:none;stroke-width:1;stroke-linecap:round;stroke-linejoin:round;stroke-dasharray:none;stroke-opacity:1;paint-order:stroke fill markers;image-rendering:optimizeQuality;shape-rendering:geometricPrecision;text-rendering:geometricPrecision"
       d="m -332.02921,3.4387411 c 1.38625,-37.9455011 -30.59886,-109.1406611 27.23809,-159.1022511 l 31.35383,-24.12744 c 18.29324,-7.85022 50.55958,1.61184 71.13109,9.09302 l 48.52124,39.04205 69.825523,35.157211 c 0,0 7.75298,8.692 14.21049,17.53389 6.4575,8.84189 13.97315,19.24089 19.91458,33.67001 5.94142,14.42912 9.69933,29.25972 11.92158,37.4621301 2.22225,8.20241002 4.46437,22.3314099 7.53552,35.3024199 3.07114,12.97101 2.22242,14.25625 3.7579,26.62886 1.53549,12.37261 3.35065,24.35691 4.03741,34.17579 0.68676,9.81888 22.11142972,41.848199 16.7175997,61.367759 -5.3938297,19.51955 -7.8966297,45.59248 -31.2777797,34.20578 -75.664503,-36.84884 -172.235093,7.61863 -201.114573,52.57393 -24.6677,38.39902 -84.21558,50.99161 -89.94072,13.82419 0,0 -3.32165,-55.0951 -4.14711,-58.6748 -19.35753,-83.94612 28.04205,-143.624809 0.31533,-188.1325489 z"
       id="path187"
       sodipodi:nodetypes="ccccccssssssssscsc"
       inkscape:label="#Społeczeństwo" />
    <path
       style="clip-rule:evenodd;display:inline;fill:#a3d293;fill-opacity:1;fill-rule:evenodd;stroke:none;stroke-width:1;stroke-linecap:round;stroke-linejoin:round;stroke-dasharray:none;stroke-opacity:1;paint-order:stroke fill markers;image-rendering:optimizeQuality;shape-rendering:geometricPrecision;text-rendering:geometricPrecision"
       d="m -249.99154,390.16503 c 0,-6.01251 5.13144,64.58343 -1.53548,-23.79086 -6.66692,-88.37428 6.43675,-107.716 6.43675,-107.716 0,0 16.73094,-40.15402 51.81314,-49.34473 33.7911,-8.85247 68.45243,-36.37719 106.319233,-29.79746 37.86679,6.57974 62.7168,52.15147 62.7168,52.15147 0,0 83.37699,54.20186 81.69773,84.64639 -1.67927,30.44454 -28.80535,62.72954 -20.26333,74.75324 8.54202,12.02369 26.87444,18.91597 35.62067,35.67239 8.74624,16.75641 11.40899,28.33206 7.86603,39.8541 -3.54296,11.52204 4.11003,28.92868 -6.6,41.01224 -10.71003,12.08355 -61.89817,25.18299 -76.2039703,31.64904 -14.3057997,6.46606 -18.0636297,14.9924 -38.5116397,10.5479 -20.44801,-4.4445 -43.84435,-9.60628 -59.685723,-17.60799 -15.84138,-8.00172 -50.9947,-17.51544 -69.99236,-39.65781 -18.99765,-22.14236 -37.61633,-38.91973 -44.27273,-49.67218 -6.6564,-10.75245 -35.40512,-52.69974 -35.40512,-52.69974 z"
       id="path188"
       sodipodi:nodetypes="cscsscssssssssssc"
       inkscape:label="#Życie człowieka" />
    <path
       style="clip-rule:evenodd;display:inline;fill:#a3d293;fill-opacity:1;fill-rule:evenodd;stroke:none;stroke-width:1;stroke-linecap:round;stroke-linejoin:round;stroke-dasharray:none;stroke-opacity:1;paint-order:stroke fill markers;image-rendering:optimizeQuality;shape-rendering:geometricPrecision;text-rendering:geometricPrecision"
       d="M 128.00694,491.04439 C 91.353163,478.55944 89.817673,476.09726 88.968863,465.15686 c -0.84881,-10.9404 -0.84881,-5.48219 -0.84881,-15.61612 0,-10.13392 10.34728,-7.07569 -4.75142,-20.3148 -15.09869,-13.2391 -17.19201,-15.32571 -25.52335,-23.81751 -8.33135,-8.4918 -10.71811,-17.08542 -10.71811,-17.08542 0,0 -5.0456,-5.3409 -0.60102,-14.91683 4.44459,-9.57593 -3.25553,-14.44638 3.41131,-23.65948 6.66683,-9.21311 10.41636,-16.70293 10.41636,-16.70293 0,0 7.14359,-5.71978 5.60811,-17.30016 -1.53549,-11.58038 -1.38191,-12.84761 -5.98008,-26.28775 -4.59817,-13.44014 -9.20472,-11.81998 -7.50718,-27.13664 1.69754,-15.31666 3.5267,-24.6312 11.55876,-36.25066 8.03206,-11.61945 0.71719,-9.07293 18.78081,-19.98382 18.063627,-10.91089 22.008477,-13.4274 37.585397,-17.70105 15.577,-4.27365 24.5634,-8.55124 30.4333,-27.44028 5.8699,-18.88905 5.0127,-22.23064 3.4856,-32.34613 -1.5271,-10.11548 -1.527,-14.15867 -3.0626,-23.57255 -1.5356,-9.413889 -3.0712,-15.845489 -3.9199,-24.244489 -0.8487,-8.399 -3.9111,-16.06379 -0.8487,-22.86685 3.0624,-6.80307 1.8184,-10.45736 7.1118,-18.29702 5.2934,-7.83966 17.1608,-17.92882 17.1608,-17.92882 0,0 -6.1388,-2.30172 10.4886,-2.30172 16.6274,0 22.2382,5.57235 34.5911,7.95665 12.3529,2.3843 41.7091,27.48509 51.6419,35.83194 15.5874,13.09867 34.7864,20.65996 56.2479,46.805989 0,0 17.9374,11.82487 24.9282,13.88516 6.9909,2.06028 41.2131,13.58903 55.5816,12.93479 14.3685,-0.65423 39.1836,-0.65423 39.1836,-0.65423 0,0 7.8679,3.01741 4.6141,33.38984 -3.2539,30.37244 -2.7208,39.08808 -6.6489,59.95618 -3.9281,20.86809 -7.5379,46.36546 -20.995,70.89539 -13.457,24.52994 -26.6651,42.46052 -42.8788,66.19722 -16.2138,23.73671 -34.1899,43.2851 -46.3837,57.17643 -12.1938,13.89133 -33.2511,30.50272 -41.4148,36.96894 -8.1636,6.46622 -38.8789,27.93893 -69.6354,28.78765 -30.7566,0.84873 -92.0734,1.52661 -92.0734,1.52661 z"
       id="path189"
       sodipodi:nodetypes="csssscsscsssssssssssscssscsscsssssssc"
       inkscape:label="#Medycyna" />
    <path
       style="clip-rule:evenodd;display:inline;fill:#a3d293;fill-opacity:1;fill-rule:evenodd;stroke:none;stroke-width:1;stroke-linecap:round;stroke-linejoin:round;stroke-dasharray:none;stroke-opacity:1;paint-order:stroke fill markers;image-rendering:optimizeQuality;shape-rendering:geometricPrecision;text-rendering:geometricPrecision"
       d="m 378.26884,123.56805 c -47.4881,-11.16474 -41.4196,-16.63904 -45.4689,-27.605929 -4.0493,-10.9669 -2.4086,7.989689 -26.5083,-18.4846 -24.0997,-26.47428 -15.1211,-14.6676 -28.5531,-23.3435 -13.432,-8.6759 6.7891,6.08998 -21.6344,-12.27167 -28.4236,-18.36165 -36.2268,-23.77996 -45.44,-31.45766 -9.2132,-7.6776999 -25.358,-12.4090799 -29.9646,-24.67572 -4.6065,-12.26664 -10.9107,-30.64582 -10.9107,-30.64582 0,0 -0.8162,-14.25843 -1.6649,-19.85874 -0.8487,-5.60031 -7.1529,-13.03146 -2.3843,-41.796641 4.7686,-28.76518 6.4747,-37.6396 7.3149,-43.7191 0.8403,-6.0795 5.4699,-19.13518 7.5072,-26.60489 2.0373,-7.46971 3.9268,-9.5683 9.0195,-19.73668 5.0927,-10.16839 9.8613,-20.0296 18.8738,-30.41562 9.0125,-10.38601 10.1854,-12.54178 18.3795,-17.97719 8.1942,-5.43541 9.4889,-8.65528 20.4646,-10.71556 10.9757,-2.06029 22.8198,-3.07106 43.4685,-3.75782 20.6487,-0.68677 31.2658,-3.07098 49.6148,1.85958 18.3489,4.93057 8.9901,-5.03653 41.4665,16.32736 32.4765,21.36389 40.3029,29.18025 52.9632,51.91254 12.6603,22.7323 19.4505,29.68442 26.2794,38.73564 6.8289,9.05122 12.3106,14.19095 22.5797,32.66871 10.269,18.477771 12.5156,9.29694 20.2102,41.116671 7.6947,31.81973 10.0884,30.80761 10.079,49.52069 -0.01,18.7130901 -7.0245,36.0241401 -15.0262,54.73588 -8.0017,18.71174 -17.5746,33.98716 -30.0209,46.27141 -12.4463,12.28424 -27.7526,22.46931 -39.188,29.984959 -11.4355,7.51565 -27.9573,13.13298 -33.5424,15.67933 -5.585,2.54635 -17.9141,4.25437 -17.9141,4.25437 z"
       id="path190"
       inkscape:label="#Chemia"
       sodipodi:nodetypes="csssssscssssssssssssssscssssc" />
    <path
       style="clip-rule:evenodd;display:inline;fill:#a3d293;fill-opacity:1;fill-rule:evenodd;stroke:none;stroke-width:1;stroke-linecap:round;stroke-linejoin:round;stroke-dasharray:none;stroke-opacity:1;paint-order:stroke fill markers;image-rendering:optimizeQuality;shape-rendering:geometricPrecision;text-rendering:geometricPrecision"
       d="m 20.188323,-222.22676 c 0,0 -37.532213,-3.11819 -61.558525,-3.55773 -23.886531,-0.43699 -52.505676,12.9666 -65.213868,24.17803 -12.7082,11.21144 -12.31824,27.18649 -6.02656,46.61123 6.29169,19.42474 11.30945,22.74481 21.421333,35.07709 10.11188,12.33229 39.82899,23.437411 58.63018,41.381331 18.80119,17.94391 21.01607,17.76828 32.95223972,39.93948 17.56693028,32.6302301 -8.01986002,80.212 5.44948998,94.21704 13.5094703,14.04676 19.6061603,14.73352 19.6061603,14.73352 0,0 33.96922,1.55746 43.84628,1.55746 9.87706,0 10.74557,-2.22225 22.86786,-2.22225 12.122267,0 15.216047,-0.70974 24.591327,-9.23608 9.3752,-8.52634 35.1995,-37.21239 44.0799,-46.7796 8.8804,-9.5672099 3.4674,-20.6480399 5.5579,-35.29202 2.0904,-14.64399 2.0964,-18.28771 -0.4411,-32.63074 -2.5374,-14.34302 -4.2349,-18.94647 -5.7705,-30.66199 -1.5355,-11.71553 -6.1029,-19.740461 -3.2331,-29.561851 2.8698,-9.8214 0.2851,-24.16836 5.0925,-32.4095 4.8073,-8.24114 7.8868,-14.34948 8.7271,-20.72617 0.8403,-6.37669 3.3867,-7.06345 -1.382,-21.5313 -4.7687,-14.46786 -6.4023,-19.32197 -13.7559,-27.52438 -7.3536,-8.2024 -11.5642,-13.33526 -22.9273,-16.2545 -11.3632,-2.91924 -40.502277,-5.24955 -49.880197,-5.24955 -9.37792,0 -17.09317,2.1219 -23.0512,5.115 -5.95803,2.99309 -39.58202,10.82748 -39.58202,10.82748 z"
       id="path191"
       inkscape:label="#Biologia"
       sodipodi:nodetypes="cssssssscsssssssssssssssc" />
    <path
       style="clip-rule:evenodd;display:inline;fill:#a3d293;fill-opacity:1;fill-rule:evenodd;stroke:none;stroke-width:1;stroke-linecap:round;stroke-linejoin:round;stroke-dasharray:none;stroke-opacity:1;paint-order:stroke fill markers;image-rendering:optimizeQuality;shape-rendering:geometricPrecision;text-rendering:geometricPrecision"
       d="m 30.188623,-487.69586 c 0,0 -7.01835,-1.49961 -27.2180503,15.78168 -20.1996897,17.2813 -35.7596397,13.79417 -32.4878797,29.87506 3.27176,16.08089 6.47897,27.49277 30.39950972,49.35303 23.92055028,21.86026 15.95749028,-16.0492 47.92561028,38.71242 31.96811,54.76161 26.87541,40.47777 33.66565,62.90861 6.79024,22.43083 -0.88754,26.35062 13.09433,32.65479 13.981867,6.30418 34.840347,12.8093 51.121947,10.06225 16.2815,-2.74705 47.5158,-9.4117 47.5158,-9.4117 0,0 16.7287,-2.38439 36.7294,-2.38439 20.0007,0 37.5052,-2.40217 51.3522,-5.6352 13.847,-3.23302 31.8474,3.52245 35.2013,-12.90031 3.3539,-16.42276 4.0506,1.50471 3.3539,-24.48677 -0.6966,-25.99148 10.922,-21.43589 -12.0615,-45.60644 -52.679,-55.39983 -59.104,-48.00977 -85.2837,-65.86373 -26.1796,-17.85396 -25.461,-16.33297 -57.912,-33.66071 -32.451,-17.32774 -55.67651,-25.58145 -63.91547,-27.92241 -8.238947,-2.34096 -71.481047,-11.47618 -71.481047,-11.47618 z"
       id="path192"
       inkscape:label="#Wytwarzanie"
       sodipodi:nodetypes="cssssssscssssssssc" />
    <path
       style="clip-rule:evenodd;display:inline;fill:#a3d293;fill-opacity:1;fill-rule:evenodd;stroke:none;stroke-width:1;stroke-linecap:round;stroke-linejoin:round;stroke-dasharray:none;stroke-opacity:1;paint-order:stroke fill markers;image-rendering:optimizeQuality;shape-rendering:geometricPrecision;text-rendering:geometricPrecision"
       d="m -292.20407,-444.48705 c -8.74351,3.46424 -46.18531,8.17785 -54.51104,26.36487 -8.32573,18.18703 -24.96758,38.65097 -24.16714,49.34499 0.80044,10.69401 17.94609,22.16902 48.44109,20.78258 30.495,-1.38643 31.19312,-0.91646 58.27825,-3.83419 27.08513,-2.91773 35.55454,-1.90696 72.13835,-8.41409 36.58381,-6.50713 28.79277,14.29541 65.34363,-12.51336 36.550873,-26.80877 37.631223,-23.61574 44.876593,-34.28577 7.24537,-10.67004 18.2795,-17.2595 24.74564,-33.94969 6.46614,-16.69019 13.93484,-20.40081 7.31495,-31.61904 -6.61989,-11.21822 -14.13545,-22.12886 -33.04797,-23.66443 -18.912533,-1.53558 -39.186923,-2.15494 -52.979583,0.84872 -13.79266,3.00366 -42.29738,5.15331 -62.62207,11.9822 -20.32469,6.82889 -68.86957,23.67634 -68.86957,23.67634 z"
       id="path193"
       inkscape:label="#Fizyka" />
    <path
       style="clip-rule:evenodd;display:inline;fill:#a3d293;fill-opacity:1;fill-rule:evenodd;stroke:none;stroke-width:1;stroke-linecap:round;stroke-linejoin:round;stroke-dasharray:none;stroke-opacity:1;paint-order:stroke fill markers;image-rendering:optimizeQuality;shape-rendering:geometricPrecision;text-rendering:geometricPrecision"
       d="m -189.46045,-264.14994 c -17.96302,28.05768 -20.03744,11.25449 -37.48449,54.55776 -19.54139,48.50138 95.75462,49.83826 108.03887,41.99851 12.28425,-7.83975 10.61052,-9.0363 17.56909,-19.74439 6.958583,-10.7081 10.881563,-19.56181 27.571743,-28.08824 16.69019,-8.52642 22.75435,-9.79138 43.45093,-19.71531 20.6965697,-9.92392 25.8197897,-8.21666 39.3589297,-20.02289 13.5391503,-11.80623 16.7723503,-7.64693 20.3681203,-23.0797 3.59578,-15.43277 18.21444,-1.52149 0.52471,-35.71119 -17.68973,-34.1897 -17.0417,-37.46145 -28.4772203,-42.75485 -11.43552,-5.2934 -15.2778397,-9.37524 -29.6224597,-11.07278 -14.34462,-1.69753 -20.91329,-7.41144 -48.72303,-0.84881 -27.809743,6.56263 -50.322383,22.30805 -70.817613,42.55439 -22.10899,21.84052 -41.75758,61.9275 -41.75758,61.9275 z"
       id="path194"
       inkscape:label="#Ziemia"
       sodipodi:nodetypes="cssssssssssssc" />
  </g>
  <g
     inkscape:groupmode="layer"
     id="layer2"
     inkscape:label="L2"
     style="display:inline">
    <path
       class="fil0"
       d="m -363.4396,241.68489 c 3.96619,6.14182 16.48527,7.44305 21.04765,2.08846 2.4872,-2.91897 4.71538,-4.54032 5.94819,-10.52523 3.03585,-14.7382 1.34456,-11.17449 1.82763,-25.49292 0.76914,-22.80346 5.72606,-32.6695 -0.31804,-59.54346 -2.76562,-12.29581 -6.21323,-23.29581 -10.59227,-34.2426 -8.34906,-20.871457 -9.56328,-37.659787 -21.78509,-56.279572 -4.08805,-6.227937 -7.36626,-13.710207 -12.69914,-18.040411 -6.4217,-5.21482 -14.88743,-12.647945 -21.7881,-14.977616 -2.41944,-0.816986 -7.06024,-4.418125 -10.48298,-5.395171 -6.8687,-1.960855 -27.78301,-0.320121 -33.75197,6.566544 -7.15806,8.258677 -12.73002,18.888957 -15.49318,32.684379 -4.77058,23.817021 1.32816,32.000403 13.90025,45.992407 16.43391,18.28929 30.3,30.36147 42.98876,57.21694 3.23503,6.84699 11.60076,28.70405 14.07047,37.68774 1.29374,4.70623 5.98891,16.04619 8.35371,19.39709 3.03448,4.3009 8.53048,13.45997 12.0759,16.23376 0.49509,0.3873 6.59438,6.4687 6.69821,6.62966 z"
       id="path1"
       style="clip-rule:evenodd;display:inline;fill:#bbe9ab;fill-opacity:1;fill-rule:evenodd;stroke:none;stroke-width:0.2;stroke-dasharray:none;stroke-opacity:0.609571;image-rendering:optimizeQuality;shape-rendering:geometricPrecision;text-rendering:geometricPrecision"
       inkscape:label="#Komputery i komunikacja" />
    <path
       class="fil0"
       d="m 235.35377,29.27272 c -6.19765,-2.157888 -10.90429,-8.300158 -17.58502,-10.077507 -4.12138,-1.096528 -3.53367,-1.144321 -7.97692,-1.588884 -12.35487,-1.235848 -24.83761,-5.214369 -35.34927,8.265441 -8.89634,11.40849 -3.91838,11.056357 -9.52285,25.081725 -1.43418,3.589416 -0.61914,15.931668 0.31831,20.359712 2.03801,9.627985 0.86231,11.914823 4.85828,23.080291 6.28373,17.556172 21.86516,48.838332 34.27467,55.242112 7.03701,3.63134 8.52147,6.33028 16.6279,7.62384 6.82471,1.08886 7.92063,1.00635 14.54917,-1.79809 0.53553,-0.22634 7.72418,-5.695 8.28594,-6.32127 5.83699,-6.51063 10.50866,-10.31692 16.36259,-17.92498 6.3023,-8.1906 9.02694,-9.37505 14.75546,-20.15547 3.48613,-6.56023 19.14215,-24.491979 20.62059,-33.673147 1.38883,-8.622984 3.54324,-12.992865 -0.48908,-19.994503 -0.95821,-1.663278 -59.61474,-28.079142 -59.72977,-28.11927 z"
       id="path2"
       style="clip-rule:evenodd;display:inline;fill:#bbe9ab;fill-opacity:1;fill-rule:evenodd;stroke:none;stroke-width:0.2;stroke-dasharray:none;stroke-opacity:0.609571;image-rendering:optimizeQuality;shape-rendering:geometricPrecision;text-rendering:geometricPrecision"
       inkscape:label="#Choroby zakaźne" />
    <path
       class="fil0"
       d="m -63.82734,-53.1319 c -0.74728,-15.319831 -7.46543,-30.112591 -15.96122,-36.148901 -3.47492,-2.46899 -16.25166,-1.32197 -19.52631,0.79805 -9.85728,6.38258 -8.73021,25.146197 -13.62183,40.356014 -5.3102,16.512395 -9.60509,30.733444 -21.26159,35.799024 -16.90085,7.3443028 -21.28891,3.0109428 -35.40774,23.507721 -7.82064,11.353483 -8.92858,36.406804 -5.94874,51.799676 4.66429,24.095211 9.79635,38.878046 24.28951,47.589406 6.81843,4.098 22.12226,0.63799 26.26523,-8.6586 1.19647,-2.684965 7.66271,-16.059721 8.99114,-17.573308 6.15285,-7.010655 17.56726,-5.566052 24.12367,1.133049 8.98131,9.17756 15.91395,12.981593 27.02562,9.993193 6.74412,-1.81387 13.56992,-12.697091 14.5265,-23.867519 2.22955,-26.031268 -1.32325,-42.783979 -6.79412,-66.8566462 -1.61888,-7.123374 -8.08648,-35.0708608 -8.16435,-40.6666708 -0.12815,-9.194694 -0.90603,-7.379922 1.49538,-16.671554 0.0732,-0.282699 -0.0189,-0.278641 -0.0311,-0.532934 z"
       id="path3"
       style="clip-rule:evenodd;display:inline;fill:#bbe9ab;fill-opacity:1;fill-rule:evenodd;stroke:none;stroke-width:0.2;stroke-dasharray:none;stroke-opacity:0.609571;image-rendering:optimizeQuality;shape-rendering:geometricPrecision;text-rendering:geometricPrecision"
       inkscape:label="#Historia i kultura" />
    <path
       class="fil0"
       d="m -243.08496,221.21111 c -1.79211,-7.77444 -10.29418,-23.16641 -15.19891,-28.1869 -14.40245,-14.74226 -34.01127,-22.24978 -50.82579,-18.02283 -7.23073,1.81748 -18.09759,11.82465 -20.80229,23.37336 -2.00358,8.5549 -4.19515,18.26765 -2.97409,27.68643 3.1047,23.94778 26.8289,31.06484 39.08841,32.44722 9.22476,1.04017 17.99186,1.43604 27.24749,0.83412 3.02328,-0.19658 17.20386,-5.35324 19.36128,-7.27171 5.96814,-5.3068 7.49057,-21.23306 4.17767,-29.85289 -0.076,-0.19748 -0.0355,-0.84088 -0.0738,-1.0068 z"
       id="path4"
       style="clip-rule:evenodd;display:inline;fill:#bbe9ab;fill-opacity:1;fill-rule:evenodd;stroke:none;stroke-width:0.2;stroke-dasharray:none;stroke-opacity:0.609571;image-rendering:optimizeQuality;shape-rendering:geometricPrecision;text-rendering:geometricPrecision"
       inkscape:label="#Tekst i tłumaczenie" />
    <path
       class="fil0"
       d="m -88.237452,91.966754 c -2.637727,-3.133942 -10.938435,-9.784042 -14.336238,-10.147876 -4.90411,-0.525451 -7.85457,-0.475663 -12.08509,4.204761 -3.93085,4.348761 -5.76088,16.594221 -5.47053,23.798121 0.34253,8.49646 5.23771,9.07129 10.34666,8.99201 12.137719,-0.70404 15.552467,-4.1048 21.089451,-10.22869 2.036769,-5.36711 3.160879,-8.40298 1.796047,-14.478605 -0.07698,-0.34162 -1.24907,-2.031337 -1.3403,-2.139721 z"
       id="path5"
       style="clip-rule:evenodd;display:inline;fill:#bbe9ab;fill-opacity:1;fill-rule:evenodd;stroke:none;stroke-width:0.172104;stroke-dasharray:none;stroke-opacity:0.609571;image-rendering:optimizeQuality;shape-rendering:geometricPrecision;text-rendering:geometricPrecision"
       inkscape:label="#Filozofia"
       sodipodi:nodetypes="cccccccc" />
    <path
       class="fil0"
       d="m 131.23959,22.578128 c -3.02574,-3.68951 -12.5475,-11.518504 -16.44511,-11.946835 -5.62551,-0.6186 -9.01,-0.559987 -13.86282,4.950157 -4.509096,5.119685 -6.608315,19.535963 -6.275249,28.016921 0.392904,10.002662 9.838429,22.387748 15.698919,22.294417 5.13589,-0.08161 4.3233,-0.421569 8.90043,-1.968972 8.4783,-2.866212 7.22691,-4.642659 11.15294,-15.259864 2.33638,-6.318562 3.93395,-16.414104 2.36835,-23.566785 -0.0882,-0.402181 -1.43281,-2.391441 -1.53746,-2.519039 z"
       id="path6"
       style="clip-rule:evenodd;display:inline;fill:#bbe9ab;fill-opacity:1;fill-rule:evenodd;stroke:none;stroke-width:0.2;stroke-dasharray:none;stroke-opacity:0.609571;image-rendering:optimizeQuality;shape-rendering:geometricPrecision;text-rendering:geometricPrecision"
       inkscape:label="#Rozmnażanie" />
    <path
       class="fil0"
       d="m -62.39917,183.52968 c -6.43809,-3.34729 -17.25059,-4.59261 -22.64112,3.52675 -4.3733,6.58683 -4.02302,13.34545 -3.97494,22.77685 0.0904,17.75952 7.85233,35.79587 19.42112,36.15026 4.96867,0.15194 14.54753,0.84674 18.87739,-2.24536 10.28926,-7.34746 9.38979,-21.79079 7.12172,-37.00106 -1.98255,-13.26474 -10.60457,-18.94351 -18.80417,-23.20744 z"
       id="path8"
       style="clip-rule:evenodd;display:inline;fill:#bbe9ab;fill-opacity:1;fill-rule:evenodd;stroke:none;stroke-width:0.2;stroke-dasharray:none;stroke-opacity:0.609571;image-rendering:optimizeQuality;shape-rendering:geometricPrecision;text-rendering:geometricPrecision"
       inkscape:label="#Przestępczość" />
    <path
       class="fil0"
       d="m -232.41428,-17.465433 c -9.66656,-5.026806 -25.9021,-6.895683 -33.99597,5.295527 -6.56651,9.8903938 -6.04027,20.0382368 -5.96841,34.19977 0.0885,17.433984 -4.12795,40.809598 4.18614,51.062946 4.40309,5.428535 18.96182,3.033487 24.97477,3.216994 7.46024,0.227241 21.484,-0.459893 28.34478,-3.371644 69.71984,-29.599493 17.1596,-72.3604782 -17.54131,-90.403593 z"
       id="path9"
       style="clip-rule:evenodd;display:inline;fill:#bbe9ab;fill-opacity:1;fill-rule:evenodd;stroke:none;stroke-width:0.2;stroke-dasharray:none;stroke-opacity:0.609571;image-rendering:optimizeQuality;shape-rendering:geometricPrecision;text-rendering:geometricPrecision"
       inkscape:label="#Pieniądze" />
    <path
       class="fil0"
       d="m -6.64707,123.29774 c -2.12681,-5.05295 -25.68543,-24.058237 -30.62924,-26.569611 -8.98268,-4.563306 -29.36474,-6.511086 -33.46208,11.601921 -1.8096,7.99987 -3.4487,35.89776 -1.1421,44.09963 1.66888,5.93396 1.34156,7.93946 4.26101,14.57408 8.54305,19.41468 30.40273,23.40718 42.5647,12.25659 10.36358,-9.50174 20.83235,-29.71041 19.63779,-50.51829 -0.0749,-1.30303 -1.06696,-5.05656 -1.23008,-5.44432 z"
       id="path10"
       style="clip-rule:evenodd;display:inline;fill:#bbe9ab;fill-opacity:1;fill-rule:evenodd;stroke:none;stroke-width:0.2;stroke-dasharray:none;stroke-opacity:0.609571;image-rendering:optimizeQuality;shape-rendering:geometricPrecision;text-rendering:geometricPrecision"
       inkscape:label="#Rodzina, młodość i seks" />
    <path
       class="fil0"
       d="m -269.4726,161.75287 c 4.50691,0.9536 32.71508,38.03086 49.74926,39.17247 7.42254,0.49777 19.8878,-0.34176 23.13485,-13.63806 2.95962,-12.11817 4.26292,-24.62409 3.30033,-37.72066 -1.16122,-15.79776 -10.6674,-32.06938 -18.24896,-40.82177 -15.79428,-18.233386 -29.83196,-19.217646 -48.45662,-25.427998 -7.86954,-2.624543 -15.34263,-4.519571 -23.27747,-7.404269 -8.02501,-2.917612 -31.20685,-5.866786 -37.38866,5.800957 -12.08573,22.81112 7.50069,44.85575 18.40826,54.28445 5.38944,4.65889 10.85129,8.41333 16.39511,13.07087 4.75746,3.99745 8.42064,6.56609 13.16745,11.0302 1.28062,1.20429 2.42354,0.90716 3.12711,1.97664 z"
       id="path11"
       style="clip-rule:evenodd;display:inline;fill:#bbe9ab;fill-opacity:1;fill-rule:evenodd;stroke:none;stroke-width:0.2;stroke-dasharray:none;stroke-opacity:0.609571;image-rendering:optimizeQuality;shape-rendering:geometricPrecision;text-rendering:geometricPrecision"
       inkscape:label="#Biznes" />
    <path
       class="fil0"
       d="m -189.92881,350.02114 c -5.71813,-4.41091 -12.26169,-2.95053 -18.42738,-2.95053 -14.59862,0 -17.229,1.84273 -25.84063,22.21101 -2.33365,5.51961 -3.59351,13.66782 -1.26314,19.72443 1.3544,3.51998 15.65712,2.71066 18.54159,1.88105 5.9859,-1.72145 10.58134,-3.18589 16.50741,-6.07059 5.15419,-2.50911 8.2026,-2.13309 13.18275,-2.74763 3.13339,-0.3864 6.35695,-2.92437 8.11791,-7.1919 4.25636,-10.30836 -5.23616,-20.54953 -10.81851,-24.85584 z"
       id="path12"
       style="clip-rule:evenodd;display:inline;fill:#bbe9ab;fill-opacity:1;fill-rule:evenodd;stroke:none;stroke-width:0.2;stroke-dasharray:none;stroke-opacity:0.609571;image-rendering:optimizeQuality;shape-rendering:geometricPrecision;text-rendering:geometricPrecision"
       inkscape:label="#Język" />
    <path
       class="fil0"
       d="m -106.4262,315.59232 c 0,-21.54912 -10.96632,-36.06278 -18.42984,-53.59235 -5.02632,-11.80526 -12.0024,-23.34811 -20.95694,-25.71295 -7.28674,-1.92479 -31.83527,-25.56461 -39.17339,-25.30987 -39.84225,1.38554 -39.72804,-3.45821 -53.20287,34.53116 -20.51021,57.82517 56.37206,98.22763 59.36637,110.03379 8.40945,33.15735 45.7399,23.84498 60.78635,11.70923 4.26647,-3.44108 9.63652,-13.56007 10.71113,-21.56986 1.31696,-9.8142 0.89919,-20.02697 0.89919,-30.08915 z"
       id="path13"
       style="clip-rule:evenodd;display:inline;fill:#bbe9ab;fill-opacity:1;fill-rule:evenodd;stroke:none;stroke-width:0.2;stroke-dasharray:none;stroke-opacity:0.609571;image-rendering:optimizeQuality;shape-rendering:geometricPrecision;text-rendering:geometricPrecision"
       inkscape:label="#Wiedza i edukacja" />
    <path
       class="fil0"
       d="m -84.15448,383.95174 c 0.18989,-0.11227 44.23113,-1.84634 45.63662,-1.64885 8.79059,1.23584 16.88746,-14.36939 25.48598,-14.10067 15.89045,0.49642 38.02337,1.55507 38.70125,-33.07303 0.2306,-11.76964 -0.79045,-17.27708 -5.80694,-26.34012 -14.03386,-25.35496 -46.96178,-57.38466 -68.57009,-56.58616 -5.54737,0.20469 -21.51569,3.77337 -26.44475,7.01065 -6.98537,4.58765 -20.62988,16.32168 -23.99305,27.40554 -4.4061,14.52133 -5.42387,18.54539 -3.0588,34.91756 1.61505,11.17854 4.25718,16.76579 7.30969,26.31983 4.01128,12.55596 0.44646,38.28064 10.74009,36.09525 z"
       id="path14"
       style="clip-rule:evenodd;display:inline;fill:#bbe9ab;fill-opacity:1;fill-rule:evenodd;stroke:none;stroke-width:0.2;stroke-dasharray:none;stroke-opacity:0.609571;image-rendering:optimizeQuality;shape-rendering:geometricPrecision;text-rendering:geometricPrecision"
       inkscape:label="#Umysł i zdrowie" />
    <path
       class="fil0"
       d="M 103.07268,87.45363 C 92.686157,84.326812 88.323783,82.555324 77.59599,83.266805 c -7.3433,0.486494 -14.68797,9.884082 -18.66673,19.625235 -2.27627,5.57372 -12.377,34.20744 -15.17159,40.50977 -4.89653,11.04148 -28.77101,43.06352 -36.06103,49.52726 -5.81213,5.15351 -18.44105,29.32086 2.00932,33.89047 5.02988,1.12358 43.23576,-16.79283 48.57903,-25.11418 6.54247,-10.18933 18.86865,-23.73812 27.82072,-25.94876 8.317364,-2.05419 27.86225,-11.42382 34.61647,-16.33971 12.16635,-8.85474 8.13786,-30.08103 5.33425,-46.17591 C 122.849,94.83265 114.26305,90.822568 103.07268,87.45363 Z"
       id="path15"
       style="clip-rule:evenodd;display:inline;fill:#bbe9ab;fill-opacity:1;fill-rule:evenodd;stroke:none;stroke-width:0.2;stroke-dasharray:none;stroke-opacity:0.609571;image-rendering:optimizeQuality;shape-rendering:geometricPrecision;text-rendering:geometricPrecision"
       inkscape:label="#Mózg" />
    <path
       class="fil0"
       d="m -432.20642,-203.27418 c -11.06878,-5.19047 -20.7624,-0.95811 -30.79346,6.96647 -24.17831,19.10087 -37.43292,49.93802 -51.18781,86.41606 -8.12693,21.552729 -12.33192,65.074336 -4.66539,88.331821 8.94497,27.1354608 14.68961,29.9047348 31.66697,39.690075 3.36864,1.941919 10.50511,4.327498 13.8202,1.864819 8.83786,-6.566092 14.67075,-13.1637462 18.08366,-28.8050512 11.78354,-54.0053568 59.93196,-118.6378338 50.77769,-146.0898138 -5.35911,-16.07144 -10.69445,-40.3984 -27.70186,-48.37438 z"
       id="path16"
       style="clip-rule:evenodd;display:inline;fill:#bbe9ab;fill-opacity:1;fill-rule:evenodd;stroke:none;stroke-width:0.2;stroke-dasharray:none;stroke-opacity:0.609571;image-rendering:optimizeQuality;shape-rendering:geometricPrecision;text-rendering:geometricPrecision"
       inkscape:label="#Matematyka" />
    <path
       class="fil0"
       d="m -288.3683,-408.31905 c -0.6246,-2.5001 -5.65529,-12.92208 -7.25204,-14.16424 -3.35662,-2.61192 -16.28418,0.5424 -19.77632,2.64844 -2.27599,1.37292 -2.87491,1.47256 -5.16648,3.31393 -6.21296,4.99344 -10.89856,7.43809 -15.45411,16.9236 -3.4823,7.25052 0.55766,17.186 5.2113,19.34073 3.44651,1.5961 6.15967,0.34357 9.70099,1.06677 4.48287,0.91573 12.20214,-0.94594 16.48036,-3.28733 2.94131,-1.61007 11.77098,-6.19683 13.29314,-11.08341 0.71039,-2.28098 1.18526,-3.89556 1.85221,-6.17744 0.58116,-1.98791 1.6126,-6.5733 1.11095,-8.58105 z"
       id="path17"
       style="clip-rule:evenodd;display:inline;fill:#bbe9ab;fill-opacity:1;fill-rule:evenodd;stroke:none;stroke-width:0.2;stroke-dasharray:none;stroke-opacity:0.609571;image-rendering:optimizeQuality;shape-rendering:geometricPrecision;text-rendering:geometricPrecision"
       inkscape:label="#Fizyka kwantowa" />
    <path
       class="fil0"
       d="m -84.75667,-432.9871 c 3.94418,-3.85968 14.88209,-5.45499 12.51935,-13.95691 -0.007,-4.81446 -59.39617,2.449 -65.56404,2.3683 -4.81948,-0.0627 -11.99202,0.16186 -16.75167,2.30262 -12.9057,5.80411 -16.92052,8.86014 -26.4237,20.1221 -7.26379,8.60855 1.03663,20.68975 10.66276,23.43197 7.12909,2.03119 15.37924,3.9438 22.71134,4.92851 22.42746,3.0123 33.14569,-11.97253 39.03213,-14.2765 9.35837,-3.66426 12.212,-11.5695 13.60956,-14.29143 1.21697,-2.3716 5.89793,-5.92034 10.20427,-10.62866 z"
       id="Fotonika"
       style="clip-rule:evenodd;display:inline;fill:#bbe9ab;fill-opacity:1;fill-rule:evenodd;stroke:none;stroke-width:0.2;stroke-dasharray:none;stroke-opacity:0.609571;image-rendering:optimizeQuality;shape-rendering:geometricPrecision;text-rendering:geometricPrecision"
       sodipodi:nodetypes="cccccccccc"
       inkscape:label="#Fotonika" />
    <path
       class="fil0"
       d="m 52.95566,484.37558 c -6.27853,-6.54355 -15.32569,-4.96279 -22.10587,-1.83507 -7.20204,3.32205 -13.70599,6.16617 -20.7154,10.63389 -2.12409,1.35398 -4.5673,1.15559 -6.9739,3.10878 -1.62708,1.32017 -11.26824,3.46137 -13.68112,3.46137 -5.56294,0 -6.91679,-0.15871 -12.30268,-1.31926 -2.7435,-0.59064 -13.44888,-0.98877 -14.60737,3.80674 -0.69018,2.85584 -1.35139,0.5947 -1.51205,6.70586 -0.13088,4.98172 6.48181,11.02119 8.85344,12.59655 9.63706,6.39972 16.31942,4.57458 26.72316,4.57458 14.50573,0 16.11805,-1.51945 29.92923,-7.94442 8.07829,-3.75804 15.51613,-10.37509 22.969,-16.60843 3.59159,-3.00418 4.14242,-10.18752 3.7028,-16.08722 -0.0123,-0.16547 -0.13198,-0.93963 -0.27924,-1.09337 z"
       id="path19"
       style="clip-rule:evenodd;display:inline;fill:#bbe9ab;fill-opacity:1;fill-rule:evenodd;stroke:none;stroke-width:0.2;stroke-dasharray:none;stroke-opacity:0.609571;image-rendering:optimizeQuality;shape-rendering:geometricPrecision;text-rendering:geometricPrecision"
       inkscape:label="#Urazy i ortopedia" />
    <path
       class="fil0"
       d="m -193.52668,-463.20542 c 5.90311,0 20.7184,-2.50551 18.36317,14.4253 -1.02106,7.33844 -8.60945,17.09357 -11.97098,22.82013 -7.2362,12.32648 -18.33859,16.45649 -28.40079,16.45649 -6.54629,0 -11.29775,0.23671 -17.91016,1.31791 -6.2299,1.01853 -13.809,0.81743 -20.10829,0.81743 -8.98596,0 -18.42984,0.36792 -27.36716,0.11588 -4.58014,-0.12895 -8.2242,-4.60208 -10.51058,-11.03336 -4.06619,-11.4378 4.52741,-15.06599 9.29061,-18.4976 2.25906,-1.62766 11.47152,-6.52236 14.08004,-7.60446 12.44421,-5.16026 20.71813,-9.99905 34.03313,-11.87514 6.8463,-0.96443 15.02377,-2.11776 21.73673,-3.83424 3.69406,-0.94459 7.03647,-2.38694 10.83025,-2.45863 2.71836,-0.0514 4.93288,-0.64971 7.93403,-0.64971 z"
       id="path20"
       style="clip-rule:evenodd;display:inline;fill:#bbe9ab;fill-opacity:1;fill-rule:evenodd;stroke:none;stroke-width:0.2;stroke-dasharray:none;stroke-opacity:0.609571;image-rendering:optimizeQuality;shape-rendering:geometricPrecision;text-rendering:geometricPrecision"
       inkscape:label="#Kosmos" />
    <path
       class="fil0"
       d="m 12.4511,-314.32469 c 6.47416,0 22.72227,-2.50551 20.13916,14.4253 -1.11969,7.33844 -9.44198,17.09402 -13.12865,22.82013 -7.93594,12.32647 -19.18560003,17.86773 -30.22104,17.86773 -7.17937,0 -16.35713,19.51161 -23.63431,19.15993 -15.45493,-0.74755 -25.44063,-6.87674 -41.07998,-6.44075 -42.36908,1.1822 -50.69409,-3.08669 -48.31099,-30.90973 1.24729,-14.56282 0.9063,-17.54761 6.31596,-22.54646 10.00592,-9.24519 33.42438,-12.85039 35.27824,-13.55105 13.64779,-5.15846 22.50833,9.52113 37.11078,7.64594 7.50833,-0.96397 29.58961,-3.64668 36.95176,-5.36271 4.05117,-0.94458 7.71707997,-2.38693 11.87781,-2.45862 2.98121,-0.0514 5.40994,-0.64971 8.70126,-0.64971 z"
       id="path21"
       style="clip-rule:evenodd;display:inline;fill:#bbe9ab;fill-opacity:1;fill-rule:evenodd;stroke:none;stroke-width:0.2;stroke-dasharray:none;stroke-opacity:0.609571;image-rendering:optimizeQuality;shape-rendering:geometricPrecision;text-rendering:geometricPrecision"
       inkscape:label="#Litosfera" />
    <path
       class="fil0"
       d="m -101.42829,-454.86198 c -3.36236,-0.89588 -13.02018,7.20093 -16.50631,7.0544 -3.28449,-0.13797 -7.16161,-1.31836 -10.39773,-2.18089 -4.61648,-1.23134 -9.49854,-2.26655 -14.06911,-3.66787 -2.34239,-0.71779 -3.84406,-4.35635 -4.48642,-9.18342 -1.14237,-8.58421 3.57274,-9.95351 6.30367,-11.70922 12.66334,-8.14776 15.34126,0.849 25.97314,1.61999 5.21294,0.37784 12.9486,-9.77407 17.6077,-8.6559 27.23957,6.5395 12.25077,31.16809 -4.42494,26.72291 z"
       id="path23"
       style="clip-rule:evenodd;display:inline;fill:#bbe9ab;fill-opacity:1;fill-rule:evenodd;stroke:none;stroke-width:0.2;stroke-dasharray:none;stroke-opacity:0.609571;image-rendering:optimizeQuality;shape-rendering:geometricPrecision;text-rendering:geometricPrecision"
       inkscape:label="#Fizyka jądrowa" />
    <path
       class="fil0"
       d="m 129.15622,-340.05342 c -15.45301,-4.89921 -25.78326,-6.26581 -28.50079,23.32196 -0.916413,9.9711 0.19071,15.55564 3.74433,23.86166 3.30989,7.73701 9.83515,14.93433 15.39727,16.76173 10.29144,3.38111 14.90628,3.54207 25.48434,3.30897 5.25584,-0.11542 13.54233,-5.60122 16.44675,-13.62319 2.10386,-5.80997 3.23585,-14.40275 2.27709,-21.06533 -2.08118,-14.46948 -26.17233,-29.81411 -34.84899,-32.5658 z"
       id="path24"
       style="clip-rule:evenodd;display:inline;fill:#bbe9ab;fill-opacity:1;fill-rule:evenodd;stroke:none;stroke-width:0.2;stroke-dasharray:none;stroke-opacity:0.609571;image-rendering:optimizeQuality;shape-rendering:geometricPrecision;text-rendering:geometricPrecision"
       inkscape:label="#Paliwa i odpady" />
    <path
       class="fil0"
       d="m 108.46103,-221.33127 c -30.06011,-11.78903 -48.74897,-19.53777 -56.62425,12.4189 -2.65496,10.76915 -2.65715,16.16883 3.6446,26.90281 5.87006,9.99861 12.21115,9.53375 23.02474,13.84818 13.730849,5.47768 15.617495,19.81685 26.40376,22.27908 4.93096,1.12539 24.65208,3.02628 31.20329,4.3009 10.37478,2.01812 27.18438,-0.72681 33.5946,-8.50531 4.64326,-5.63323 7.60642,-14.77382 6.28181,-22.61183 -2.8741,-17.02098 -50.65092,-42.01343 -67.52855,-48.63273 z"
       id="path25"
       style="clip-rule:evenodd;display:inline;fill:#bbe9ab;fill-opacity:1;fill-rule:evenodd;stroke:none;stroke-width:0.2;stroke-dasharray:none;stroke-opacity:0.609571;image-rendering:optimizeQuality;shape-rendering:geometricPrecision;text-rendering:geometricPrecision"
       inkscape:label="#Rośliny" />
    <path
       class="fil0"
       d="m 102.39125,-49.294954 c -6.061584,21.522969 -17.057685,48.9911758 -6.351753,53.1757468 13.286303,5.193629 27.906793,6.3961122 39.651813,4.42669 9.56055,-1.604213 17.21643,-5.311758 20.69628,-10.682581 9.23787,-14.2566668 18.29623,-23.8724788 -1.58528,-38.5295228 -16.87244,-12.438289 -39.87941,-52.69872 -52.41106,-8.390333 z"
       id="path26"
       style="clip-rule:evenodd;display:inline;fill:#bbe9ab;fill-opacity:1;fill-rule:evenodd;stroke:none;stroke-width:0.2;stroke-dasharray:none;stroke-opacity:0.609571;image-rendering:optimizeQuality;shape-rendering:geometricPrecision;text-rendering:geometricPrecision"
       inkscape:label="#Zwierzęta domowe" />
    <path
       class="fil0"
       d="m -48.86614,-200.02382 c -21.49492,-5.11202 -35.86431,-6.53814 -39.64443,24.33553 -1.27489,10.40484 0.26558,16.23195 5.20829,24.89867 4.60418,8.07292 9.26137,18.52465 16.9984,20.43095 14.31501,3.52719 33.85034,32.161359 48.56454,31.919699 7.30997,-0.11994 15.7011,-27.019589 17.74512997,-39.388449 1.23581003,-7.47686 0.9369,-21.26281 -0.39673,-28.2153 C -3.28608,-181.14072 -36.79679,-197.1522 -48.86614,-200.02382 Z"
       id="path27"
       style="clip-rule:evenodd;display:inline;fill:#bbe9ab;fill-opacity:1;fill-rule:evenodd;stroke:none;stroke-width:0.2;stroke-dasharray:none;stroke-opacity:0.609571;image-rendering:optimizeQuality;shape-rendering:geometricPrecision;text-rendering:geometricPrecision"
       inkscape:label="#Ekologia i ochrona środowiska" />
    <path
       class="fil0"
       d="m 73.31176,-166.23525 c 14.218566,17.6477 8.933771,33.13842 0.45602,50.87809 -5.58698,11.69119 -10.33625,27.573709 -19.70063,34.293559 -19.87987,14.26478 -41.88327,10.37914 -53.38949003,-3.43748 C -5.23283,-91.597401 -2.60656,-121.54136 0.07900997,-133.57206 1.70172,-140.84467 6.79389,-151.78515 10.32483,-156.16946 c 3.91182,-4.85908 16.87845,5.86994 32.24867,4.06058 14.7571,-1.73677 20.42797,-18.77849 30.73826,-14.12637 z"
       id="path28"
       style="clip-rule:evenodd;display:inline;fill:#bbe9ab;fill-opacity:1;fill-rule:evenodd;stroke:none;stroke-width:0.2;stroke-dasharray:none;stroke-opacity:0.609571;image-rendering:optimizeQuality;shape-rendering:geometricPrecision;text-rendering:geometricPrecision"
       inkscape:label="#Biologia organizmów" />
    <path
       class="fil0"
       d="m -158.76075,-244.84711 c -28.81852,2.28985 -52.73231,9.00775 -62.24234,22.77962 -2.09894,9.9711 -7.77943,18.43126 0.35925,26.73728 7.58046,7.73656 22.71462,17.37267 35.40638,19.93769 19.36483,3.9136 30.30191,15.70984 54.45071,12.4951 8.65999,-1.15289 25.78134,-18.85739 34.805,-24.56547 5.57169,-3.52404 22.3403,-15.66701 20.14436,-22.32959 7.23264,-14.99069 0.0965,-26.00015 -20.20146,-33.13345 -11.50403,-4.04299 -55.53325,-0.92564 -62.7219,-1.92118 z"
       id="path29"
       style="clip-rule:evenodd;display:inline;fill:#bbe9ab;fill-opacity:1;fill-rule:evenodd;stroke:none;stroke-width:0.2;stroke-dasharray:none;stroke-opacity:0.609571;image-rendering:optimizeQuality;shape-rendering:geometricPrecision;text-rendering:geometricPrecision"
       inkscape:label="#Gleba, woda, biosfera"
       sodipodi:nodetypes="ccccccccc" />
    <path
       class="fil0"
       d="m 192.37977,-414.84456 c -5.64983,3.24314 -11.77399,4.90281 -16.93064,9.86965 -25.64964,24.7066 -10.2939,56.70204 2.94514,81.73417 8.98841,16.99438 20.04927,24.80714 33.01043,36.37389 8.65016,7.71988 24.55482,14.78194 34.41811,17.63011 10.0133,2.89056 19.59544,-0.6691 29.61803,2.38378 29.04206,8.84301 39.78378,1.78637 35.69108,-40.14546 -2.98803,-30.61261 -15.22596,-39.76853 -30.40683,-57.7607 -17.74541,-21.03106 -35.57852,-34.29265 -57.25459,-48.26346 -11.44721,-7.37812 -19.06182,-8.72623 -31.09073,-1.82198 z"
       id="path30"
       style="clip-rule:evenodd;display:inline;fill:#bbe9ab;fill-opacity:1;fill-rule:evenodd;stroke:none;stroke-width:0.2;stroke-dasharray:none;stroke-opacity:0.609571;image-rendering:optimizeQuality;shape-rendering:geometricPrecision;text-rendering:geometricPrecision"
       inkscape:label="#Materiały" />
    <path
       class="fil0"
       d="m 279.49255,-201.11539 c 9.12148,-3.65614 18.57001,-9.81149 27.64039,-13.62679 6.94412,-2.92032 23.73486,-17.54806 15.50684,-32.24884 -2.67846,-4.78513 -3.64979,-7.7573 -7.97965,-9.86649 -11.47179,-5.58815 -28.63194,-6.06157 -40.75894,-3.57544 -13.73057,2.81391 -24.45864,3.93253 -35.84382,18.3709 -6.09519,7.7298 -8.02255,15.67782 -8.08129,28.0575 -0.0795,16.81674 5.06457,23.22637 15.03579,22.98921 2.59595,-0.0618 19.61812,-4.88928 22.87856,-6.34651 4.00936,-1.79178 7.79877,-2.22823 11.60212,-3.75354 z"
       id="path31"
       style="clip-rule:evenodd;display:inline;fill:#bbe9ab;fill-opacity:1;fill-rule:evenodd;stroke:none;stroke-width:0.2;stroke-dasharray:none;stroke-opacity:0.609571;image-rendering:optimizeQuality;shape-rendering:geometricPrecision;text-rendering:geometricPrecision"
       inkscape:label="#Woda i odpady" />
    <path
       class="fil0"
       d="m 367.18622,-44.12477 c 5.25993,1.55101 21.53782,0.826454 27.49339,-2.281428 5.64792,-2.946919 11.14256,-2.11776 15.83362,-7.774437 4.88998,-5.896544 9.9204,-11.963516 14.01583,-19.307366 3.28094,-5.88302 8.98732,-11.826 11.93355,-20.0423 4.50227,-12.556419 7.46844,-18.722129 -6.92635,-20.749719 -7.59632,-1.06947 -22.06379,-0.0343 -30.12432,-0.0343 -9.55646,0 -26.85459,-2.68271 -35.02003,5.39562 -7.49741,7.41689 -15.60302,18.280269 -15.06066,34.224109 0.30192,8.87593 12.34722,27.728817 17.06288,29.96651 0.12541,0.05951 0.63498,0.556831 0.79209,0.603271 z"
       id="path32"
       style="clip-rule:evenodd;display:inline;fill:#bbe9ab;fill-opacity:1;fill-rule:evenodd;stroke:none;stroke-width:0.2;stroke-dasharray:none;stroke-opacity:0.609571;image-rendering:optimizeQuality;shape-rendering:geometricPrecision;text-rendering:geometricPrecision"
       inkscape:label="#Terapeutyka molekularna" />
    <path
       class="fil0"
       d="m 350.74275,-225.55416 c -8.59797,-2.62094 -33.14486,7.52735 -42.37208,10.92876 -6.87717,2.53481 -19.9479,8.85789 -25.12204,16.82259 -2.5566,3.93524 -15.66722,29.65811 -11.72398,35.71381 4.79571,7.36459 18.20224,21.40845 24.54935,21.40845 7.76817,0 46.82844,-17.50477 53.35944,-24.22326 10.90566,-11.21867 31.19428,-6.43985 35.64491,-32.85932 3.26126,-19.35967 -19.32358,-24.43968 -27.04804,-26.19223 -1.63609,-0.37107 -5.65939,-0.67451 -7.03127,-1.40763 z"
       id="path33"
       style="clip-rule:evenodd;display:inline;fill:#bbe9ab;fill-opacity:1;fill-rule:evenodd;stroke:none;stroke-width:0.2;stroke-dasharray:none;stroke-opacity:0.609571;image-rendering:optimizeQuality;shape-rendering:geometricPrecision;text-rendering:geometricPrecision"
       inkscape:label="#Materiały miękkie i biokompatybilne" />
    <path
       class="fil0"
       d="m 236.69615,-25.900854 c 12.6311,-5.552525 48.70279,-28.651302 60.40492,-41.351547 8.0455,-8.7312 11.91688,-13.43698 11.43053,-30.20277 -0.18716,-6.453369 -18.60689,-35.904529 -22.11488,-41.691959 -4.15773,-6.85961 -20.50365,-23.06676 -26.06468,-24.15743 -11.96142,-2.345 -19.10308,2.28188 -30.08333,3.72197 -5.06977,0.66505 -29.03659,16.27749 -30.71313,25.40681 -1.64101,8.93589 -13.25188,19.66491 -12.97154,42.198749 0.39864,32.039624 -8.4477,28.079588 10.19198,62.992192 2.4036,4.502438 4.33833,8.56392 7.82774,8.957083 7.70205,3.309873 24.50646,-2.538426 32.09239,-5.873098 z"
       id="path34"
       style="clip-rule:evenodd;display:inline;fill:#bbe9ab;fill-opacity:1;fill-rule:evenodd;stroke:none;stroke-width:0.2;stroke-dasharray:none;stroke-opacity:0.609571;image-rendering:optimizeQuality;shape-rendering:geometricPrecision;text-rendering:geometricPrecision"
       inkscape:label="#Żywność" />
    <path
       class="fil0"
       d="m -60.40105,-357.81248 c -2.97737,1.17768 -13.26882,-0.35349 -18.51099,0.60101 -6.44438,1.17318 -11.38518,1.27553 -17.90797,3.5051 -8.06982,2.75846 -15.36831,7.87048 -20.75748,18.51789 -1.70823,3.3748 -2.01807,18.35107 -0.16093,22.50182 4.56155,10.19519 17.93283,0.0244 23.86573,-2.86937 17.80688,-8.68656 13.62511,-1.97167 32.56316,-1.05595 4.96867,0.23987 19.90746,-4.19133 25.4245,-3.2499 4.84872,0.8269 20.74218,5.86678 23.7048,-1.72866 4.29243,-11.00496 -7.42991,-20.52293 -11.86032,-24.914 -4.24762,-4.20982 -29.85956,-13.13264 -36.3605,-11.30794 z"
       id="path35"
       style="clip-rule:evenodd;display:inline;fill:#bbe9ab;fill-opacity:1;fill-rule:evenodd;stroke:none;stroke-width:0.2;stroke-dasharray:none;stroke-opacity:0.609571;image-rendering:optimizeQuality;shape-rendering:geometricPrecision;text-rendering:geometricPrecision"
       inkscape:label="#Beton" />
    <path
       class="fil0"
       d="m 119.86452,-448.24629 c -12.78712,0.61364 -27.179183,9.06439 -40.135702,13.36664 -10.325598,3.42891 -19.603908,1.83461 -27.433008,8.88405 -3.61837,3.25757 -14.7071,13.322 -12.53466,18.71627 8.62994,21.42693 31.13827,16.64044 52.202863,16.52682 5.408295,-0.0293 20.916777,-1.19437 26.443377,-1.94598 13.92457,-1.89367 29.9153,-0.88461 42.85105,-6.37852 13.59888,-5.77571 17.59349,-7.42141 25.60429,-19.96295 3.4946,-5.47091 -10.44281,-11.09874 -23.42584,-14.69311 -16.32297,-4.51867 -34.33969,-14.95643 -43.57237,-14.51322 z"
       id="path36"
       style="clip-rule:evenodd;display:inline;fill:#bbe9ab;fill-opacity:1;fill-rule:evenodd;stroke:none;stroke-width:0.2;stroke-dasharray:none;stroke-opacity:0.609571;image-rendering:optimizeQuality;shape-rendering:geometricPrecision;text-rendering:geometricPrecision"
       inkscape:label="#Nanotechnologia i elektronika" />
    <path
       class="fil0"
       d="m 43.22515,-477.15504 c -3.26782,1.12944 -24.20863,7.00615 -30.99264,11.87289 -5.65065,4.05337 -9.91466,4.93348 -14.99207,12.43018 -7.0862,10.46255 -2.36753,19.87457 3.65497997,27.82845 11.64147003,15.37484 27.40077003,4.83068 39.75810003,-1.89728 13.78768,-7.50662 13.52565,-5.50293 26.83409,-6.34111 6.50258,-0.40984 15.704386,-4.16879 14.793714,-17.99532 -0.826518,-12.54695 -10.520134,-20.89851 -17.132004,-23.19977 -3.47165,-1.20835 -5.2031,-1.62766 -8.64579,-1.83101 -5.1378,-0.30389 -7.87418,-2.64663 -13.27838,-0.86703 z"
       id="path37"
       style="clip-rule:evenodd;display:inline;fill:#bbe9ab;fill-opacity:1;fill-rule:evenodd;stroke:none;stroke-width:0.2;stroke-dasharray:none;stroke-opacity:0.609571;image-rendering:optimizeQuality;shape-rendering:geometricPrecision;text-rendering:geometricPrecision"
       inkscape:label="#Technologie produkcyjne" />
    <path
       class="fil0"
       d="m 333.34435,156.61741 c 7.75997,-0.68038 30.07595,-7.20995 25.495,-27.16026 -2.14431,-9.33808 -25.66714,-13.06681 -34.76238,-26.30676 -6.52635,-9.500836 -10.5532,-13.364384 -17.16507,-24.397746 -4.88479,-8.151369 -14.49944,0.683527 -17.61562,9.251054 -4.78916,13.165102 -26.32998,50.829842 -34.24516,60.437542 -10.31822,12.52485 3.47712,29.79878 11.83929,30.32405 8.34605,0.52436 15.16038,2.99741 24.21957,-0.12039 9.15453,-3.15116 18.27628,-3.92306 26.86168,-12.56588 0.065,-0.0654 13.07702,-9.26052 15.37269,-9.46161 z"
       id="path38"
       style="clip-rule:evenodd;display:inline;fill:#bbe9ab;fill-opacity:1;fill-rule:evenodd;stroke:none;stroke-width:0.2;stroke-dasharray:none;stroke-opacity:0.609571;image-rendering:optimizeQuality;shape-rendering:geometricPrecision;text-rendering:geometricPrecision"
       inkscape:label="#Biologia komórki" />
    <path
       class="fil0"
       d="m 408.59134,125.04037 c -31.96479,0.2827 -24.38678,1.0564 -51.50421,25.60835 -10.97424,9.93593 -63.65771,9.76821 -34.91894,59.62597 14.08468,24.43472 6.96078,39.36589 10.81522,64.91788 2.67164,17.71127 6.84903,41.12792 18.74433,48.43885 6.28099,3.8604 30.03087,-17.74959 35.2337,-26.83878 16.51041,-28.84202 26.54584,-65.33314 39.39771,-98.63792 20.36321,-52.77041 21.95395,-73.46558 -17.76781,-73.11435 z"
       id="path39"
       style="clip-rule:evenodd;display:inline;fill:#bbe9ab;fill-opacity:1;fill-rule:evenodd;stroke:none;stroke-width:0.2;stroke-dasharray:none;stroke-opacity:0.609571;image-rendering:optimizeQuality;shape-rendering:geometricPrecision;text-rendering:geometricPrecision"
       inkscape:label="#Nowotwory" />
    <path
       class="fil0"
       d="m 230.8832,403.08687 c -2.13064,-3.74091 -2.54786,-5.03041 -5.72196,-7.44394 -7.06461,-5.37263 -18.24897,-4.89561 -25.98053,-4.89561 -7.29876,0 -15.06065,-0.73086 -22.23729,-0.26782 -5.69682,0.36747 -15.07896,11.24618 -23.52365,12.76878 -6.0971,1.09969 -14.86529,-0.29938 -20.11621,5.14178 -11.03107,11.42923 -15.42268,24.82879 -15.42268,44.55818 0,10.17128 0.91586,12.93605 5.59054,19.8385 1.95905,2.89236 9.52667,6.54625 12.39394,6.92994 12.0718,1.61459 18.32902,-8.04541 29.7325,-11.47296 7.29795,-2.19306 14.6959,-2.88966 22.05942,-4.01414 6.66925,-1.01808 33.17464,-10.03197 37.00996,-18.40246 4.05882,-8.85789 21.24984,-16.34693 6.21596,-42.74025 z"
       id="path40"
       style="clip-rule:evenodd;display:inline;fill:#bbe9ab;fill-opacity:1;fill-rule:evenodd;stroke:none;stroke-width:0.2;stroke-dasharray:none;stroke-opacity:0.609571;image-rendering:optimizeQuality;shape-rendering:geometricPrecision;text-rendering:geometricPrecision"
       inkscape:label="#Serce i układ krążenia" />
    <path
       class="fil0"
       d="m 353.57941,335.24642 c -4.17029,-8.92688 -8.61327,-17.51199 -15.46421,-17.51199 -17.25851,0 -19.94462,13.43292 -32.85825,20.56306 -8.91327,4.92175 -44.15927,-3.1922 -53.15588,12.36299 -10.71577,18.52826 -16.82271,75.18927 4.10527,75.18927 7.034,0 26.45867,-10.19158 33.70744,-14.17596 9.73324,-5.35009 18.29131,-9.62979 27.74094,-17.46735 7.46543,-6.19142 32.46725,-25.18092 34.37521,-37.84916 0.48143,-3.1958 2.66125,-18.7316 1.54948,-21.11086 z"
       id="path41"
       style="clip-rule:evenodd;display:inline;fill:#bbe9ab;fill-opacity:1;fill-rule:evenodd;stroke:none;stroke-width:0.2;stroke-dasharray:none;stroke-opacity:0.609571;image-rendering:optimizeQuality;shape-rendering:geometricPrecision;text-rendering:geometricPrecision"
       inkscape:label="#Chirurgia" />
    <path
       class="fil0"
       d="m 317.52739,46.74097 c 5.66404,-6.270318 12.32345,-18.832147 8.15917,-31.282158 -5.35064,-15.9993002 -24.52394,-22.8864152 -34.48642,-27.01643 -9.98433,-4.138582 -43.68986,-10.927858 -55.39308,-10.927858 -7.39795,0 -26.8983,-0.768291 -25.03461,19.1734598 1.185,12.679957 15.15301,24.2778152 22.21379,28.4010672 5.60338,3.272451 13.32238,4.570971 19.53998,8.44534 3.03502,1.890969 6.72307,3.441528 10.07641,5.485345 9.79854,5.973643 22.95096,11.367911 33.22902,14.528545 8.59523,2.644382 14.49698,1.161905 21.69574,-6.807311 z"
       id="path42"
       style="clip-rule:evenodd;display:inline;fill:#bbe9ab;fill-opacity:1;fill-rule:evenodd;stroke:none;stroke-width:0.2;stroke-dasharray:none;stroke-opacity:0.609571;image-rendering:optimizeQuality;shape-rendering:geometricPrecision;text-rendering:geometricPrecision"
       inkscape:label="#Bakterie" />
    <path
       class="fil0"
       d="m 383.50865,42.97932 c -7.36899,-3.250358 -13.42948,-7.387587 -22.49522,-5.345123 -10.19144,2.295855 -28.66063,-4.535352 -37.04712,4.715702 -2.69868,2.977127 -5.30037,3.771118 -8.18813,6.887115 -3.3364,3.599786 -5.77852,7.067015 -7.17909,13.418491 -2.22545,10.091033 1.93555,21.17309 7.0075,26.969088 12.37591,14.142147 17.44868,17.690077 31.97681,23.571747 7.12117,2.88244 19.76238,3.61331 26.37234,-1.08977 5.22933,-3.72107 5.48207,-3.77157 9.79608,-9.80247 7.59249,-10.614499 8.42228,-11.58884 11.60868,-27.150791 4.21592,-20.587403 -2.06506,-27.857763 -11.85185,-32.173989 z"
       id="path43"
       style="clip-rule:evenodd;display:inline;fill:#bbe9ab;fill-opacity:1;fill-rule:evenodd;stroke:none;stroke-width:0.2;stroke-dasharray:none;stroke-opacity:0.609571;image-rendering:optimizeQuality;shape-rendering:geometricPrecision;text-rendering:geometricPrecision"
       inkscape:label="#DNA i genom" />
    <path
       class="fil0"
       d="m 429.4062,16.136026 c 12.5505,2.482067 44.3478,0.320121 56.29392,-6.7243502 18.0271,-10.63073 22.13209,-43.2912138 12.47372,-68.3896208 -5.04736,-13.116406 -23.1619,-32.167226 -32.07626,-40.853786 -12.68411,-12.360739 -21.17088,-5.821249 -30.11312,10.13071 -7.01816,12.51945 -8.89114,14.1417 -15.3317,29.037705 -8.97858,20.765048 -16.49729,34.892765 -4.58314,60.3983128 2.56234,5.485796 13.31691,16.3969712 13.33658,16.4010292 z"
       id="path44"
       style="clip-rule:evenodd;display:inline;fill:#bbe9ab;fill-opacity:1;fill-rule:evenodd;stroke:none;stroke-width:0.2;stroke-dasharray:none;stroke-opacity:0.609571;image-rendering:optimizeQuality;shape-rendering:geometricPrecision;text-rendering:geometricPrecision"
       inkscape:label="#Chemia organiczna" />
    <path
       class="fil0"
       d="m -46.64615,466.1449 c -12.23492,-13.34951 -12.75542,-15.38296 -26.51278,-23.25433 -7.61871,-4.35906 -15.90739,-5.74145 -23.80972,-2.69308 -2.95634,1.14026 -8.36081,9.67082 -8.38977,14.95282 -0.0519,9.52654 0.89428,10.56941 3.53367,19.03324 4.83206,15.49522 19.36128,30.06975 29.41146,35.43697 7.51927,4.01594 10.06221,6.40017 18.44433,6.40017 7.33237,0 9.0936,0.6682 14.60136,-7.55982 5.3184,-7.94577 4.05581,-11.99192 4.16073,-22.85801 0.085,-8.77989 -7.35041,-14.99746 -11.43928,-19.45796 z"
       id="path45"
       style="clip-rule:evenodd;display:inline;fill:#bbe9ab;fill-opacity:1;fill-rule:evenodd;stroke:none;stroke-width:0.2;stroke-dasharray:none;stroke-opacity:0.609571;image-rendering:optimizeQuality;shape-rendering:geometricPrecision;text-rendering:geometricPrecision"
       inkscape:label="#Sport" />
    <path
       class="fil0"
       d="m -26.51628,382.26366 c -0.0552,-0.023 -43.58303,0.1303 -45.49481,0.46981 -6.23454,1.1078 -15.81313,3.46903 -20.81349,9.9418 -3.30198,4.27429 -1.56533,1.05549 -3.77384,6.48628 -1.39019,3.41854 -1.93938,4.69406 -1.58719,9.01029 0.51586,6.31676 5.85311,10.41476 9.3335,11.06808 3.55444,0.66684 4.9173,1.07038 8.68349,1.07038 14.55819,0 29.71147,1.81251 43.90654,-3.8897 3.96482,-1.59249 14.7683,-5.99123 17.20823,-11.69345 2.4413,-5.70537 3.79078,-7.78841 2.83721,-14.95417 -0.30683,-2.30622 -8.18239,-6.62741 -10.29964,-7.50932 z"
       id="path46"
       style="clip-rule:evenodd;display:inline;fill:#bbe9ab;fill-opacity:1;fill-rule:evenodd;stroke:none;stroke-width:0.2;stroke-dasharray:none;stroke-opacity:0.609571;image-rendering:optimizeQuality;shape-rendering:geometricPrecision;text-rendering:geometricPrecision"
       inkscape:label="#Zawód medyczny" />
    <path
       class="fil0"
       d="m 128.77889,375.01494 c -0.0415,-8.54227 -0.40602,-12.8603 -4.4315,-18.90924 -3.50635,-5.26893 -13.53713,-10.15371 -18.48149,-14.87166 -3.18749,-3.04161 -14.843707,-14.43161 -17.929009,-15.34644 -5.224412,-1.5492 -9.934611,-6.4917 -15.785531,-0.6984 -6.07689,6.01692 -8.62202,16.41726 -13.02947,24.95683 -6.33072,12.26605 -4.24817,22.83456 -4.4315,36.81034 -0.0596,4.5358 3.35716,9.34934 5.60775,11.0045 8.80863,6.47682 16.6921,5.91458 26.195009,6.30504 3.762909,0.1551 24.837331,1.01221 27.391211,-0.11768 9.17585,-4.05968 14.97923,-11.66909 14.89453,-29.13329 z"
       id="path47"
       style="clip-rule:evenodd;display:inline;fill:#bbe9ab;fill-opacity:1;fill-rule:evenodd;stroke:none;stroke-width:0.2;stroke-dasharray:none;stroke-opacity:0.609571;image-rendering:optimizeQuality;shape-rendering:geometricPrecision;text-rendering:geometricPrecision"
       inkscape:label="#Ciąża" />
    <path
       class="fil0"
       d="m 411.64194,-7.0497702 c -2.49075,-12.0505358 -13.47019,-24.0848408 -20.9695,-25.1863278 -16.08663,-2.362585 -28.22647,-2.170963 -43.6467,8.11079 -3.82466,2.550149 -14.66392,12.968067 -16.02925,20.6870468 -2.41261,13.6389692 -2.34922,25.7675062 5.32961,34.8882562 9.16683,10.888181 29.49916,-1.969422 42.13683,7.860104 4.52385,3.518629 14.53086,3.844161 18.44077,-1.503668 2.81316,-3.847767 13.59259,-25.66155 14.16064,-31.1897292 0.16475,-1.601959 0.83116,-12.440092 0.5776,-13.666472 z"
       id="path48"
       style="clip-rule:evenodd;display:inline;fill:#bbe9ab;fill-opacity:1;fill-rule:evenodd;stroke:none;stroke-width:0.2;stroke-dasharray:none;stroke-opacity:0.609571;image-rendering:optimizeQuality;shape-rendering:geometricPrecision;text-rendering:geometricPrecision"
       inkscape:label="#Makrocząstki" />
    <path
       class="fil0"
       d="m 71.32156,421.00464 c -11.53709,-3.08037 -19.76675,-3.39463 -30.80329,3.99746 -4.53505,3.03755 -6.85067,3.19941 -11.30239,7.97869 -6.3247,6.78927 -10.93462,14.12095 -11.10867,26.98712 -0.11312,8.36508 -1.49292,14.54838 4.30663,19.22621 5.63453,4.54527 12.44367,2.41399 18.26728,0.50498 4.5968,-1.50637 16.71533,0.7489 22.1534,-0.14698 5.07851,-0.83638 16.949764,-5.55343 19.564565,-13.50326 3.248147,-9.87597 2.886938,-14.82702 2.124083,-25.33241 -0.998106,-13.74312 -5.091076,-17.54761 -13.201608,-19.71181 z"
       id="path49"
       style="clip-rule:evenodd;display:inline;fill:#bbe9ab;fill-opacity:1;fill-rule:evenodd;stroke:none;stroke-width:0.2;stroke-dasharray:none;stroke-opacity:0.609571;image-rendering:optimizeQuality;shape-rendering:geometricPrecision;text-rendering:geometricPrecision"
       inkscape:label="#Intensywna terapia" />
    <path
       class="fil0"
       d="m -404.85034,16.431349 c 1.31962,0.495963 2.65597,1.640283 4.54336,2.345903 10.69872,3.998359 29.21216,0.05005 38.11374,-10.8575212 6.80361,-8.336679 5.70146,-18.5014578 8.85269,-31.7666508 6.52948,-27.484438 10.04686,-45.325311 -0.49063,-67.414581 -6.73854,-14.125459 -18.49925,-29.362779 -28.02336,-37.090779 -8.45776,-6.86277 -13.83528,-1.63262 -21.50569,4.09891 -7.58865,5.6702 -14.42902,21.71865 -17.24211,35.008189 -4.87095,23.01266 -5.46699,30.563911 -2.71511,54.735771 1.98587,17.443903 5.1664,24.207028 11.04612,37.5515748 0.0263,0.05952 7.17028,13.2949512 7.42099,13.3891842 z"
       id="path50"
       style="clip-rule:evenodd;display:inline;fill:#bbe9ab;fill-opacity:1;fill-rule:evenodd;stroke:none;stroke-width:0.194021;stroke-dasharray:none;stroke-opacity:0.609571;image-rendering:optimizeQuality;shape-rendering:geometricPrecision;text-rendering:geometricPrecision"
       inkscape:label="#Algorytmy i roboty"
       sodipodi:nodetypes="sccccsccsss" />
    <path
       class="fil0"
       d="m -331.67782,-36.587042 c 1.08717,1.543345 2.00194,3.669672 3.55798,5.873549 8.82093,12.491041 30.30356,27.3234748 41.77235,25.2192418 8.76573,-1.608271 14.26774,-8.0016788 21.05557,-17.0024958 14.06473,-18.649543 16.19975,-54.398974 12.77783,-82.636373 -2.23256,-18.42275 10.43461,-49.6472 7.06023,-60.66252 -7.98265,-26.05877 -35.45802,-13.06185 -56.59692,17.30007 -11.21906,16.11427 -19.60664,25.10878 -24.05153,48.639949 -3.20771,16.9822 -10.22806,28.63281 -8.61437,45.284077 0.007,0.07439 2.83229,17.691433 3.03886,17.984502 z"
       id="path51"
       style="clip-rule:evenodd;display:inline;fill:#bbe9ab;fill-opacity:1;fill-rule:evenodd;stroke:none;stroke-width:0.2;stroke-dasharray:none;stroke-opacity:0.609571;image-rendering:optimizeQuality;shape-rendering:geometricPrecision;text-rendering:geometricPrecision"
       inkscape:label="#Budynki i transport" />
    <path
       class="fil0"
       d="m -222.30999,-17.647587 c 11.36796,3.997458 18.02956,-7.575602 27.48793,-18.482719 7.22909,-8.336228 15.8634,-22.809766 19.21155,-36.074055 6.93755,-27.48399 18.50225,-41.797019 7.30559,-63.885379 -7.15969,-14.12502 -16.63937,-22.82735 -26.75922,-30.5549 -8.98678,-6.86232 -22.33975,0.23536 -30.49018,5.96643 -8.06326,5.6702 -15.73962,21.4878 -18.32109,35.00819 -4.15172,21.74435 -4.8214,29.342489 -2.88503,54.735769 1.34566,17.648152 -0.54126,25.292286 5.70202,38.640892 5.72688,12.244412 10.14964,11.621754 18.74843,14.645772 z"
       id="path52"
       style="clip-rule:evenodd;display:inline;fill:#bbe9ab;fill-opacity:1;fill-rule:evenodd;stroke:none;stroke-width:0.2;stroke-dasharray:none;stroke-opacity:0.609571;image-rendering:optimizeQuality;shape-rendering:geometricPrecision;text-rendering:geometricPrecision"
       inkscape:label="#Rynek i rząd" />
    <path
       class="fil0"
       d="m -342.93404,-169.03202 c 2.34485,0.49596 4.71948,1.64073 8.0731,2.3459 19.01045,3.99836 45.7205,-7.4471 60.52596,-21.70512 10.6879,-10.29258 20.30638,-26.87621 29.09916,-34.00364 18.76837,-15.21343 35.08889,-31.42599 45.53771,-58.13808 7.98184,-20.40615 0.58635,-44.32236 -16.33691,-52.04946 -15.02814,-6.86232 -112.4351,7.07107 -126.06431,12.80214 -13.48467,5.66976 -23.82693,31.78218 -28.82511,45.07172 -8.65535,23.01221 -9.71438,30.56392 -4.82468,54.73578 3.52903,17.4439 9.1805,24.20703 19.62823,37.55157 0.0467,0.0595 12.74121,13.29495 13.18685,13.38919 z"
       id="path53"
       style="clip-rule:evenodd;display:inline;fill:#bbe9ab;fill-opacity:1;fill-rule:evenodd;stroke:none;stroke-width:0.2;stroke-dasharray:none;stroke-opacity:0.609571;image-rendering:optimizeQuality;shape-rendering:geometricPrecision;text-rendering:geometricPrecision"
       inkscape:label="#Maszyny" />
    <path
       class="fil0"
       d="m 2.10282,454.53892 c -3.44077,0.91528 -5.90339,0.81789 -9.63515,2.09296 -2.79895,0.95586 -5.05419,1.6466 -7.83129,2.89192 -3.56618,1.5988 -14.2355,5.40644 -16.51806,8.98729 -2.89759,4.54617 -2.47381,10.25019 -2.93721,16.21932 -0.69591,8.9661 5.86268,11.156 9.80646,12.20699 5.06458,1.34947 6.99822,2.1642 12.42755,2.1642 4.43915,0 5.81459,-0.3377 10.16057,-1.15739 2.09511997,-0.39497 14.8918,-7.81817 16.13281,-9.8922 4.15116,-6.93806 3.27984,-7.99852 3.27984,-17.66303 0,-10.00131 -5.09026,-13.10738 -10.18298,-15.12054 -0.21557,-0.0852 -4.65636,-0.74169 -4.70254,-0.72952 z"
       id="path54"
       style="clip-rule:evenodd;display:inline;fill:#bbe9ab;fill-opacity:1;fill-rule:evenodd;stroke:none;stroke-width:0.2;stroke-dasharray:none;stroke-opacity:0.609571;image-rendering:optimizeQuality;shape-rendering:geometricPrecision;text-rendering:geometricPrecision"
       inkscape:label="#Ból" />
  </g>
  <g
     inkscape:groupmode="layer"
     id="layer3"
     inkscape:label="L3"
     style="display:inline">
    <g
       inkscape:groupmode="layer"
       id="layer4"
       inkscape:label="L3-maszyny">
      <rect
         style="display:inline;fill:#000000"
         id="rect31"
         width="6.0274882"
         height="6.172729"
         x="-322.79126"
         y="-217.16087"
         inkscape:label="#Urządzenia mechaniczne" />
      <rect
         style="display:inline;fill:#000000"
         id="rect27"
         width="6.0274882"
         height="6.172729"
         x="-300.85992"
         y="-234.00879"
         inkscape:label="#Robotyka" />
      <rect
         style="display:inline;fill:#000000"
         id="rect23"
         width="6.0274882"
         height="6.172729"
         x="-226.20621"
         y="-298.49564"
         inkscape:label="#Chłodzenie i energia cieplna" />
      <rect
         style="display:inline;fill:#000000"
         id="rect18"
         width="6.0274882"
         height="6.172729"
         x="-312.04346"
         y="-186.36981"
         inkscape:label="#Energia odnawialna" />
      <rect
         style="display:inline;fill:#000000"
         id="rect24"
         width="6.0274882"
         height="6.172729"
         x="-255.54483"
         y="-281.21201"
         inkscape:label="#Hydrodynamika: wiry, turbulencja, symulacje" />
      <rect
         style="display:inline;fill:#000000"
         id="rect16"
         width="6.0274882"
         height="6.172729"
         x="-341.81781"
         y="-310.11487"
         inkscape:label="#Anteny mikrofalowe i detekcja fal elektromagnetycznych" />
      <rect
         style="display:inline;fill:#000000"
         id="rect19"
         width="6.0274882"
         height="6.172729"
         x="-234.92065"
         y="-322.31509"
         inkscape:label="#Metamateriały akustyczne i mechaniczne" />
      <rect
         style="display:inline;fill:#000000"
         id="rect17"
         width="6.0274882"
         height="6.172729"
         x="-352.42038"
         y="-209.46307"
         inkscape:label="#Sieć elektryczna, smart grid, ładowanie pojazdów elektrycznych" />
      <rect
         style="display:inline;fill:#000000"
         id="rect26"
         width="6.0274882"
         height="6.172729"
         x="-278.20239"
         y="-273.07852"
         inkscape:label="#Lotnictwo" />
      <rect
         style="display:inline;fill:#000000"
         id="rect25"
         width="6.0274882"
         height="6.172729"
         x="-232.74205"
         y="-248.6781"
         inkscape:label="#Aerodynamika, turbiny wiatrowe i lotnictwo" />
      <rect
         style="display:inline;fill:#000000"
         id="rect28"
         width="6.0274882"
         height="6.172729"
         x="-320.17694"
         y="-265.96173"
         inkscape:label="#Energetyka: systemy dystrybucji" />
      <rect
         style="display:inline;fill:#000000"
         id="rect29"
         width="6.0274882"
         height="6.172729"
         x="-284.30249"
         y="-255.94012"
         inkscape:label="#Komponenty dla robotyki: akcelerometry, MEMS" />
      <rect
         style="display:inline;fill:#000000"
         id="rect30"
         width="6.0274882"
         height="6.172729"
         x="-309.57437"
         y="-250.27574"
         inkscape:label="#Technologie satelitarne" />
    </g>
    <g
       inkscape:groupmode="layer"
       id="layer5"
       inkscape:label="L3-fizyka">
      <rect
         style="display:inline;fill:#000000"
         id="rect8"
         width="6.0274882"
         height="6.172729"
         x="-234.04152"
         y="-450.78696"
         inkscape:label="#Astrofizyka gwiazdowa i galaktyczna" />
      <rect
         style="display:inline;fill:#000000"
         id="rect9"
         width="6.0274882"
         height="6.172729"
         x="-274.40289"
         y="-434.35486"
         inkscape:label="#Kosmologia i astronomia obserwacyjna" />
      <rect
         style="display:inline;fill:#000000"
         id="rect10"
         width="6.0274882"
         height="6.172729"
         x="-303.36447"
         y="-420.49026"
         inkscape:label="#Fizyka cząstek" />
      <rect
         style="display:inline;fill:#000000"
         id="rect11"
         width="6.0274882"
         height="6.172729"
         x="-327.29373"
         y="-395.22589"
         inkscape:label="#Kosmologia relatywistyczna" />
      <rect
         style="display:inline;fill:#000000"
         id="rect1"
         width="6.0274882"
         height="6.172729"
         x="-137.18224"
         y="-414.52368"
         inkscape:label="#Metamateriały fotoniczne" />
      <rect
         style="display:inline;fill:#000000"
         id="rect2"
         width="6.0274882"
         height="6.172729"
         x="-167.90228"
         y="-412.17151"
         inkscape:label="#Obrazowanie, hologramy, wyświetlacze" />
      <rect
         style="display:inline;fill:#000000"
         id="rect4"
         width="6.0274882"
         height="6.172729"
         x="-99.38839"
         y="-443.48526"
         inkscape:label="#Lasery, sygnały wysokiej częstotliwości" />
      <rect
         style="display:inline;fill:#000000"
         id="rect5"
         width="6.0274882"
         height="6.172729"
         x="-201.38271"
         y="-454.89499"
         inkscape:label="#Wiatr słoneczny i magnetosfery" />
      <rect
         style="display:inline;fill:#000000"
         id="rect6"
         width="6.0274882"
         height="6.172729"
         x="-215.14459"
         y="-423.98209"
         inkscape:label="#Asteroidy i wietrzenie kosmiczne" />
      <rect
         style="display:inline;fill:#000000"
         id="rect12"
         width="6.0274882"
         height="6.172729"
         x="-307.36981"
         y="-396.04749"
         inkscape:label="#Podstawy fizyki kwantowej" />
      <rect
         style="display:inline;fill:#000000"
         id="rect13"
         width="6.0274882"
         height="6.172729"
         x="-97.745186"
         y="-470.39282"
         inkscape:label="#Energetyka jądrowa" />
      <rect
         style="display:inline;fill:#000000"
         id="rect14"
         width="6.0274882"
         height="6.172729"
         x="-117.46371"
         y="-456.63092"
         inkscape:label="#Wytwarzanie i manipulacja strumieniami cząstek" />
      <rect
         style="display:inline;fill:#000000"
         id="rect15"
         width="6.0274882"
         height="6.172729"
         x="-139.23625"
         y="-468.85229"
         inkscape:label="#Podstawy fizyki jądrowej" />
    </g>
    <g
       inkscape:groupmode="layer"
       id="layer6"
       inkscape:label="L3-Ziemia">
      <rect
         style="display:inline;fill:#000000"
         id="rect32"
         width="6.0274882"
         height="6.172729"
         x="-141.09517"
         y="-290.36215"
         inkscape:label="#Asfalt" />
    </g>
  </g>
</svg>
