<?xml version="1.0" encoding="UTF-8" standalone="no"?>
<!-- Creator: CorelDRAW 2021.5 -->

<svg
   xml:space="preserve"
   width="375.56058mm"
   height="223.5699mm"
   version="1.1"
   style="clip-rule:evenodd;fill-rule:evenodd;image-rendering:optimizeQuality;shape-rendering:geometricPrecision;text-rendering:geometricPrecision"
   viewBox="0 0 37556.058 22356.99"
   id="svg54"
   xmlns="http://www.w3.org/2000/svg"
   xmlns:svg="http://www.w3.org/2000/svg">
 <defs
   id="defs1"><style
     type="text/css"
     id="style1">
   <![CDATA[
    .fil0 {fill:#AE4A84;fill-opacity:0.101961}
   ]]>
  </style></defs>
 <g
   id="Warstwa_x0020_1"
   transform="translate(-28811.811,-40340.77)">
  <metadata
   id="CorelCorpID_0Corel-Layer" />
  <path
   class="fil0"
   d="m 34647.59,56384.15 c 145.16,136.22 603.35,165.08 770.33,46.32 91.03,-64.74 172.58,-100.7 217.7,-233.44 111.11,-326.88 49.21,-247.84 66.89,-565.41 28.15,-505.76 209.57,-724.58 -11.64,-1320.62 -101.22,-272.71 -227.4,-516.68 -387.67,-759.47 -305.57,-462.91 -350.01,-835.26 -797.32,-1248.23 -149.62,-138.13 -269.6,-304.08 -464.78,-400.12 -235.03,-115.66 -544.87,-280.52 -797.43,-332.19 -88.55,-18.12 -258.4,-97.99 -383.67,-119.66 -251.39,-43.49 -1016.84,-7.1 -1235.3,145.64 -261.98,183.17 -465.91,418.94 -567.04,724.91 -174.6,528.24 48.61,709.74 508.74,1020.07 601.47,405.64 1108.96,673.39 1573.36,1269.02 118.4,151.86 424.58,636.63 514.97,835.88 47.35,104.38 219.19,355.89 305.74,430.21 111.06,95.39 312.21,298.53 441.97,360.05 18.12,8.59 241.35,143.47 245.15,147.04 z"
   id="path1" />
  <path
   class="fil0"
   d="m 56563.03,51673.04 c -226.83,-47.86 -399.09,-184.09 -643.6,-223.51 -150.84,-24.32 -129.33,-25.38 -291.95,-35.24 -452.18,-27.41 -909.04,-115.65 -1293.76,183.32 -325.6,253.03 -143.41,245.22 -348.53,556.29 -52.49,79.61 -22.66,353.35 11.65,451.56 74.59,213.54 31.56,264.26 177.81,511.9 229.98,389.38 800.25,1083.19 1254.43,1225.22 257.55,80.54 311.88,140.4 608.57,169.09 249.78,24.15 289.89,22.32 532.49,-39.88 19.6,-5.02 282.7,-126.31 303.26,-140.2 213.63,-144.4 384.61,-228.82 598.86,-397.56 230.66,-181.66 330.38,-207.93 540.04,-447.03 127.59,-145.5 700.59,-543.21 754.7,-746.84 50.83,-191.25 129.68,-288.17 -17.9,-443.46 -35.07,-36.89 -2181.86,-622.77 -2186.07,-623.66 z"
   id="path2" />
  <path
   class="fil0"
   d="m 45613.2,49845.38 c -27.35,-339.78 -273.23,-667.87 -584.17,-801.75 -127.18,-54.76 -594.8,-29.32 -714.65,17.7 -360.77,141.56 -319.52,557.72 -498.55,895.06 -194.35,366.23 -351.54,681.64 -778.16,793.99 -618.56,162.89 -779.16,66.78 -1295.9,521.38 -286.23,251.81 -326.78,807.47 -217.72,1148.87 170.71,534.41 358.54,862.28 888.98,1055.49 249.55,90.89 809.66,14.15 961.29,-192.04 43.79,-59.55 280.45,-356.19 329.07,-389.76 225.19,-155.49 642.95,-123.45 882.91,25.13 328.71,203.55 582.44,287.92 989.12,221.64 246.83,-40.23 496.65,-281.61 531.66,-529.36 81.6,-577.35 -48.43,-948.91 -248.66,-1482.82 -59.25,-157.99 -295.96,-777.84 -298.81,-901.95 -4.69,-203.93 -33.16,-163.68 54.73,-369.76 2.68,-6.27 -0.69,-6.18 -1.14,-11.82 z"
   id="path3" />
  <path
   class="fil0"
   d="m 39052.49,55930.06 c -65.59,-172.43 -376.76,-513.81 -556.27,-625.16 -527.12,-326.97 -1244.79,-493.48 -1860.19,-399.73 -264.64,40.31 -662.36,262.26 -761.35,518.4 -73.33,189.74 -153.54,405.16 -108.85,614.06 113.63,531.14 981.92,688.99 1430.61,719.65 337.62,23.07 658.49,31.85 997.24,18.5 110.65,-4.36 629.65,-118.73 708.61,-161.28 218.43,-117.7 274.15,-470.93 152.9,-662.11 -2.78,-4.38 -1.3,-18.65 -2.7,-22.33 z"
   id="path4" />
  <path
   class="fil0"
   d="m 44818.37,53128.23 c -110.74,-81.83 -459.23,-255.47 -601.88,-264.97 -205.89,-13.72 -329.76,-12.42 -507.37,109.79 -165.03,113.55 -241.86,433.29 -229.67,621.39 14.38,221.85 360.08,496.54 574.57,494.47 187.97,-1.81 158.23,-9.35 325.75,-43.67 310.3,-63.57 264.5,-102.97 408.19,-338.45 85.51,-140.14 143.98,-364.05 86.68,-522.69 -3.23,-8.92 -52.44,-53.04 -56.27,-55.87 z"
   id="path5" />
  <path
   class="fil0"
   d="m 52752.52,51524.56 c -110.74,-81.83 -459.23,-255.47 -601.88,-264.97 -205.89,-13.72 -329.76,-12.42 -507.37,109.79 -165.03,113.55 -241.86,433.29 -229.67,621.39 14.38,221.85 360.08,496.54 574.57,494.47 187.97,-1.81 158.23,-9.35 325.75,-43.67 310.3,-63.57 264.5,-102.97 408.19,-338.45 85.51,-140.14 143.98,-364.05 86.68,-522.69 -3.23,-8.92 -52.44,-53.04 -56.27,-55.87 z"
   id="path6" />
  <path
   class="fil0"
   d="m 40653.3,57171.59 c 89.63,-26.12 525.03,-586.74 867.52,-699 107.93,-35.37 292.8,-70.59 368.44,-140.08 120.29,-110.51 58.54,-273.39 -78.47,-354.37 -515.38,-304.63 -1087.65,-246.19 -1633.4,-52.77 -383.15,135.78 -580.77,257.06 -835.32,573.08 -200.12,248.44 -149.03,533.56 130.83,702.52 338.2,204.18 761.38,273.7 1098.05,33.37 8.86,-6.32 77.55,-61.35 82.35,-62.75 z"
   id="path7" />
  <path
   class="fil0"
   d="m 45665.47,55094.32 c -235.63,-74.24 -631.36,-101.86 -828.65,78.22 -160.06,146.09 -147.24,295.99 -145.48,505.17 3.31,393.89 287.39,793.92 710.8,801.78 181.85,3.37 532.43,18.78 690.9,-49.8 376.58,-162.96 343.66,-483.3 260.65,-820.65 -72.56,-294.2 -388.12,-420.15 -688.22,-514.72 z"
   id="path8" />
  <path
   class="fil0"
   d="m 39443.03,50636.43 c -353.79,-111.49 -948,-152.94 -1244.23,117.45 -240.33,219.36 -221.07,444.43 -218.44,758.52 3.24,386.67 -151.08,905.12 153.21,1132.53 161.15,120.4 693.99,67.28 914.06,71.35 273.04,5.04 786.3,-10.2 1037.4,-74.78 2551.7,-656.49 628.03,-1604.89 -642,-2005.07 z"
   id="path9" />
  <path
   class="fil0"
   d="m 47705.96,53758.43 c -77.84,-112.07 -940.07,-533.59 -1121.01,-589.29 -328.76,-101.21 -1074.73,-144.41 -1224.69,257.32 -66.23,177.43 -126.22,796.18 -41.8,978.09 61.08,131.61 49.1,176.09 155.95,323.24 312.67,430.6 1112.72,519.15 1557.84,271.84 379.3,-210.74 762.45,-658.95 718.73,-1120.45 -2.74,-28.9 -39.05,-112.15 -45.02,-120.75 z"
   id="path10" />
  <path
   class="fil0"
   d="m 38086.72,54611.33 c 164.95,21.15 1197.35,843.49 1820.79,868.81 271.66,11.04 727.88,-7.58 846.72,-302.48 108.32,-268.77 156.02,-546.14 120.79,-836.61 -42.5,-350.38 -390.42,-711.27 -667.9,-905.39 -578.06,-404.4 -1091.83,-426.23 -1773.48,-563.97 -288.02,-58.21 -561.53,-100.24 -851.94,-164.22 -293.71,-64.71 -1142.15,-130.12 -1368.4,128.66 -442.33,505.93 274.52,994.86 673.73,1203.98 197.25,103.33 397.15,186.6 600.05,289.9 174.12,88.66 308.19,145.63 481.92,244.64 46.87,26.71 88.7,20.12 114.45,43.84 z"
   id="path11" />
  <path
   class="fil0"
   d="m 40997.97,58786.95 c -209.28,-97.83 -448.77,-65.44 -674.43,-65.44 -534.3,0 -630.57,40.87 -945.75,492.62 -85.41,122.42 -131.52,303.14 -46.23,437.47 49.57,78.07 573.04,60.12 678.61,41.72 219.08,-38.18 387.27,-70.66 604.16,-134.64 188.64,-55.65 300.21,-47.31 482.48,-60.94 114.68,-8.57 232.66,-64.86 297.11,-159.51 155.78,-228.63 -191.64,-455.77 -395.95,-551.28 z"
   id="path12" />
  <path
   class="fil0"
   d="m 44054.11,58023.35 c 0,-477.94 -401.36,-799.84 -674.52,-1188.63 -183.96,-261.83 -439.28,-517.84 -767.01,-570.29 -266.69,-42.69 -1165.15,-567 -1433.72,-561.35 -1458.2,30.73 -1454.02,-76.7 -1947.19,765.87 -750.66,1282.51 2063.18,2178.6 2172.77,2440.45 307.78,735.4 1674.05,528.86 2224.74,259.7 156.15,-76.32 352.69,-300.75 392.02,-478.4 48.2,-217.67 32.91,-444.18 32.91,-667.35 z"
   id="path13" />
  <path
   class="fil0"
   d="m 44869.24,59539.5 c 6.95,-2.49 1618.83,-40.95 1670.27,-36.57 321.73,27.41 618.07,-318.7 932.77,-312.74 581.58,11.01 1391.63,34.49 1416.44,-733.53 8.44,-261.04 -28.93,-383.19 -212.53,-584.2 -513.63,-562.35 -1718.77,-1272.74 -2509.62,-1255.03 -203.03,4.54 -787.46,83.69 -967.86,155.49 -255.66,101.75 -755.04,362 -878.13,607.83 -161.26,322.07 -198.51,411.32 -111.95,774.44 59.11,247.93 155.81,371.85 267.53,583.75 146.81,278.48 16.34,849.03 393.08,800.56 z"
   id="path14" />
  <path
   class="fil0"
   d="m 51721.63,52963.44 c -380.14,-69.35 -539.8,-108.64 -932.43,-92.86 -268.76,10.79 -537.57,219.22 -683.19,435.27 -83.31,123.62 -452.99,758.69 -555.27,898.47 -179.21,244.89 -1053,955.11 -1319.81,1098.47 -212.72,114.3 -674.93,650.31 73.54,751.66 184.09,24.92 1582.4,-372.45 1777.96,-557.01 239.45,-225.99 690.58,-526.49 1018.22,-575.52 304.41,-45.56 1019.74,-253.37 1266.94,-362.4 445.28,-196.39 297.84,-667.17 195.23,-1024.14 -117.39,-408.28 -431.63,-497.22 -841.19,-571.94 z"
   id="path15" />
  <path
   class="fil0"
   d="m 32130.77,46515.36 c -405.11,-115.12 -759.89,-21.25 -1127.02,154.51 -884.91,423.64 -1370.02,1107.58 -1873.44,1916.63 -297.44,478.02 -451.34,1443.29 -170.75,1959.12 327.38,601.84 537.63,663.26 1158.99,880.29 123.29,43.07 384.48,95.98 505.81,41.36 323.46,-145.63 536.94,-291.96 661.85,-638.87 431.27,-1197.79 2193.47,-2631.28 1858.43,-3240.14 -196.14,-356.45 -391.41,-896 -1013.87,-1072.9 z"
   id="path16" />
  <path
   class="fil0"
   d="m 37395.15,41967.65 c -22.86,-55.45 -206.98,-286.6 -265.42,-314.15 -122.85,-57.93 -595.99,12.03 -723.8,58.74 -83.3,30.45 -105.22,32.66 -189.09,73.5 -227.39,110.75 -398.88,164.97 -565.61,375.35 -127.45,160.81 20.41,381.17 190.73,428.96 126.14,35.4 225.44,7.62 355.05,23.66 164.07,20.31 446.59,-20.98 603.17,-72.91 107.65,-35.71 430.81,-137.44 486.52,-245.82 26,-50.59 43.38,-86.4 67.79,-137.01 21.27,-44.09 59.02,-145.79 40.66,-190.32 z"
   id="path17" />
  <path
   class="fil0"
   d="m 44940.69,41462.41 c -46.69,-67.13 -353.64,-427.66 -478.73,-437.64 -288.87,-23.03 -1330.42,140.53 -1556.16,138.74 -176.39,-1.39 -438.9,3.59 -613.1,51.07 -472.34,128.73 -619.28,196.51 -967.09,446.29 -265.85,190.93 37.94,458.88 390.25,519.7 260.92,45.05 562.87,87.47 831.22,109.31 820.83,66.81 1213.11,-265.54 1428.55,-316.64 342.51,-81.27 820.91,-149.45 872.06,-209.82 44.54,-52.6 130.5,-247.08 93,-301.01 z"
   id="path18" />
  <path
   class="fil0"
   d="m 49887.38,61766.81 c -229.79,-145.13 -560.91,-110.07 -809.06,-40.7 -263.59,73.68 -501.63,136.76 -758.17,235.85 -77.74,30.03 -167.16,25.63 -255.24,68.95 -59.55,29.28 -412.41,76.77 -500.72,76.77 -203.6,0 -253.15,-3.52 -450.27,-29.26 -100.41,-13.1 -492.22,-21.93 -534.62,84.43 -25.26,63.34 -49.46,13.19 -55.34,148.73 -4.79,110.49 237.23,244.44 324.03,279.38 352.71,141.94 597.28,101.46 978.05,101.46 530.9,0 589.91,-33.7 1095.39,-176.2 295.66,-83.35 567.88,-230.11 840.65,-368.36 131.45,-66.63 151.61,-225.95 135.52,-356.8 -0.45,-3.67 -4.83,-20.84 -10.22,-24.25 z"
   id="path19" />
  <path
   class="fil0"
   d="m 40866.29,40750.32 c 216.05,0 758.28,-55.57 672.08,319.94 -37.37,162.76 -315.1,379.12 -438.13,506.13 -264.84,273.39 -671.18,364.99 -1039.45,364.99 -239.59,0 -413.49,5.25 -655.5,29.23 -228.01,22.59 -505.4,18.13 -735.95,18.13 -328.88,0 -674.52,8.16 -1001.62,2.57 -167.63,-2.86 -301,-102.07 -384.68,-244.71 -148.82,-253.68 165.7,-334.15 340.03,-410.26 82.68,-36.1 419.85,-144.66 515.32,-168.66 455.45,-114.45 758.27,-221.77 1245.59,-263.38 250.57,-21.39 549.86,-46.97 795.55,-85.04 135.2,-20.95 257.53,-52.94 396.38,-54.53 99.49,-1.14 180.54,-14.41 290.38,-14.41 z"
   id="path20" />
  <path
   class="fil0"
   d="m 48404.94,44052.36 c 236.95,0 831.62,-55.57 737.08,319.94 -40.98,162.76 -345.57,379.13 -480.5,506.13 -290.45,273.39 -702.18,396.29 -1106.07,396.29 -262.76,0 -598.66,432.75 -865,424.95 -565.64,-16.58 -931.11,-152.52 -1503.5,-142.85 -1550.68,26.22 -1855.37,-68.46 -1768.15,-685.55 45.65,-322.99 33.17,-389.19 231.16,-500.06 366.21,-205.05 1223.31,-285.01 1291.16,-300.55 499.5,-114.41 823.79,211.17 1358.23,169.58 274.8,-21.38 1082.96,-80.88 1352.41,-118.94 148.27,-20.95 282.44,-52.94 434.72,-54.53 109.11,-1.14 198,-14.41 318.46,-14.41 z"
   id="path21" />
  <path
   class="fil0"
   d="m 48788.35,44105.5 c 100.4,0 335.52,65.06 304.55,279.74 -23.37,162 -449.76,401.46 -575.57,461.14 -406.65,192.88 -874.97,-2.02 -1201.18,-121.84 -1205.2,-442.66 707.45,-574.37 1145.27,-590.3 96.15,-3.5 215.96,-28.74 326.93,-28.74 z"
   id="path22" />
  <path
   class="fil0"
   d="m 44237.03,40935.37 c -123.06,-19.87 -476.53,159.71 -604.12,156.46 -120.21,-3.06 -262.11,-29.24 -380.55,-48.37 -168.96,-27.31 -347.64,-50.27 -514.92,-81.35 -85.73,-15.92 -140.69,-96.62 -164.2,-203.68 -41.81,-190.39 130.76,-220.76 230.71,-259.7 463.47,-180.71 561.48,18.83 950.6,35.93 190.79,8.38 473.91,-216.78 644.43,-191.98 996.95,145.04 448.37,691.28 -161.95,592.69 z"
   id="path23" />
  <path
   class="fil0"
   d="m 52676.27,43481.72 c -565.57,-108.66 -943.65,-138.97 -1043.11,517.26 -33.54,221.15 6.98,345.01 137.04,529.23 121.14,171.6 359.96,331.23 563.53,371.76 376.66,74.99 545.56,78.56 932.71,73.39 192.36,-2.56 495.64,-124.23 601.94,-302.15 77,-128.86 118.43,-319.44 83.34,-467.21 -76.17,-320.92 -957.89,-661.25 -1275.45,-722.28 z"
   id="path24" />
  <path
   class="fil0"
   d="m 51918.84,46114.87 c -1100.18,-261.47 -1784.18,-433.33 -2072.41,275.44 -97.17,238.85 -97.25,358.61 133.39,596.68 214.84,221.76 446.92,211.45 842.69,307.14 502.54,121.49 571.59,439.52 966.36,494.13 180.47,24.96 902.25,67.12 1142.02,95.39 379.71,44.76 994.93,-16.12 1229.54,-188.64 169.94,-124.94 278.39,-327.67 229.91,-501.51 -105.19,-377.51 -1853.79,-931.82 -2471.5,-1078.63 z"
   id="path25" />
  <path
   class="fil0"
   d="m 51696.69,49930.48 c -221.85,477.36 -624.3,1086.58 -232.47,1179.39 486.27,115.19 1021.37,141.86 1451.23,98.18 349.91,-35.58 630.11,-117.81 757.47,-236.93 338.1,-316.2 669.63,-529.47 -58.02,-854.55 -617.52,-275.87 -1459.56,-1168.81 -1918.21,-186.09 z"
   id="path26" />
  <path
   class="fil0"
   d="m 46160.77,46587.45 c -786.7,-113.38 -1312.61,-145.01 -1450.96,539.74 -46.66,230.77 9.72,360.01 190.62,552.23 168.51,179.05 338.96,410.86 622.13,453.14 523.92,78.23 1238.9,713.31 1777.43,707.95 267.54,-2.66 574.65,-599.27 649.46,-873.6 45.23,-165.83 34.29,-471.59 -14.52,-625.79 -105.96,-334.86 -1332.43,-689.98 -1774.16,-753.67 z"
   id="path27" />
  <path
   class="fil0"
   d="m 50632.4,47336.85 c 520.39,391.41 326.97,734.98 16.69,1128.43 -204.48,259.3 -378.3,611.56 -721.03,760.6 -727.59,316.38 -1532.9,230.2 -1954.02,-76.24 -216.32,-157.39 -120.2,-821.52 -21.91,-1088.35 59.39,-161.3 245.76,-403.95 374.99,-501.19 143.17,-107.77 617.74,130.19 1180.28,90.06 540.1,-38.52 747.65,-416.49 1125,-313.31 z"
   id="path28" />
  <path
   class="fil0"
   d="m 42138.7,45593.31 c -1295.3,-108.66 -2350.95,-87.22 -2578.73,569.01 -76.82,221.15 15.98,345.01 313.85,529.23 277.44,171.59 831.34,385.31 1295.85,442.2 708.74,86.8 1109.03,348.43 1992.86,277.13 316.95,-25.57 943.58,-418.24 1273.84,-544.84 203.92,-78.16 817.64,-347.48 737.27,-495.25 264.71,-332.48 3.53,-576.66 -739.36,-734.87 -421.04,-89.67 -2032.48,-20.53 -2295.58,-42.61 z"
   id="path29" />
  <path
   class="fil0"
   d="m 54990.21,41822.92 c -206.78,71.93 -430.92,108.74 -619.65,218.9 -938.76,547.97 -376.75,1257.6 107.79,1812.79 328.97,376.92 733.79,550.2 1208.16,806.74 316.59,171.22 898.69,327.85 1259.68,391.02 366.48,64.11 717.18,-14.84 1084,52.87 1062.92,196.13 1456.06,39.62 1306.27,-890.39 -109.36,-678.96 -557.26,-882.03 -1112.87,-1281.08 -649.47,-466.45 -1302.15,-760.58 -2095.48,-1070.44 -418.96,-163.64 -697.65,-193.54 -1137.9,-40.41 z"
   id="path30" />
  <path
   class="fil0"
   d="m 58178.48,46563.24 c 333.84,-81.09 679.65,-217.61 1011.62,-302.23 254.15,-64.77 868.68,-389.2 567.54,-715.25 -98.03,-106.13 -133.58,-172.05 -292.05,-218.83 -419.86,-123.94 -1047.91,-134.44 -1491.75,-79.3 -502.53,62.41 -895.17,87.22 -1311.86,407.45 -223.08,171.44 -293.62,347.72 -295.77,622.29 -2.91,372.98 185.36,515.14 550.3,509.88 95.01,-1.37 718.01,-108.44 837.34,-140.76 146.74,-39.74 285.43,-49.42 424.63,-83.25 z"
   id="path31" />
  <path
   class="fil0"
   d="m 61388.01,50045.15 c 192.51,34.4 788.27,18.33 1006.24,-50.6 206.71,-65.36 407.81,-46.97 579.5,-172.43 178.97,-130.78 363.08,-265.34 512.97,-428.22 120.08,-130.48 328.93,-262.29 436.76,-444.52 164.78,-278.49 273.34,-415.24 -253.5,-460.21 -278.02,-23.72 -807.52,-0.76 -1102.53,-0.76 -349.76,0 -982.86,-59.5 -1281.71,119.67 -274.4,164.5 -571.06,405.44 -551.21,759.06 11.05,196.86 451.9,615 624.49,664.63 4.59,1.32 23.24,12.35 28.99,13.38 z"
   id="path32" />
  <path
   class="fil0"
   d="m 60786.19,46021.21 c -314.68,-58.13 -1213.08,166.95 -1550.79,242.39 -251.7,56.22 -730.08,196.46 -919.45,373.11 -93.57,87.28 -573.41,657.79 -429.09,792.1 175.52,163.34 666.19,474.82 898.49,474.82 284.31,0 1713.89,-388.24 1952.92,-537.25 399.14,-248.82 1141.69,-142.83 1304.58,-728.79 119.36,-429.38 -707.23,-542.05 -989.94,-580.92 -59.88,-8.23 -207.13,-14.96 -257.34,-31.22 z"
   id="path33" />
  <path
   class="fil0"
   d="m 56612.16,50449.34 c 462.29,-123.15 1782.49,-635.46 2210.78,-917.14 294.46,-193.65 436.15,-298.02 418.35,-669.87 -6.85,-143.13 -681,-796.33 -809.39,-924.69 -152.17,-152.14 -750.42,-511.6 -953.95,-535.79 -437.78,-52.01 -699.16,50.61 -1101.03,82.55 -185.55,14.75 -1062.72,361.02 -1124.08,563.5 -60.06,198.19 -485.01,436.15 -474.75,935.93 14.59,710.61 -309.18,622.78 373.02,1397.11 87.97,99.86 158.78,189.94 286.49,198.66 281.89,73.41 896.92,-56.3 1174.56,-130.26 z"
   id="path34" />
  <path
   class="fil0"
   d="m 45738.6,43087.84 c -108.97,26.12 -485.63,-7.84 -677.49,13.33 -235.86,26.02 -416.69,28.29 -655.42,77.74 -295.35,61.18 -562.47,174.56 -759.71,410.71 -62.52,74.85 -73.86,407.01 -5.89,499.07 166.95,226.12 656.33,0.54 873.47,-63.64 651.72,-192.66 498.67,-43.73 1191.79,-23.42 181.85,5.32 728.6,-92.96 930.52,-72.08 177.46,18.34 759.15,130.12 867.58,-38.34 157.1,-244.08 -271.93,-455.18 -434.08,-552.57 -155.46,-93.37 -1092.84,-291.27 -1330.77,-250.8 z"
   id="path35" />
  <path
   class="fil0"
   d="m 52336.2,41082.1 c -468,13.61 -994.74,201.04 -1468.94,296.46 -377.91,76.05 -717.49,40.69 -1004.03,197.04 -132.43,72.25 -538.27,295.47 -458.76,415.11 315.85,475.23 1139.64,369.07 1910.59,366.55 197.94,-0.65 765.54,-26.49 967.81,-43.16 509.63,-42 1094.88,-19.62 1568.32,-141.47 497.71,-128.1 643.91,-164.6 937.1,-442.76 127.9,-121.34 -382.2,-246.16 -857.37,-325.88 -597.41,-100.22 -1256.81,-331.72 -1594.72,-321.89 z"
   id="path36" />
  <path
   class="fil0"
   d="m 49531.25,40440.93 c -119.6,25.05 -886.02,155.39 -1134.31,263.33 -206.81,89.9 -362.87,109.42 -548.7,275.69 -259.35,232.05 -86.65,440.8 133.77,617.21 426.07,341 1002.85,107.14 1455.12,-42.08 504.62,-166.49 495.03,-122.05 982.11,-140.64 237.99,-9.09 574.77,-92.46 541.44,-399.12 -30.25,-278.28 -385.03,-463.51 -627.02,-514.55 -127.06,-26.8 -190.43,-36.1 -316.43,-40.61 -188.04,-6.74 -288.19,-58.7 -485.98,-19.23 z"
   id="path37" />
  <path
   class="fil0"
   d="m 60149.42,54497.43 c 284.01,-15.09 1100.76,-159.91 933.1,-602.39 -78.48,-207.11 -939.4,-289.81 -1272.28,-583.46 -238.86,-210.72 -386.24,-296.41 -628.23,-541.12 -178.78,-180.79 -530.67,15.16 -644.72,205.18 -175.28,291.99 -963.66,1127.36 -1253.35,1340.45 -377.64,277.79 127.26,660.91 433.31,672.56 305.46,11.63 554.86,66.48 886.42,-2.67 335.05,-69.89 668.9,-87.01 983.12,-278.7 2.38,-1.45 478.61,-205.39 562.63,-209.85 z"
   id="path38" />
  <path
   class="fil0"
   d="m 62903.41,53797.08 c -1169.89,6.27 -892.54,23.43 -1885.02,567.97 -401.65,220.37 -2329.83,216.65 -1278.01,1322.45 515.49,541.94 254.76,873.1 395.83,1439.82 97.78,392.82 250.67,912.18 686.03,1074.33 229.88,85.62 1099.11,-393.67 1289.53,-595.26 604.27,-639.69 971.56,-1449.03 1441.93,-2187.7 745.28,-1170.4 803.5,-1629.4 -650.29,-1621.61 z"
   id="path39" />
  <path
   class="fil0"
   d="m 56399.41,59963.9 c -77.98,-82.97 -93.25,-111.57 -209.42,-165.1 -258.56,-119.16 -667.9,-108.58 -950.87,-108.58 -267.13,0 -551.21,-16.21 -813.87,-5.94 -208.5,8.15 -551.88,249.43 -860.95,283.2 -223.15,24.39 -544.06,-6.64 -736.24,114.04 -403.73,253.49 -564.46,550.68 -564.46,988.26 0,225.59 33.52,286.91 204.61,440 71.7,64.15 348.67,145.19 453.61,153.7 441.82,35.81 670.83,-178.44 1088.19,-254.46 267.1,-48.64 537.86,-64.09 807.36,-89.03 244.09,-22.58 1214.17,-222.5 1354.54,-408.15 148.55,-196.46 777.73,-362.56 227.5,-947.94 z"
   id="path40" />
  <path
   class="fil0"
   d="m 60890.01,58459.26 c -152.63,-197.99 -315.24,-388.4 -565.98,-388.4 -631.65,0 -729.96,297.93 -1202.59,456.07 -326.22,109.16 -1616.2,-70.8 -1945.47,274.2 -392.19,410.94 -615.7,1667.63 150.25,1667.63 257.44,0 968.37,-226.04 1233.67,-314.41 356.23,-118.66 669.45,-213.58 1015.3,-387.41 273.23,-137.32 1188.28,-558.49 1258.11,-839.46 17.62,-70.88 97.4,-415.45 56.71,-468.22 z"
   id="path41" />
  <path
   class="fil0"
   d="m 59570.53,52060.47 c 207.3,-139.07 451.03,-417.68 298.62,-693.81 -195.83,-354.85 -897.56,-507.6 -1262.18,-599.2 -365.42,-91.79 -1599.02,-242.37 -2027.35,-242.37 -270.76,0 -984.46,-17.04 -916.25,425.25 43.37,281.23 554.59,538.46 813.01,629.91 205.08,72.58 487.59,101.38 715.15,187.31 111.08,41.94 246.06,76.33 368.79,121.66 358.62,132.49 839.99,252.13 1216.16,322.23 314.58,58.65 530.58,25.77 794.05,-150.98 z"
   id="path42" />
  <path
   class="fil0"
   d="m 61985.4,51977.04 c -269.7,-72.09 -491.51,-163.85 -823.31,-118.55 -373,50.92 -1048.96,-100.59 -1355.9,104.59 -98.77,66.03 -193.99,83.64 -299.68,152.75 -122.11,79.84 -211.49,156.74 -262.75,297.61 -81.45,223.81 70.84,469.6 256.47,598.15 452.95,313.66 638.61,392.35 1170.33,522.8 260.63,63.93 723.29,80.14 965.21,-24.17 191.39,-82.53 200.64,-83.65 358.53,-217.41 277.88,-235.42 308.25,-257.03 424.87,-602.18 154.3,-456.61 -75.58,-617.86 -433.77,-713.59 z"
   id="path43" />
  <path
   class="fil0"
   d="m 63665.22,51381.68 c 459.34,55.05 1623.1,7.1 2060.32,-149.14 659.78,-235.78 810.02,-960.16 456.53,-1516.82 -184.73,-290.91 -847.71,-713.44 -1173.97,-906.1 -464.23,-274.15 -774.84,-129.11 -1102.12,224.69 -256.86,277.67 -325.41,313.65 -561.13,644.03 -328.61,460.55 -603.79,773.89 -167.74,1339.58 93.78,121.67 487.39,363.67 488.11,363.76 z"
   id="path44" />
  <path
   class="fil0"
   d="m 46242.02,61362.47 c -447.79,-296.08 -466.84,-341.18 -970.35,-515.76 -278.84,-96.68 -582.2,-127.34 -871.42,-59.73 -108.2,25.29 -306,214.49 -307.06,331.64 -1.9,211.29 32.73,234.42 129.33,422.14 176.85,343.67 708.61,666.92 1076.44,785.96 275.2,89.07 368.27,141.95 675.05,141.95 268.36,0 332.82,14.82 534.4,-167.67 194.65,-176.23 148.44,-265.97 152.28,-506.97 3.11,-194.73 -269.02,-332.63 -418.67,-431.56 z"
   id="path45" />
  <path
   class="fil0"
   d="m 46978.76,59502.06 c -2.02,-0.51 -1595.11,2.89 -1665.08,10.42 -228.18,24.57 -578.75,76.94 -761.76,220.5 -120.85,94.8 -57.29,23.41 -138.12,143.86 -50.88,75.82 -70.98,104.11 -58.09,199.84 18.88,140.1 214.22,230.99 341.6,245.48 130.09,14.79 179.97,23.74 317.81,23.74 532.82,0 1087.42,40.2 1606.95,-86.27 145.11,-35.32 540.51,-132.88 629.81,-259.35 89.35,-126.54 138.74,-172.74 103.84,-331.67 -11.23,-51.15 -299.47,-146.99 -376.96,-166.55 z"
   id="path46" />
  <path
   class="fil0"
   d="m 52662.46,59341.29 c -1.52,-189.46 -14.86,-285.23 -162.19,-419.39 -128.33,-116.86 -495.45,-225.2 -676.41,-329.84 -116.66,-67.46 -543.27,-320.08 -656.19,-340.37 -191.21,-34.36 -363.6,-143.98 -577.74,-15.49 -222.41,133.45 -315.56,364.12 -476.87,553.52 -231.7,272.05 -155.48,506.45 -162.19,816.42 -2.18,100.6 122.87,207.36 205.24,244.07 322.39,143.65 610.92,131.18 958.72,139.84 137.72,3.44 909.03,22.45 1002.5,-2.61 335.83,-90.04 548.23,-258.81 545.13,-646.15 z"
   id="path47" />
  <path
   class="fil0"
   d="m 63015.06,50867.44 c -91.16,-267.27 -493,-534.18 -767.47,-558.61 -588.76,-52.4 -1033.07,-48.15 -1597.44,179.89 -139.98,56.56 -536.69,287.62 -586.66,458.82 -88.3,302.5 -85.98,571.5 195.06,773.79 335.5,241.49 1079.65,-43.68 1542.18,174.33 165.57,78.04 531.82,85.26 674.92,-33.35 102.96,-85.34 497.48,-569.15 518.27,-691.76 6.03,-35.53 30.42,-275.91 21.14,-303.11 z"
   id="path48" />
  <path
   class="fil0"
   d="m 50559.56,60361.3 c -422.25,-68.32 -723.45,-75.29 -1127.38,88.66 -165.98,67.37 -250.73,70.96 -413.66,176.96 -231.48,150.58 -400.2,313.19 -406.57,598.55 -4.14,185.53 -54.64,322.67 157.62,426.42 206.22,100.81 455.43,53.54 668.57,11.2 168.24,-33.41 611.77,16.61 810.8,-3.26 185.87,-18.55 620.35,-123.17 716.05,-299.49 118.88,-219.04 105.66,-328.85 77.74,-561.85 -36.53,-304.81 -186.33,-389.19 -483.17,-437.19 z"
   id="path49" />
  <path
   class="fil0"
   d="m 33178.03,51388.23 c 51.32,11 103.29,36.38 176.69,52.03 416.07,88.68 1263.86,1.11 1610.04,-240.81 264.59,-184.9 373.5,-405.79 496.05,-700 253.93,-609.58 111.14,-1009.83 -298.66,-1499.75 -262.06,-313.29 -719.43,-651.24 -1089.82,-822.64 -328.92,-152.21 -538.05,-36.21 -836.35,90.91 -295.12,125.76 -561.14,481.7 -670.54,776.45 -189.43,510.4 -212.61,677.88 -105.59,1213.99 77.23,386.89 200.92,536.89 429.58,832.86 1.02,1.32 278.85,294.87 288.6,296.96 z"
   id="path50" />
  <path
   class="fil0"
   d="m 35810.05,50212.33 c 39.79,34.23 73.27,81.39 130.22,130.27 322.84,277.04 1109.09,606.01 1528.84,559.34 320.82,-35.67 522.19,-177.47 770.62,-377.1 514.76,-413.63 592.9,-1206.52 467.66,-1832.8 -81.71,-408.6 381.9,-1101.13 258.4,-1345.44 -292.16,-577.96 -1297.74,-289.7 -2071.41,383.7 -410.61,357.4 -717.59,556.89 -880.27,1078.79 -117.4,376.65 -374.34,635.05 -315.28,1004.36 0.27,1.65 103.66,392.38 111.22,398.88 z"
   id="path51" />
  <path
   class="fil0"
   d="m 39812.84,50632.39 c 416.06,88.66 659.87,-168.02 1006.04,-409.93 264.58,-184.89 580.59,-505.9 703.13,-800.09 253.91,-609.57 677.17,-927.02 267.38,-1416.92 -262.04,-313.28 -608.99,-506.29 -979.37,-677.68 -328.91,-152.2 -817.62,5.22 -1115.92,132.33 -295.11,125.76 -576.06,476.58 -670.54,776.45 -151.95,482.27 -176.46,650.79 -105.59,1213.99 49.25,391.42 -19.81,560.96 208.69,857.02 209.6,271.57 371.47,257.76 686.18,324.83 z"
   id="path52" />
  <path
   class="fil0"
   d="m 35398.08,47274.82 c 85.82,11 172.73,36.39 295.47,52.03 695.77,88.68 1673.34,-165.17 2215.21,-481.4 391.17,-228.28 743.2,-596.09 1065.01,-754.17 686.91,-337.42 1284.23,-697 1666.65,-1289.45 292.13,-452.59 21.46,-983.03 -597.92,-1154.41 -550.02,-152.2 -4115.05,156.83 -4613.87,283.94 -493.53,125.75 -872.05,704.9 -1054.98,999.65 -316.78,510.39 -355.54,677.88 -176.58,1213.99 129.16,386.89 336,536.89 718.38,832.86 1.71,1.32 466.32,294.87 482.63,296.96 z"
   id="path53" />
  <path
   class="fil0"
   d="m 48026.2,61105.06 c -125.93,20.3 -216.06,18.14 -352.64,46.42 -102.44,21.2 -184.98,36.52 -286.62,64.14 -130.52,35.46 -521.01,119.91 -604.55,199.33 -106.05,100.83 -90.54,227.34 -107.5,359.73 -25.47,198.86 214.57,247.43 358.91,270.74 185.36,29.93 256.13,48 454.84,48 162.47,0 212.81,-7.49 371.87,-25.67 76.68,-8.76 545.03,-173.4 590.45,-219.4 151.93,-153.88 120.04,-177.4 120.04,-391.75 0,-221.82 -186.3,-290.71 -372.69,-335.36 -7.89,-1.89 -170.42,-16.45 -172.11,-16.18 z"
   id="path54" />
 </g>
</svg>
