<?xml version="1.0" encoding="UTF-8" standalone="no"?>
<!-- Creator: CorelDRAW 2021.5 -->

<svg
   xml:space="preserve"
   width="500"
   height="500"
   version="1.1"
   style="clip-rule:evenodd;fill-rule:evenodd;image-rendering:optimizeQuality;shape-rendering:geometricPrecision;text-rendering:geometricPrecision"
   viewBox="0 0 500 500"
   id="svg54"
   sodipodi:docname="clusters.svg"
   inkscape:version="1.3.2 (1:1.3.2+202311252150+091e20ef0f)"
   xmlns:inkscape="http://www.inkscape.org/namespaces/inkscape"
   xmlns:sodipodi="http://sodipodi.sourceforge.net/DTD/sodipodi-0.dtd"
   xmlns="http://www.w3.org/2000/svg"
   xmlns:svg="http://www.w3.org/2000/svg"><sodipodi:namedview
   id="namedview54"
   pagecolor="#ffffff"
   bordercolor="#000000"
   borderopacity="0.25"
   inkscape:showpageshadow="2"
   inkscape:pageopacity="0.0"
   inkscape:pagecheckerboard="0"
   inkscape:deskcolor="#d1d1d1"
   inkscape:document-units="mm"
   inkscape:zoom="0.879253"
   inkscape:cx="-14.785278"
   inkscape:cy="9.0986326"
   inkscape:window-width="1920"
   inkscape:window-height="1098"
   inkscape:window-x="0"
   inkscape:window-y="1447"
   inkscape:window-maximized="1"
   inkscape:current-layer="Warstwa_x0020_1" />
 <defs
   id="defs1">
  <style
   type="text/css"
   id="style1">
   <![CDATA[
    .fil0 {fill:#AE4A84;fill-opacity:0.101961}
   ]]>
  </style>
 </defs>
 <g
   id="Warstwa_x0020_1"
   inkscape:label="Warstwa 1"
   inkscape:groupmode="layer">
  <metadata
   id="CorelCorpID_0Corel-Layer" />
  
  
  
  
  
  
  
  
  
  
  
  
  
  
  
  
  
  
  
  
  
  
  
  
  
  
  
  
  
  
  
  
  
  
  
  
  
  
  
  
  
  
  
  
  
  
  
  
  
  
  
  
  
  <path
   class="fil0"
   d="m -360.95641,237.20481 c 3.84683,6.06408 15.98915,7.34882 20.41423,2.062 2.41235,-2.88198 4.57348,-4.48282 5.76919,-10.39197 2.94451,-14.55162 1.3041,-11.033 1.77264,-25.17018 0.74598,-22.51479 5.55373,-32.25592 -0.30848,-58.78968 -2.6824,-12.14013 -6.02623,-23.00087 -10.27351,-33.8091 -8.09779,-20.607226 -9.27549,-37.183009 -21.12948,-55.567092 -3.96504,-6.14909 -7.14459,-13.536637 -12.31698,-17.812029 -6.22844,-5.148788 -14.4394,-12.48781 -21.13241,-14.787988 -2.34662,-0.806647 -6.84776,-4.362201 -10.16751,-5.326873 -6.66198,-1.936045 -26.94689,-0.316072 -32.73623,6.483409 -6.94265,8.154118 -12.34691,18.649839 -15.02692,32.270608 -4.62703,23.515509 1.28818,31.595292 13.48192,45.410155 15.93935,18.05775 29.38816,29.97711 41.69506,56.4926 3.13769,6.76031 11.25165,28.34068 13.64704,37.21063 1.25482,4.64665 5.80869,15.84306 8.1023,19.15154 2.94318,4.24644 8.27377,13.28957 11.7125,16.02824 0.48018,0.3824 6.39592,6.3868 6.49664,6.54573 z"
   id="path1"
   style="fill:#000000;fill-opacity:0.48963943;stroke-width:0.0343472" /><path
   class="fil0"
   d="m 219.81684,27.481689 c -6.01114,-2.130564 -10.57613,-8.195079 -17.05581,-9.94992 -3.99736,-1.082644 -3.42732,-1.129841 -7.73686,-1.568773 -11.98306,-1.22021 -24.09015,-5.148367 -34.28547,8.160797 -8.62862,11.264062 -3.80046,10.916384 -9.23628,24.764206 -1.391,3.543965 -0.60049,15.72999 0.30875,20.101967 1.97668,9.5061 0.83635,11.763991 4.71207,22.788106 6.09464,17.333908 21.20715,48.220068 33.24322,54.542768 6.82523,3.58537 8.26501,6.25014 16.12747,7.52733 6.61934,1.07508 7.68228,0.9936 14.11135,-1.77532 0.51941,-0.22349 7.49174,-5.62291 8.03657,-6.24125 5.66134,-6.42821 10.19243,-10.18631 15.87018,-17.69807 6.11265,-8.0869 8.75528,-9.25635 14.3114,-19.9003 3.38122,-6.47719 18.5661,-24.181934 20.00005,-33.246869 1.34703,-8.513805 3.43661,-12.828366 -0.47436,-19.741373 -0.92938,-1.642223 -57.8207,-27.723666 -57.93228,-27.763299 z"
   id="path2"
   style="fill:#000000;fill-opacity:0.48963943;stroke-width:0.0343472" /><path
   class="fil0"
   d="m -70.360686,-53.879725 c -0.724792,-15.12589 -7.240779,-29.731371 -15.480888,-35.691271 -3.370347,-2.43774 -15.762586,-1.30522 -18.938686,0.78796 -9.56064,6.30178 -8.46749,24.827855 -13.21189,39.845107 -5.1504,16.30337 -9.31605,30.344383 -20.62176,35.345828 -16.39221,7.2513291 -20.64823,2.97284 -34.34218,23.2101181 -7.58527,11.2097639 -8.65987,35.9459249 -5.7697,51.1439159 4.52392,23.790178 9.50152,38.385882 23.55855,46.986937 6.61321,4.04613 21.45649,0.62993 25.4748,-8.54897 1.16044,-2.650974 7.43208,-15.85641 8.72055,-17.350848 5.96768,-6.921898 17.0386,-5.495581 23.397687,1.118716 8.711021,9.061375 15.435039,12.817241 26.212308,9.866672 6.541156,-1.790892 13.161557,-12.536334 14.089338,-23.565359 2.162456,-25.701718 -1.283421,-42.242359 -6.589658,-66.0102639 -1.570144,-7.03319 -7.843133,-34.6268751 -7.91864,-40.1518481 -0.124297,-9.078294 -0.87877,-7.286495 1.450381,-16.460511 0.071,-0.279115 -0.01769,-0.275112 -0.0303,-0.526183 z"
   id="path3"
   style="fill:#000000;fill-opacity:0.48963943;stroke-width:0.0343472" /><path
   class="fil0"
   d="m -244.22372,216.9902 c -1.73818,-7.67599 -9.9844,-22.87312 -14.74152,-27.83004 -13.96904,-14.55563 -32.98774,-21.9681 -49.29622,-17.79467 -7.01316,1.79448 -17.55298,11.67495 -20.17628,23.07746 -1.94328,8.44659 -4.06891,18.03641 -2.8846,27.33594 3.01128,23.6446 26.02151,30.67155 37.9121,32.03645 8.94714,1.027 17.45039,1.41785 26.42748,0.82355 2.9323,-0.19419 16.68612,-5.28547 18.77865,-7.17965 5.78852,-5.23962 7.26513,-20.96426 4.05194,-29.47497 -0.0736,-0.19507 -0.0345,-0.83022 -0.0717,-0.99407 z"
   id="path4"
   style="fill:#000000;fill-opacity:0.48963943;stroke-width:0.0343472" /><path
   class="fil0"
   d="m -91.424206,92.261967 c -2.934667,-3.642805 -12.169884,-11.372677 -15.950204,-11.795596 -5.45622,-0.610758 -8.73885,-0.5529 -13.44563,4.887499 -4.37341,5.054857 -6.40945,19.28864 -6.08641,27.66222 0.3811,9.87603 9.54235,22.10434 15.22648,22.01218 4.98131,-0.0805 4.1932,-0.41621 8.63259,-1.94403 8.223146,-2.82994 7.009416,-4.5839 10.817301,-15.0667 2.266074,-6.23855 3.81556,-16.2063 2.297059,-23.268419 -0.08559,-0.397109 -1.389692,-2.361176 -1.491186,-2.487154 z"
   id="path5"
   style="fill:#000000;fill-opacity:0.48963943;stroke-width:0.0343472" /><path
   class="fil0"
   d="M 118.83588,20.87186 C 115.90121,17.229055 106.666,9.4991611 102.88567,9.0762641 c -5.456212,-0.61078 -8.738852,-0.5529 -13.445632,4.8874769 -4.37339,5.054879 -6.40945,19.288663 -6.08639,27.662246 0.38108,9.876028 9.54233,22.104319 15.22646,22.01218 4.981322,-0.08051 4.193202,-0.41624 8.632592,-1.944052 8.22315,-2.829921 7.00942,-4.583878 10.8173,-15.066682 2.26608,-6.238575 3.81556,-16.2063 2.29706,-23.268441 -0.0856,-0.397087 -1.38967,-2.361154 -1.49118,-2.487132 z"
   id="path6"
   style="fill:#000000;fill-opacity:0.48963943;stroke-width:0.0343472" /><path
   class="fil0"
   d="m -201.80124,272.25905 c 2.37527,-1.16277 13.91364,-26.11973 22.98986,-31.11717 2.8602,-1.57456 7.75937,-3.14245 9.76389,-6.23592 3.18775,-4.91952 1.55133,-12.17041 -2.07951,-15.77537 -13.65791,-13.56112 -28.82343,-10.95956 -43.28615,-2.34915 -10.15372,6.04448 -15.39078,11.44348 -22.13652,25.51163 -5.30332,11.05974 -3.94939,23.75233 3.46709,31.27389 8.96249,9.08941 20.17705,12.18423 29.099,1.48552 0.23482,-0.28135 2.05515,-2.7311 2.18234,-2.79343 z"
   id="path7"
   style="fill:#000000;fill-opacity:0.48963943;stroke-width:0.0343472" /><path
   class="fil0"
   d="m -68.975506,179.78583 c -6.244347,-3.30493 -16.731442,-4.53447 -21.959762,3.4821 -4.241686,6.50343 -3.901949,13.17649 -3.855304,22.48851 0.0878,17.53469 7.616014,35.34269 18.83666,35.6926 4.819135,0.14995 14.109729,0.83602 18.309283,-2.21693 9.979623,-7.25445 9.107222,-21.51492 6.907389,-36.53264 -1.922886,-13.09682 -10.285433,-18.70371 -18.238266,-22.91364 z"
   id="path8"
   style="fill:#000000;fill-opacity:0.48963943;stroke-width:0.0343472" /><path
   class="fil0"
   d="m -233.87417,-18.664785 c -9.37565,-4.963161 -25.12261,-6.808372 -32.9729,5.228497 -6.36889,9.7651781 -5.8585,19.7845681 -5.78881,33.766815 0.0858,17.213281 -4.00371,40.292976 4.06017,50.416514 4.27057,5.359805 18.39121,2.99509 24.22319,3.176272 7.23573,0.224353 20.83746,-0.454082 27.49176,-3.328967 67.6217,-29.224782 16.6432,-71.44442492 -17.01341,-89.259131 z"
   id="path9"
   style="fill:#000000;fill-opacity:0.48963943;stroke-width:0.0343472" /><path
   class="fil0"
   d="m -14.901213,120.31639 c -2.062797,-4.98899 -24.912455,-23.753663 -29.707484,-26.233253 -8.712348,-4.50554 -28.481035,-6.428647 -32.455063,11.455043 -1.755151,7.8986 -3.344912,35.44332 -1.107724,43.54135 1.618646,5.85885 1.301181,7.83895 4.132761,14.38959 8.285957,19.16888 29.487796,23.11084 41.283768,12.10143 10.051702,-9.38147 20.205408,-29.3343 19.046815,-49.87877 -0.07254,-1.28654 -1.034849,-4.99255 -1.193073,-5.37539 z"
   id="path10"
   style="fill:#000000;fill-opacity:0.48963943;stroke-width:0.0343472" /><path
   class="fil0"
   d="m -269.81726,158.2847 c 4.37127,0.94152 31.73056,37.54938 48.25211,38.67657 7.19916,0.49146 19.28931,-0.33744 22.43862,-13.46542 2.87055,-11.96475 4.13464,-24.31236 3.20102,-37.24313 -1.12628,-15.59775 -10.34639,-31.66341 -17.69979,-40.30498 -15.31895,-18.002568 -28.93419,-18.974362 -46.99835,-25.10609 -7.63273,-2.591324 -14.8809,-4.462346 -22.57698,-7.310536 -7.78348,-2.880679 -30.2677,-5.792521 -36.26345,5.72752 -11.72206,22.522326 7.27495,44.287876 17.85427,53.597226 5.22726,4.59992 10.52474,8.30682 15.9017,12.9054 4.61429,3.94685 8.16724,6.48297 12.7712,10.89055 1.24208,1.18905 2.3506,0.89569 3.033,1.95162 z"
   id="path11"
   style="fill:#000000;fill-opacity:0.48963943;stroke-width:0.0343472" /><path
   class="fil0"
   d="m -192.66725,344.16957 c -5.54606,-4.35508 -11.89272,-2.91317 -17.87283,-2.91317 -14.1593,0 -16.71052,1.8194 -25.06301,21.92982 -2.26339,5.44973 -3.48535,13.49481 -1.2251,19.47473 1.31364,3.47542 15.18592,2.67634 17.98359,1.85724 5.80577,-1.69966 10.26292,-3.14557 16.01064,-5.99374 4.99907,-2.47736 7.95575,-2.10608 12.78603,-2.71286 3.03908,-0.38149 6.16563,-2.88733 7.87361,-7.10084 4.12827,-10.17786 -5.07859,-20.28939 -10.49293,-24.54118 z"
   id="path12"
   style="fill:#000000;fill-opacity:0.48963943;stroke-width:0.0343472" /><path
   class="fil0"
   d="m -111.67759,310.17661 c 0,-21.27631 -10.63629,-35.60626 -17.87521,-52.91391 -4.87504,-11.65579 -11.6412,-23.05254 -20.32625,-25.38741 -7.06745,-1.90044 -30.87722,-25.24101 -37.9945,-24.98947 -38.64324,1.368 -38.53248,-3.41443 -51.6018,34.09401 -19.89297,57.09312 54.6756,96.98412 57.57981,108.6408 8.15638,32.7376 44.36341,23.54311 58.95704,11.561 4.13806,-3.39753 9.3465,-13.38839 10.38878,-21.29679 1.27734,-9.68996 0.87213,-19.77344 0.87213,-29.70823 z"
   id="path13"
   style="fill:#000000;fill-opacity:0.48963943;stroke-width:0.0343472" /><path
   class="fil0"
   d="m -90.076116,377.67063 c 0.184234,-0.11081 42.900048,-1.82299 44.263244,-1.62798 8.526035,1.22019 16.379253,-14.18747 24.718999,-13.92216 15.412237,0.49013 36.879081,1.53538 37.536571,-32.65436 0.223668,-11.62063 -0.766659,-17.05835 -5.632174,-26.00664 -13.611525,-25.03399 -45.548523,-56.65821 -66.506568,-55.86981 -5.380418,0.20215 -20.868184,3.72559 -25.648902,6.9219 -6.775153,4.52956 -20.009054,16.11505 -23.271004,27.05859 -4.27349,14.33751 -5.26066,18.31061 -2.96676,34.47553 1.56647,11.03701 4.12907,16.55353 7.08972,25.98663 3.890559,12.39702 0.43303,37.79602 10.416874,35.6383 z"
   id="path14"
   style="fill:#000000;fill-opacity:0.48963943;stroke-width:0.0343472" /><path
   class="fil0"
   d="M 91.516638,84.926063 C 81.442685,81.838834 77.211571,80.089765 66.80664,80.792241 59.684319,81.272575 52.560693,90.551182 48.701651,100.16902 46.4939,105.67218 36.697139,133.9434 33.986649,140.16596 29.237469,151.06766 6.08147,182.68431 -0.98916403,189.06623 -6.626381,194.15448 -18.875241,218.01587 0.95968697,222.52765 5.838207,223.63701 42.894311,205.9474 48.076783,197.7314 c 6.345576,-10.06033 18.300812,-23.43761 26.983479,-25.62026 8.067066,-2.02819 27.023758,-11.27919 33.574738,-16.13285 11.80019,-8.74265 7.89294,-29.70021 5.17371,-45.59134 C 110.69779,92.211651 102.37023,88.252353 91.516638,84.926063 Z"
   id="path15"
   style="fill:#000000;fill-opacity:0.48963943;stroke-width:0.0343472" /><path
   class="fil0"
   d="m -427.65376,-202.12127 c -10.73569,-5.12477 -20.13758,-0.94598 -29.86677,6.87826 -23.45068,18.8591 -36.30641,49.30584 -49.64736,85.32209 -7.88234,21.279874 -11.9608,64.250517 -4.52498,87.21359 8.67577,26.7919251 14.24752,29.5261461 30.71398,39.187618 3.26726,1.917334 10.18896,4.272694 13.40429,1.841208 8.57188,-6.482966 14.22925,-12.9970949 17.53944,-28.440406 11.42894,-53.321655 58.12838,-117.13591 49.2496,-144.24037 -5.19784,-15.86798 -10.37261,-39.88697 -26.8682,-47.76199 z"
   id="path16"
   style="fill:#000000;fill-opacity:0.48963943;stroke-width:0.0343472" /><path
   class="fil0"
   d="m -288.1443,-404.57034 c -0.60581,-2.46847 -5.48512,-12.7585 -7.03381,-13.98495 -3.25561,-2.57885 -15.79413,0.53554 -19.18118,2.61493 -2.20751,1.35552 -2.78838,1.45389 -5.011,3.27197 -6.02596,4.93023 -10.57056,7.34393 -14.98903,16.70934 -3.37749,7.15875 0.54089,16.96845 5.05446,19.0959 3.34281,1.57589 5.97432,0.33923 9.40908,1.05325 4.34795,0.90416 11.83492,-0.93396 15.9844,-3.2457 2.85276,-1.58969 11.41673,-6.11839 12.89308,-10.9431 0.68903,-2.2521 1.14961,-3.84624 1.79646,-6.09924 0.56367,-1.96274 1.56409,-6.49009 1.07754,-8.4724 z"
   id="path17"
   style="fill:#000000;fill-opacity:0.48963943;stroke-width:0.0343472" /><path
   class="fil0"
   d="m -88.182645,-427.06199 c -1.237307,-2.98839 -9.371675,-19.03801 -12.686645,-19.48228 -7.65525,-1.02522 -35.257,6.25592 -41.23924,6.17625 -4.67445,-0.0619 -11.63113,0.15991 -16.24755,2.27346 -12.51731,5.73064 -16.41132,8.74798 -25.62851,19.86738 -7.0452,8.49958 1.00544,20.42781 10.34188,23.13534 6.91455,2.00547 14.91642,3.89385 22.02786,4.86611 21.75253,2.97417 32.14821,-11.82099 37.8575,-14.09577 9.07673,-3.61788 21.754633,-6.65303 23.110154,-9.34049 1.180334,-2.34158 3.458328,-10.99919 2.464551,-13.4 z"
   id="path18"
   style="fill:#000000;fill-opacity:0.48963943;stroke-width:0.0343472" /><path
   class="fil0"
   d="m 42.907824,476.82315 c -6.089573,-6.46072 -14.864468,-4.89995 -21.440613,-1.81184 -6.985307,3.28 -13.293506,6.08811 -20.091992,10.49926 -2.06016503,1.33685 -4.429834,1.14097 -6.764027,3.06943 -1.578107,1.30345 -10.929124,3.41754 -13.2694,3.41754 -5.395523,0 -6.708625,-0.15681 -11.932433,-1.30255 -2.660927,-0.58316 -13.044161,-0.97626 -14.167787,3.75854 -0.669411,2.8197 -1.310713,0.58718 -1.466548,6.62098 -0.126951,4.91864 6.286768,10.88166 8.587012,12.43707 9.347036,6.31871 15.8283,4.51667 25.91895,4.51667 14.06919,0 15.633008,-1.50021 29.028539,-7.84384 7.835193,-3.71046 15.049189,-10.24375 22.277781,-16.39819 3.483498,-2.96614 4.017753,-10.05854 3.591362,-15.88355 -0.01106,-0.16344 -0.128057,-0.92773 -0.270844,-1.07952 z"
   id="path19"
   style="fill:#000000;fill-opacity:0.48963943;stroke-width:0.0343472" /><path
   class="fil0"
   d="m -196.15686,-458.76187 c 5.72547,0 20.09492,-2.4738 17.81055,14.24267 -0.99033,7.24553 -8.35034,16.87717 -11.61072,22.53124 -7.01844,12.17043 -17.7867,16.24814 -27.54609,16.24814 -6.34931,0 -10.95776,0.23371 -17.37117,1.30123 -6.04242,1.00563 -13.39343,0.80709 -19.50318,0.80709 -8.71551,0 -17.87521,0.36325 -26.54355,0.11434 -4.44231,-0.12739 -7.97669,-4.54384 -10.19429,-10.89369 -3.94381,-11.29299 4.39118,-14.87526 9.01102,-18.26343 2.19109,-1.60706 11.12631,-6.4398 13.65631,-7.5082 12.06973,-5.09493 20.09464,-9.87247 33.00893,-11.7248 6.64029,-0.95222 14.57167,-2.09095 21.08259,-3.7857 3.58291,-0.93263 6.82474,-2.35671 10.50435,-2.42751 2.63655,-0.0506 4.78441,-0.64147 7.69525,-0.64147 z"
   id="path20"
   style="fill:#000000;fill-opacity:0.48963943;stroke-width:0.0343472" /><path
   class="fil0"
   d="m 3.622206,-311.76593 c 6.279336,0 22.038477,-2.47379 19.533098,14.24267 -1.085983,7.24554 -9.157826,16.87762 -12.73355,22.53125 -7.697117,12.17041 -18.6082377,17.64153 -29.31157,17.64153 -6.963301,0 -15.864881,19.26459 -22.923064,18.91736 -14.989826,-0.73808 -24.675007,-6.78968 -39.843715,-6.3592 -41.094005,1.16722 -49.168495,-3.04762 -46.857105,-30.51842 1.20974,-14.37847 0.87903,-17.32546 6.12588,-22.26104 9.7048,-9.12815 32.418507,-12.6877 34.216565,-13.3795 13.237086,-5.09316 21.830976,9.40061 35.993985,7.54916 7.282381,-0.95178 28.69913,-3.60052 35.83972,-5.29483 3.929263,-0.93262 7.4848616,-2.35671 11.520374,-2.4275 2.891473,-0.0507 5.24711997,-0.64148 8.439382,-0.64148 z"
   id="path21"
   style="fill:#000000;fill-opacity:0.48963943;stroke-width:0.0343472" /><path
   class="fil0"
   d="m 13.782834,-309.40031 c 2.660661,0 8.891495,2.89625 8.070759,12.45311 -0.619317,7.2117 -11.91892,17.87168 -15.252973,20.52843 -10.776494,8.58637 -23.187272,-0.0898 -31.832053,-5.4239 -31.938568,-19.70579 18.747883,-25.56909 30.350399,-26.27824 2.548042,-0.15571 5.723075,-1.2794 8.663868,-1.2794 z"
   id="path22"
   style="fill:#000000;fill-opacity:0.48963943;stroke-width:0.0343472" /><path
   class="fil0"
   d="m -106.83007,-450.52407 c -3.26118,-0.88454 -12.62836,7.10978 -16.00957,6.9651 -3.18565,-0.13624 -6.94609,-1.30167 -10.08483,-2.15328 -4.47754,-1.21577 -9.21268,-2.23785 -13.64572,-3.62144 -2.27189,-0.70872 -3.72837,-4.3012 -4.35141,-9.06715 -1.10799,-8.47554 3.46523,-9.82752 6.11397,-11.561 12.28226,-8.04462 14.87958,0.83825 25.1915,1.59947 5.05607,0.37307 12.55894,-9.65033 17.07781,-8.5463 26.419836,6.4567 11.8821,30.77352 -4.29175,26.3846 z"
   id="path23"
   style="fill:#000000;fill-opacity:0.48963943;stroke-width:0.0343472" /><path
   class="fil0"
   d="m 116.81521,-337.16896 c -14.98797,-4.83717 -25.007342,-6.18646 -27.643092,23.02673 -0.88884,9.84486 0.18489,15.35871 3.63166,23.55956 3.21028,7.63908 9.539162,14.74528 14.933892,16.54955 9.98175,3.3383 14.45769,3.49724 24.71743,3.26707 5.09767,-0.11391 13.13477,-5.53031 15.9518,-13.45072 2.04055,-5.73641 3.13845,-14.22042 2.20857,-20.79865 -2.01857,-14.28631 -25.38472,-29.43668 -33.80026,-32.15354 z"
   id="path24"
   style="fill:#000000;fill-opacity:0.48963943;stroke-width:0.0343472" /><path
   class="fil0"
   d="m 96.742808,-219.94976 c -29.155464,-11.6398 -47.281907,-19.29045 -54.92017,12.26167 -2.575069,10.63282 -2.577192,15.96414 3.534896,26.56225 5.693416,9.87203 11.843679,9.41306 22.331835,13.67286 13.317636,5.40835 15.147499,19.56598 25.609159,21.99705 4.78258,1.11113 23.910212,2.98794 30.264282,4.24644 10.06256,1.99258 26.36628,-0.7176 32.5836,-8.39763 4.50351,-5.56193 7.37751,-14.58679 6.09276,-22.32557 -2.78761,-16.80552 -49.12663,-41.48157 -65.496362,-48.01707 z"
   id="path25"
   style="fill:#000000;fill-opacity:0.48963943;stroke-width:0.0343472" /><path
   class="fil0"
   d="m 90.855698,-50.091346 c -5.87916,21.250496 -16.544336,48.3709671 -6.16059,52.5025551 12.88647,5.127888 27.066952,6.315144 38.458512,4.37065 9.27286,-1.5839 16.69834,-5.24451 20.07346,-10.547342 8.95986,-14.0761781 17.74563,-23.5702471 -1.53757,-38.0417421 -16.36467,-12.280841 -38.67928,-52.031571 -50.833812,-8.284121 z"
   id="path26"
   style="fill:#000000;fill-opacity:0.48963943;stroke-width:0.0343472" /><path
   class="fil0"
   d="m -55.849734,-198.91207 c -20.848058,-5.04729 -34.78501,-6.45536 -38.45137,24.02746 -1.236532,10.27314 0.257574,16.02647 5.05154,24.58349 4.46562,7.9707 8.982661,18.29013 16.486852,20.1723 13.884226,3.48252 32.831647,31.754204 47.10303,31.515604 7.089986,-0.11832 15.2286,-26.677534 17.2111132,-38.889814 1.1986248,-7.38222 0.9087168,-20.99363 -0.3847895,-27.85809 -2.8080037,-14.90689 -35.3102427,-30.71567 -47.0163757,-33.55095 z"
   id="path27"
   style="fill:#000000;fill-opacity:0.48963943;stroke-width:0.0343472" /><path
   class="fil0"
   d="m 62.651343,-165.55122 c 13.790671,17.42428 8.664907,32.71887 0.442293,50.23398 -5.418857,11.5432 -10.025206,27.224644 -19.107768,33.859424 -19.281586,14.084184 -40.622828,10.247746 -51.782785,-3.39397 -5.732607,-7.00647 -3.185384,-36.571364 -0.5806345,-48.449744 1.5738815,-7.18056 6.5128025,-17.98253 9.9374915,-22.31134 3.794084,-4.79757 16.370495,5.79562 31.278179,4.00918 14.312984,-1.71479 19.813187,-18.54078 29.813224,-13.94753 z"
   id="path28"
   style="fill:#000000;fill-opacity:0.48963943;stroke-width:0.0343472" /><path
   class="fil0"
   d="m -162.43717,-243.1679 c -34.32629,-4.83719 -62.30168,-3.88275 -68.33802,25.33044 -2.03577,9.84489 0.42347,15.35874 8.31723,23.55959 7.35236,7.63861 22.03104,17.15275 34.34086,19.68529 18.78207,3.86406 29.39001,15.51097 52.81208,12.33693 8.39937,-1.13829 25.00547,-18.61867 33.75756,-24.25449 5.40402,-3.47945 21.668,-15.46868 19.538145,-22.04692 7.014988,-14.80091 0.09355,-25.671 -19.593525,-32.71399 -11.15783,-3.99181 -53.86201,-0.91393 -60.83433,-1.89685 z"
   id="path29"
   style="fill:#000000;fill-opacity:0.48963943;stroke-width:0.0343472" /><path
   class="fil0"
   d="m 178.1361,-411.01325 c -5.47979,3.20208 -11.41965,4.84074 -16.4211,9.74469 -24.87775,24.39384 -9.98413,55.98422 2.85648,80.69945 8.71793,16.77924 19.44592,24.49309 32.01704,35.91341 8.38982,7.62214 23.81586,14.5948 33.38232,17.40694 9.71196,2.85394 19.00574,-0.66063 28.72668,2.35359 28.16809,8.73106 38.58655,1.76375 34.61701,-39.63723 -2.8981,-30.22507 -14.76775,-39.26509 -29.49177,-57.02948 -17.21138,-20.76481 -34.50782,-33.85851 -55.53158,-47.65245 -11.10269,-7.28473 -18.48816,-8.61577 -30.15508,-1.79892 z"
   id="path30"
   style="fill:#000000;fill-opacity:0.48963943;stroke-width:0.0343472" /><path
   class="fil0"
   d="m 262.62732,-199.9898 c 8.84697,-3.60987 18.01114,-9.68728 26.80858,-13.4543 6.73514,-2.88335 23.02057,-17.3259 15.04016,-31.84056 -2.59785,-4.72457 -3.53994,-7.6591 -7.73949,-9.74161 -11.12658,-5.51738 -27.77029,-5.98482 -39.53236,-3.53016 -13.31737,2.77828 -23.72256,3.88273 -34.76512,18.13832 -5.91176,7.63194 -7.78112,15.47936 -7.83809,27.7023 -0.077,16.60385 4.91216,22.93233 14.58329,22.69818 2.51783,-0.061 19.02773,-4.82739 22.19005,-6.26616 3.88872,-1.7691 7.56408,-2.20003 11.25298,-3.70601 z"
   id="path31"
   style="fill:#000000;fill-opacity:0.48963943;stroke-width:0.0343472" /><path
   class="fil0"
   d="m 347.68192,-44.986615 c 5.10166,1.531372 20.88968,0.81598 26.66601,-2.252538 5.47796,-2.909631 10.80722,-2.090953 15.35712,-7.676018 4.74284,-5.821893 9.62186,-11.812073 13.59403,-19.06296 3.18223,-5.808535 8.71686,-11.676275 11.57443,-19.788545 4.36678,-12.397464 7.2437,-18.485134 -6.71791,-20.487044 -7.36771,-1.05595 -21.39979,-0.0338 -29.21775,-0.0338 -9.26888,0 -26.04643,-2.64874 -33.96616,5.32731 -7.27176,7.32301 -15.13343,18.048864 -14.6074,33.79086 0.29283,8.763571 11.97565,27.377779 16.54938,29.587145 0.12164,0.05883 0.61589,0.549781 0.76825,0.59563 z"
   id="path32"
   style="fill:#000000;fill-opacity:0.48963943;stroke-width:0.0343472" /><path
   class="fil0"
   d="m 331.7333,-224.11921 c -8.33921,-2.58776 -32.14739,7.43207 -41.09692,10.79041 -6.67021,2.50272 -19.34758,8.74576 -24.36601,16.60964 -2.47966,3.88541 -15.19574,29.28265 -11.37118,35.26169 4.6514,7.27136 17.65447,21.13743 23.81057,21.13743 7.53441,0 45.41918,-17.28317 51.75364,-23.91662 10.57746,-11.07664 30.25551,-6.35829 34.5722,-32.44333 3.16313,-19.1146 -18.74205,-24.13029 -26.23403,-25.86065 -1.58686,-0.36636 -5.48908,-0.66598 -6.8197,-1.38982 z"
   id="path33"
   style="fill:#000000;fill-opacity:0.48963943;stroke-width:0.0343472" /><path
   class="fil0"
   d="m 221.11882,-26.993405 c 12.25098,-5.482244 47.23715,-28.288596 58.58711,-40.82805 7.80336,-8.620673 11.55826,-13.266881 11.08655,-29.820411 -0.18158,-6.371694 -18.04696,-35.450004 -21.44937,-41.164164 -4.03259,-6.77278 -19.88662,-22.77477 -25.2803,-23.85162 -11.60144,-2.3153 -18.52818,2.25301 -29.17801,3.67488 -4.91718,0.65661 -28.16275,16.07141 -29.78883,25.08514 -1.59162,8.82278 -12.85309,19.41597 -12.58119,41.664534 0.38665,31.634019 -8.19346,27.724109 9.88528,62.19475 2.33127,4.445426 4.20778,8.455504 7.59217,8.843678 7.47026,3.26799 23.76897,-2.506285 31.12659,-5.798737 z"
   id="path34"
   style="fill:#000000;fill-opacity:0.48963943;stroke-width:0.0343472" /><path
   class="fil0"
   d="m -67.037514,-354.70317 c -2.887779,1.16278 -12.869503,-0.34902 -17.953931,0.5934 -6.25043,1.15833 -11.042538,1.25938 -17.369055,3.46072 -7.82696,2.72354 -14.9058,7.77085 -20.13279,18.28346 -1.65682,3.33208 -1.95732,18.11874 -0.15615,22.21696 4.42429,10.06612 17.39316,0.0241 23.147508,-2.83304 17.271006,-8.5766 13.215079,-1.94673 31.583215,-1.04259 4.819136,0.23683 19.308369,-4.13827 24.659371,-3.20876 4.702801,0.81642 20.117958,5.79252 22.991427,-1.70679 4.16326,-10.86562 -7.206321,-20.26309 -11.503388,-24.59858 -4.1198,-4.15651 -28.960972,-12.96637 -35.266273,-11.16478 z"
   id="path35"
   style="fill:#000000;fill-opacity:0.48963943;stroke-width:0.0343472" /><path
   class="fil0"
   d="m 107.80314,-443.99213 c -12.402312,0.60589 -26.361251,8.94964 -38.927864,13.19743 -10.014855,3.38549 -19.013948,1.81137 -26.607448,8.77155 -3.509462,3.21635 -14.264481,13.15335 -12.157428,18.47936 8.370222,21.15566 30.201198,16.42977 50.631866,16.3176 5.245522,-0.029 20.287314,-1.17925 25.647574,-1.92134 13.50555,-1.8697 29.01503,-0.87342 41.56149,-6.29778 13.18965,-5.7026 17.06404,-7.32746 24.83377,-19.71021 3.38943,-5.40168 -10.12854,-10.95826 -22.72087,-14.50711 -15.83173,-4.46148 -33.30626,-14.76709 -42.26109,-14.3295 z"
   id="path36"
   style="fill:#000000;fill-opacity:0.48963943;stroke-width:0.0343472" /><path
   class="fil0"
   d="m 33.470153,-472.53492 c -3.169482,1.11516 -23.480099,6.91745 -30.059937,11.72259 -5.480608,4.00205 -9.616287,4.87102 -14.540921,12.27283 -6.872931,10.33009 -2.296263,19.62296 3.545004,27.47614 11.291133,15.1802 26.576176,4.76952 38.561623,-1.87326 13.372751,-7.41159 13.118606,-5.43325 26.026526,-6.26082 6.306894,-0.40465 15.231785,-4.11602 14.348526,-17.76751 -0.801649,-12.38811 -10.203557,-20.63395 -16.616435,-22.90608 -3.367185,-1.19305 -5.046519,-1.60706 -8.385615,-1.80783 -4.983177,-0.30004 -7.637203,-2.61313 -12.878771,-0.85606 z"
   id="path37"
   style="fill:#000000;fill-opacity:0.48963943;stroke-width:0.0343472" /><path
   class="fil0"
   d="m 314.8585,153.21425 c 7.52644,-0.67175 29.17084,-7.11867 24.72773,-26.81643 -2.07976,-9.21986 -24.89469,-12.90139 -33.71623,-25.97373 -6.32994,-9.380542 -10.2356,-13.195195 -16.6485,-24.088865 -4.73777,-8.048178 -14.06309,0.674875 -17.08549,9.13394 -4.64504,12.998423 -25.53761,50.186365 -33.21458,59.672425 -10.00771,12.3663 3.37249,29.42154 11.48299,29.94016 8.09489,0.51771 14.70415,2.95948 23.4907,-0.11899 8.87906,-3.11127 17.72628,-3.8734 26.05331,-12.40682 0.063,-0.0646 12.68347,-9.14328 14.91007,-9.34182 z"
   id="path38"
   style="fill:#000000;fill-opacity:0.48963943;stroke-width:0.0343472" /><path
   class="fil0"
   d="m 387.841,122.03697 c -31.00285,0.27911 -23.65288,1.04303 -49.95423,25.28415 -10.64399,9.81014 -61.74201,9.64456 -33.86811,58.87111 13.66083,24.12541 6.75131,38.86757 10.48977,64.09607 2.59122,17.48705 6.6429,40.60724 18.18023,47.82564 6.09197,3.81151 29.12712,-17.52489 34.17337,-26.49903 16.01355,-28.47688 25.74697,-64.50606 38.21207,-97.38919 19.75042,-52.10237 21.29327,-72.53554 -17.2331,-72.18875 z"
   id="path39"
   style="fill:#000000;fill-opacity:0.48963943;stroke-width:0.0343472" /><path
   class="fil0"
   d="m 215.48081,396.56351 c -2.06652,-3.69354 -2.47119,-4.96672 -5.54975,-7.34971 -6.85203,-5.3046 -17.69978,-4.83362 -25.19869,-4.83362 -7.0791,0 -14.6074,-0.72163 -21.56807,-0.26443 -5.52537,0.36281 -14.62517,11.1038 -22.81573,12.60713 -5.91361,1.08576 -14.41793,-0.29559 -19.51083,5.07669 -10.69911,11.28454 -14.95855,24.51446 -14.95855,43.99408 0,10.04252 0.8883,12.7723 5.4223,19.58737 1.90009,2.85574 9.23997,6.46337 12.02095,6.84219 11.7085,1.59414 17.77742,-7.94354 28.83774,-11.32771 7.07833,-2.16529 14.25362,-2.85308 21.39556,-3.96332 6.46854,-1.00517 32.17628,-9.90498 35.89618,-18.16951 3.93667,-8.74574 20.61035,-16.13997 6.02889,-42.19916 z"
   id="path40"
   style="fill:#000000;fill-opacity:0.48963943;stroke-width:0.0343472" /><path
   class="fil0"
   d="m 334.4846,329.58189 c -4.04478,-8.81386 -8.35406,-17.29029 -14.99883,-17.29029 -16.73912,0 -19.34442,13.26285 -31.86941,20.30272 -8.64504,4.85946 -42.83033,-3.15176 -51.55622,12.20649 -10.39327,18.29371 -16.31644,74.23741 3.98175,74.23741 6.82231,0 25.66242,-10.06256 32.69304,-13.99652 9.44033,-5.28232 17.74086,-9.50787 26.90612,-17.24621 7.24075,-6.11302 31.49017,-24.86214 33.34071,-37.36998 0.46693,-3.15535 2.58115,-18.49447 1.50284,-20.84362 z"
   id="path41"
   style="fill:#000000;fill-opacity:0.48963943;stroke-width:0.0343472" /><path
   class="fil0"
   d="m 299.51754,44.728809 c 5.49357,-6.190935 11.95259,-18.593751 7.91362,-30.886136 -5.18961,-15.7967609 -23.78593,-22.5966839 -33.44857,-26.674418 -9.68388,-4.086204 -42.37506,-10.789521 -53.72609,-10.789521 -7.17531,0 -26.08882,-0.758565 -24.28121,18.9307231 1.14932,12.519437 14.69697,23.9704739 21.54527,28.0415279 5.43476,3.231033 12.92145,4.513105 18.95193,8.338418 2.94371,1.867041 6.52077,3.397972 9.77319,5.415916 9.50366,5.898019 22.26026,11.223985 32.22902,14.344611 8.33656,2.61092 14.06072,1.147203 21.04284,-6.721121 z"
   id="path42"
   style="fill:#000000;fill-opacity:0.48963943;stroke-width:0.0343472" /><path
   class="fil0"
   d="m 363.51314,41.014765 c -7.14723,-3.209203 -13.02532,-7.294059 -21.81824,-5.277441 -9.88474,2.266781 -27.79811,-4.477939 -35.93221,4.656001 -2.61749,2.939444 -5.14087,3.723377 -7.94173,6.799924 -3.23599,3.554205 -5.6046,6.977544 -6.96304,13.248609 -2.15847,9.9633 1.87731,20.905052 6.79663,26.627685 12.00345,13.963097 16.92355,17.466117 31.01448,23.273327 6.90686,2.84596 19.16766,3.56756 25.57871,-1.07596 5.07195,-3.67397 5.31707,-3.72382 9.50127,-9.678394 7.364,-10.480107 8.16881,-11.442125 11.25931,-26.807053 4.08906,-20.326785 -2.0029,-27.505106 -11.49518,-31.766698 z"
   id="path43"
   style="fill:#000000;fill-opacity:0.48963943;stroke-width:0.0343472" /><path
   class="fil0"
   d="m 408.02946,14.51131 c 12.1728,2.450639 43.0132,0.316073 54.59982,-6.6392219 17.48458,-10.496163 21.46604,-42.7431721 12.09833,-67.5238541 -4.89546,-12.950341 -22.46487,-31.75999 -31.11096,-40.33659 -12.3024,-12.204254 -20.53377,-5.747534 -29.20691,10.00247 -6.80693,12.360947 -8.62357,13.962674 -14.8703,28.67009 -8.70837,20.502171 -16.00082,34.451045 -4.44521,59.6337021 2.48523,5.416357 12.91615,16.1894009 12.93523,16.1934039 z"
   id="path44"
   style="fill:#000000;fill-opacity:0.48963943;stroke-width:0.0343472" /><path
   class="fil0"
   d="m -53.696567,458.82324 c -11.866724,-13.18049 -12.371564,-15.1882 -25.714899,-22.95994 -7.389427,-4.30388 -15.42867,-5.66875 -23.093184,-2.65898 -2.86737,1.12584 -8.1092,9.54841 -8.13729,14.76353 -0.0504,9.40593 0.86736,10.43561 3.42732,18.79227 4.68666,15.29907 18.778626,29.68908 28.526353,34.98838 7.292998,3.96509 9.759406,6.31914 17.889262,6.31914 7.111727,0 8.819946,0.65973 14.161947,-7.46413 5.158365,-7.84517 3.933753,-11.8401 4.035513,-22.56862 0.0825,-8.66876 -7.1292,-14.80761 -11.095022,-19.21165 z"
   id="path45"
   style="fill:#000000;fill-opacity:0.48963943;stroke-width:0.0343472" /><path
   class="fil0"
   d="m -34.17247,376.00392 c -0.05352,-0.0228 -42.271442,0.12872 -44.125699,0.46386 -6.04691,1.09377 -15.337239,3.42511 -20.187139,9.81593 -3.202592,4.22019 -1.518212,1.04213 -3.660252,6.40419 -1.34836,3.37524 -1.88102,4.63462 -1.53943,8.89621 0.50033,6.2368 5.676964,10.28291 9.05262,10.92797 3.447469,0.65837 4.769328,1.05683 8.422174,1.05683 14.120081,0 28.817323,1.78955 42.585214,-3.84048 3.845506,-1.57234 14.323865,-5.91536 16.690372,-11.54541 2.367833,-5.63313 3.676688,-7.68982 2.751827,-14.76483 -0.297605,-2.27705 -7.936157,-6.54353 -9.989687,-7.41427 z"
   id="path46"
   style="fill:#000000;fill-opacity:0.48963943;stroke-width:0.0343472" /><path
   class="fil0"
   d="m 116.44924,368.84696 c -0.0403,-8.43413 -0.39381,-12.6975 -4.29815,-18.66987 -3.40082,-5.2022 -13.129752,-10.02516 -17.925292,-14.68338 -3.09158,-3.00309 -14.397004,-14.24893 -17.389462,-15.15216 -5.067198,-1.52958 -9.635639,-6.40952 -15.310477,-0.68956 -5.894016,5.94075 -8.362548,16.20944 -12.637365,24.64088 -6.140199,12.11078 -4.12033,22.54551 -4.29815,36.34434 -0.05773,4.47838 3.256136,9.23099 5.439005,10.8652 8.54353,6.39481 16.189756,5.8397 25.406701,6.22522 3.649661,0.15305 24.089858,0.9994 26.56689,-0.11611 8.8997,-4.00829 14.52845,-11.52137 14.4463,-28.76449 z"
   id="path47"
   style="fill:#000000;fill-opacity:0.48963943;stroke-width:0.0343472" /><path
   class="fil0"
   d="m 390.7998,-8.3809659 c -2.41579,-11.8979751 -13.06482,-23.7799381 -20.33845,-24.8674911 -15.6025,-2.332667 -27.37702,-2.14348 -42.33319,8.008125 -3.70955,2.517852 -14.22263,12.803882 -15.54686,20.4251601 -2.34001,13.466305 -2.27852,25.4412909 5.1692,34.4465769 8.89099,10.750331 28.61144,-1.944494 40.86877,7.760593 4.38772,3.474098 14.09358,3.7955 17.88581,-1.484618 2.72852,-3.799061 13.18356,-25.336701 13.73449,-30.7948809 0.15969,-1.581689 0.80617,-12.28261 0.56023,-13.493465 z"
   id="path48"
   style="fill:#000000;fill-opacity:0.48963943;stroke-width:0.0343472" /><path
   class="fil0"
   d="m 60.721026,414.25447 c -11.189904,-3.0414 -19.171886,-3.35168 -29.876279,3.94685 -4.398583,2.99909 -6.644508,3.15888 -10.962277,7.87765 -6.13436,6.70334 -10.605553,13.9422 -10.774349,26.64549 -0.109699,8.25917 -1.447992,14.36421 4.177017,18.98281 5.46497,4.48774 12.069204,2.38343 17.717545,0.4986 4.458476,-1.48731 16.212293,0.73941 21.486705,-0.14508 4.925673,-0.8258 16.439677,-5.48313 18.975797,-13.33233 3.150395,-9.75093 2.800042,-14.63931 2.060166,-25.01171 -0.968078,-13.56915 -4.937882,-17.32546 -12.804325,-19.46226 z"
   id="path49"
   style="fill:#000000;fill-opacity:0.48963943;stroke-width:0.0343472" /><path
   class="fil0"
   d="m -399.9007,14.802899 c 1.36001,0.489668 2.73725,1.619509 4.68241,2.316191 11.0261,3.947752 33.49309,0.04932 42.66709,-10.7200739 7.0118,-8.231129 9.89799,-18.0644271 13.14563,-31.1616901 6.7293,-27.136506 2.94528,-44.954308 -7.91468,-66.763942 -6.94475,-13.946644 -19.06535,-28.991054 -28.88091,-36.621224 -8.71662,-6.77588 -14.25869,-1.61196 -22.16384,4.04702 -7.82086,5.59842 -14.87057,21.44368 -17.76974,34.564994 -5.02,22.721331 -5.63429,30.176998 -2.7982,54.042837 2.04665,17.223079 5.32453,23.900586 11.38415,37.0761871 0.027,0.05883 7.3897,13.1266559 7.64809,13.2197009 z"
   id="path50"
   style="fill:#000000;fill-opacity:0.48963943;stroke-width:0.0343472" /><path
   class="fil0"
   d="m -330.15047,-37.544307 c 1.05444,1.523809 1.94168,3.623209 3.45091,5.799179 8.55546,12.332925 29.39159,26.9775741 40.51523,24.8999801 8.50195,-1.587903 13.83838,-7.9003711 20.42193,-16.7872431 13.64148,-18.413453 15.71223,-53.710314 12.39331,-81.590239 -2.16538,-18.18952 10.12057,-49.01868 6.84774,-59.89457 -7.74241,-25.72889 -34.39093,-12.89646 -54.89368,17.08107 -10.88144,15.91026 -19.0166,24.79092 -23.32773,48.0242 -3.11116,16.767204 -9.92024,28.270325 -8.35512,44.710797 0.007,0.07343 2.74707,17.467471 2.94741,17.756826 z"
   id="path51"
   style="fill:#000000;fill-opacity:0.48963943;stroke-width:0.0343472" /><path
   class="fil0"
   d="m -224.07398,-18.844617 c 11.02587,3.946846 17.487,-7.479708 26.66073,-18.248749 7.01154,-8.230687 15.38601,-22.521001 18.63338,-35.617379 6.7288,-27.136041 17.94546,-41.267865 7.08577,-63.076615 -6.94424,-13.94618 -16.13865,-22.53836 -25.95394,-30.16809 -8.71633,-6.77542 -21.66747,0.23238 -29.57262,5.89092 -7.82059,5.5984 -15.26595,21.21575 -17.76972,34.56499 -4.02677,21.46908 -4.67632,28.971044 -2.79822,54.042844 1.30516,17.424719 -0.52497,24.972104 5.53043,38.151708 5.55452,12.089397 9.84418,11.474636 18.18419,14.460371 z"
   id="path52"
   style="fill:#000000;fill-opacity:0.48963943;stroke-width:0.0343472" /><path
   class="fil0"
   d="m -341.06794,-168.3126 c 2.27428,0.48969 4.57746,1.61995 7.83015,2.31621 18.43833,3.94773 44.34459,-7.35282 58.70448,-21.43036 10.36627,-10.16226 19.69528,-26.53597 28.22344,-33.57318 18.20357,-15.02081 34.03293,-31.02815 44.1673,-57.40207 7.74164,-20.14781 0.56872,-43.76125 -15.84526,-51.39054 -14.57589,-6.77544 -109.05146,6.98157 -122.27052,12.64009 -13.07887,5.59796 -23.10989,31.37983 -27.95767,44.50113 -8.39486,22.72089 -9.42203,30.17698 -4.67949,54.04284 3.42284,17.22306 8.90424,23.90057 19.03755,37.0762 0.0453,0.0588 12.35779,13.12666 12.79002,13.21968 z"
   id="path53"
   style="fill:#000000;fill-opacity:0.48963943;stroke-width:0.0343472" /><path
   class="fil0"
   d="m -6.414634,447.36419 c -3.3372383,0.9037 -5.725729,0.80756 -9.345201,2.06647 -2.714714,0.94377 -4.902074,1.62577 -7.5956,2.85531 -3.458881,1.57855 -13.807105,5.338 -16.020983,8.87352 -2.810392,4.48862 -2.399349,10.12042 -2.848809,16.01399 -0.674963,8.85259 5.68625,11.01476 9.511343,12.05246 4.91216,1.33239 6.787605,2.1368 12.053568,2.1368 4.305559,0 5.639583,-0.33343 9.854773,-1.14276 2.0320772,-0.38996 14.443651,-7.71919 15.647318,-9.76694 4.026246,-6.85024 3.181137,-7.89728 3.181137,-17.43943 0,-9.8747 -4.937062,-12.94145 -9.876536,-14.92914 -0.209005,-0.084 -4.516223,-0.73229 -4.56101,-0.72028 z"
   id="path54"
   style="fill:#000000;fill-opacity:0.48963943;stroke-width:0.0343472" />
 </g>
</svg>
