<?xml version="1.0" encoding="UTF-8" standalone="no"?>
<!-- Creator: CorelDRAW 2021.5 -->

<svg
   xml:space="preserve"
   width="500"
   height="500"
   version="1.1"
   style="clip-rule:evenodd;fill-rule:evenodd;image-rendering:optimizeQuality;shape-rendering:geometricPrecision;text-rendering:geometricPrecision"
   viewBox="0 0 500 500"
   id="svg54"
   sodipodi:docname="foreground-1.svg"
   inkscape:version="1.3.2 (1:1.3.2+202311252150+091e20ef0f)"
   xmlns:inkscape="http://www.inkscape.org/namespaces/inkscape"
   xmlns:sodipodi="http://sodipodi.sourceforge.net/DTD/sodipodi-0.dtd"
   xmlns="http://www.w3.org/2000/svg"
   xmlns:svg="http://www.w3.org/2000/svg"><sodipodi:namedview
   id="namedview54"
   pagecolor="#ffffff"
   bordercolor="#000000"
   borderopacity="0.25"
   inkscape:showpageshadow="2"
   inkscape:pageopacity="0.0"
   inkscape:pagecheckerboard="0"
   inkscape:deskcolor="#d1d1d1"
   inkscape:document-units="mm"
   inkscape:zoom="0.46997283"
   inkscape:cx="-263.84504"
   inkscape:cy="-9.5750215"
   inkscape:window-width="1920"
   inkscape:window-height="1043"
   inkscape:window-x="0"
   inkscape:window-y="340"
   inkscape:window-maximized="1"
   inkscape:current-layer="Warstwa_x0020_1" />
 <defs
   id="defs1">
  <style
   type="text/css"
   id="style1">
   <![CDATA[
    .fil0 {fill:#AE4A84;fill-opacity:0.101961}
   ]]>
  </style>
 </defs>
 <g
   id="Warstwa_x0020_1"
   inkscape:label="Warstwa 1"
   inkscape:groupmode="layer">
  <metadata
   id="CorelCorpID_0Corel-Layer" />
  
  
  
  
  
  
  
  
  
  
  
  
  
  
  
  
  
  
  
  
  
  
  
  
  
  
  
  
  
  
  
  
  
  
  
  
  
  
  
  
  
  
  
  
  
  
  
  
  
  
  
  
  
  <path
   class="fil0"
   d="m -360.95641,-142.66592 c 3.84683,2.83869 15.98915,3.4401 20.41423,0.96526 2.41235,-1.34911 4.57348,-2.09848 5.76919,-4.86465 2.94451,-6.81185 1.3041,-5.16473 1.77264,-11.78257 0.74598,-10.53953 5.55373,-15.09951 -0.30848,-27.52039 -2.6824,-5.68299 -6.02623,-10.76707 -10.27351,-15.82658 -8.09779,-9.64657 -9.27549,-17.40596 -21.12948,-26.01184 -3.96504,-2.87849 -7.14459,-6.33672 -12.31698,-8.3381 -6.22844,-2.41023 -14.4394,-5.84574 -21.13241,-6.92249 -2.34662,-0.37761 -6.84776,-2.04202 -10.16751,-2.4936 -6.66198,-0.90629 -26.94689,-0.14796 -32.73623,3.03499 -6.94265,3.81707 -12.34691,8.73029 -15.02692,15.10639 -4.62703,11.00798 1.28818,14.79026 13.48192,21.25722 15.93935,8.45312 29.38816,14.03276 41.69506,26.44509 3.13769,3.16461 11.25165,13.26673 13.64704,17.41889 1.25482,2.17517 5.80869,7.41639 8.1023,8.96514 2.94318,1.98783 8.27377,6.22106 11.7125,7.50308 0.48018,0.17901 6.39592,2.98976 6.49664,3.06416 z"
   id="path1"
   style="fill:#006200;fill-opacity:0.489639;stroke-width:0.0235" /><path
   class="fil0"
   d="m 219.81684,-240.84067 c -6.01114,-0.99735 -10.57613,-3.83625 -17.05581,-4.65772 -3.99736,-0.5068 -3.42732,-0.52889 -7.73686,-0.73437 -11.98306,-0.5712 -24.09015,-2.41003 -34.28547,3.8202 -8.62862,5.27289 -3.80046,5.11014 -9.23628,11.59253 -1.391,1.65898 -0.60049,7.36346 0.30875,9.41005 1.97668,4.44996 0.83635,5.50691 4.71207,10.66748 6.09464,8.11428 21.20715,22.57258 33.24322,25.53234 6.82523,1.67837 8.26501,2.92579 16.12747,3.52366 6.61934,0.50326 7.68228,0.46512 14.11135,-0.83105 0.51941,-0.10462 7.49174,-2.63218 8.03657,-2.92163 5.66134,-3.00915 10.19243,-4.76838 15.87018,-8.28475 6.11265,-3.78561 8.75528,-4.33305 14.3114,-9.31565 3.38122,-3.03208 18.5661,-11.31995 20.00005,-15.56339 1.34703,-3.98545 3.43661,-6.00517 -0.47436,-9.24126 -0.92938,-0.76875 -57.8207,-12.97789 -57.93228,-12.99644 z"
   id="path2"
   style="fill:#006200;fill-opacity:0.489639;stroke-width:0.0235" /><path
   class="fil0"
   d="m -70.360686,-278.92725 c -0.724792,-7.08067 -7.240779,-13.91773 -15.480888,-16.70766 -3.370347,-1.14114 -15.762586,-0.61099 -18.938686,0.36886 -9.56064,2.94996 -8.46749,11.62232 -13.21189,18.65213 -5.1504,7.63187 -9.31605,14.20469 -20.62176,16.54595 -16.39221,3.39446 -20.64823,1.39163 -34.34218,10.86503 -7.58527,5.24747 -8.65987,16.82686 -5.7697,23.94128 4.52392,11.13657 9.50152,17.96905 23.55855,21.99534 6.61321,1.89406 21.45649,0.29488 25.4748,-4.00191 1.16044,-1.24096 7.43208,-7.42264 8.72055,-8.12221 5.96768,-3.24025 17.0386,-2.57257 23.397687,0.52369 8.711021,4.24178 15.435039,5.99996 26.212308,4.61875 6.541156,-0.83835 13.161557,-5.86846 14.089338,-11.03132 2.162456,-12.03139 -1.283421,-19.77433 -6.589658,-30.90047 -1.570144,-3.29234 -7.843133,-16.20939 -7.91864,-18.79572 -0.124297,-4.24969 -0.87877,-3.41092 1.450381,-7.70543 0.071,-0.13066 -0.01769,-0.12878 -0.0303,-0.24631 z"
   id="path3"
   style="fill:#006200;fill-opacity:0.489639;stroke-width:0.0235" /><path
   class="fil0"
   d="m -244.22372,-152.1287 c -1.73818,-3.59326 -9.9844,-10.70728 -14.74152,-13.02769 -13.96904,-6.81372 -32.98774,-10.28362 -49.29622,-8.32997 -7.01316,0.84003 -17.55298,5.46523 -20.17628,10.80293 -1.94328,3.95398 -4.06891,8.44313 -2.8846,12.79639 3.01128,11.06842 26.02151,14.35784 37.9121,14.99678 8.94714,0.48075 17.45039,0.66371 26.42748,0.38551 2.9323,-0.0909 16.68612,-2.47421 18.77865,-3.36091 5.78852,-2.45275 7.26513,-9.8137 4.05194,-13.7977 -0.0736,-0.0913 -0.0345,-0.38864 -0.0717,-0.46534 z"
   id="path4"
   style="fill:#006200;fill-opacity:0.489639;stroke-width:0.0235" /><path
   class="fil0"
   d="m -91.424206,-210.51599 c -2.934667,-1.70525 -12.169884,-5.32373 -15.950204,-5.5217 -5.45622,-0.28591 -8.73885,-0.25882 -13.44563,2.28791 -4.37341,2.36626 -6.40945,9.02933 -6.08641,12.94913 0.3811,4.62313 9.54235,10.3474 15.22648,10.30426 4.98131,-0.0377 4.1932,-0.19484 8.63259,-0.91004 8.223146,-1.32474 7.009416,-2.14579 10.817301,-7.05296 2.266074,-2.92036 3.81556,-7.58643 2.297059,-10.89232 -0.08559,-0.18589 -1.389692,-1.1053 -1.491186,-1.16428 z"
   id="path5"
   style="fill:#006200;fill-opacity:0.489639;stroke-width:0.0235" /><path
   class="fil0"
   d="m 118.83588,-243.93484 c -2.93467,-1.70525 -12.16988,-5.32374 -15.95021,-5.52171 -5.456212,-0.28591 -8.738852,-0.25882 -13.445632,2.28791 -4.37339,2.36627 -6.40945,9.02933 -6.08639,12.94914 0.38108,4.62313 9.54233,10.34739 15.22646,10.30426 4.981322,-0.0377 4.193202,-0.19485 8.632592,-0.91005 8.22315,-1.32473 7.00942,-2.14578 10.8173,-7.05295 2.26608,-2.92038 3.81556,-7.58643 2.29706,-10.89233 -0.0856,-0.18588 -1.38967,-1.1053 -1.49118,-1.16427 z"
   id="path6"
   style="fill:#006200;fill-opacity:0.489639;stroke-width:0.0235" /><path
   class="fil0"
   d="m -201.80124,-126.25647 c 2.37527,-0.54431 13.91364,-12.22706 22.98986,-14.56644 2.8602,-0.73708 7.75937,-1.47103 9.76389,-2.91914 3.18775,-2.3029 1.55133,-5.69716 -2.07951,-7.3847 -13.65791,-6.34818 -28.82343,-5.13035 -43.28615,-1.09968 -10.15372,2.82952 -15.39078,5.35688 -22.13652,11.94241 -5.30332,5.17724 -3.94939,11.11884 3.46709,14.63981 8.96249,4.25489 20.17705,5.70363 29.099,0.69539 0.23482,-0.1317 2.05515,-1.27847 2.18234,-1.30765 z"
   id="path7"
   style="fill:#006200;fill-opacity:0.489639;stroke-width:0.0235" /><path
   class="fil0"
   d="m -68.975506,-169.54466 c -6.244347,-1.54709 -16.731442,-2.12266 -21.959762,1.63002 -4.241686,3.04436 -3.901949,6.16813 -3.855304,10.52724 0.0878,8.20826 7.616014,16.54447 18.83666,16.70827 4.819135,0.0702 14.109729,0.39136 18.309283,-1.03778 9.979623,-3.39592 9.107222,-10.07148 6.907389,-17.10151 -1.922886,-6.13083 -10.285433,-8.75551 -18.238266,-10.72624 z"
   id="path8"
   style="fill:#006200;fill-opacity:0.489639;stroke-width:0.0235" /><path
   class="fil0"
   d="m -233.87417,-262.44257 c -9.37565,-2.32334 -25.12261,-3.18711 -32.9729,2.44754 -6.36889,4.57124 -5.8585,9.26147 -5.78881,15.80679 0.0858,8.05781 -4.00371,18.86178 4.06017,23.60077 4.27057,2.50901 18.39121,1.40205 24.22319,1.48687 7.23573,0.10502 20.83746,-0.21257 27.49176,-1.55835 67.6217,-13.68058 16.6432,-33.44428 -17.01341,-41.78362 z"
   id="path9"
   style="fill:#006200;fill-opacity:0.489639;stroke-width:0.0235" /><path
   class="fil0"
   d="m -14.901213,-197.38326 c -2.062797,-2.33543 -24.912455,-11.11947 -29.707484,-12.28021 -8.712348,-2.10911 -28.481035,-3.00935 -32.455063,5.36229 -1.755151,3.69746 -3.344912,16.59159 -1.107724,20.38241 1.618646,2.74262 1.301181,3.66953 4.132761,6.73599 8.285957,8.97326 29.487796,10.81856 41.283768,5.66488 10.051702,-4.39162 20.205408,-13.73186 19.046815,-23.34905 -0.07254,-0.60225 -1.034849,-2.3371 -1.193073,-2.51631 z"
   id="path10"
   style="fill:#006200;fill-opacity:0.489639;stroke-width:0.0235" /><path
   class="fil0"
   d="m -269.81726,-179.60969 c 4.37127,0.44074 31.73056,17.57747 48.25211,18.10513 7.19916,0.23006 19.28931,-0.15797 22.43862,-6.30338 2.87055,-5.60089 4.13464,-11.38101 3.20102,-17.43411 -1.12628,-7.30156 -10.34639,-14.82215 -17.69979,-18.86741 -15.31895,-8.42729 -28.93419,-8.8822 -46.99835,-11.75256 -7.63273,-1.21304 -14.8809,-2.08889 -22.57698,-3.42218 -7.78348,-1.34849 -30.2677,-2.71157 -36.26345,2.68115 -11.72206,10.54306 7.27495,20.73186 17.85427,25.08972 5.22726,2.15329 10.52474,3.88855 15.9017,6.04122 4.61429,1.84758 8.16724,3.03478 12.7712,5.09804 1.24208,0.55661 2.3506,0.41929 3.033,0.91359 z"
   id="path11"
   style="fill:#006200;fill-opacity:0.489639;stroke-width:0.0235" /><path
   class="fil0"
   d="m -192.66725,-92.594002 c -5.54606,-2.038683 -11.89272,-1.363702 -17.87283,-1.363702 -14.1593,0 -16.71052,0.851691 -25.06301,10.2657 -2.26339,2.551106 -3.48535,6.317137 -1.2251,9.116433 1.31364,1.6269 15.18592,1.252838 17.98359,0.869404 5.80577,-0.795638 10.26292,-1.472492 16.01064,-2.805766 4.99907,-1.159692 7.95575,-0.985889 12.78603,-1.269933 3.03908,-0.178581 6.16563,-1.351605 7.87361,-3.324017 4.12827,-4.764419 -5.07859,-9.497788 -10.49293,-11.488119 z"
   id="path12"
   style="fill:#006200;fill-opacity:0.489639;stroke-width:0.0235" /><path
   class="fil0"
   d="m -111.67759,-108.50665 c 0,-9.95978 -10.63629,-16.66786 -17.87521,-24.76985 -4.87504,-5.45626 -11.6412,-10.79126 -20.32625,-11.88425 -7.06745,-0.88963 -30.87722,-11.81572 -37.9945,-11.69797 -38.64324,0.64038 -38.53248,-1.59835 -51.6018,15.95995 -19.89297,26.7262 54.6756,45.399818 57.57981,50.856496 8.15638,15.324995 44.36341,11.020907 58.95704,5.41189 4.13806,-1.590439 9.3465,-6.26732 10.38878,-9.969369 1.27734,-4.536025 0.87213,-9.256267 0.87213,-13.906897 z"
   id="path13"
   style="fill:#006200;fill-opacity:0.489639;stroke-width:0.0235" /><path
   class="fil0"
   d="m -90.076116,-76.911619 c 0.184234,-0.05187 42.900048,-0.853371 44.263244,-0.762084 8.526035,0.571191 16.379253,-6.641382 24.718999,-6.517186 15.412237,0.229438 36.879081,0.718736 37.536571,-15.286029 0.223668,-5.439802 -0.766659,-7.985282 -5.632174,-12.174122 -13.611525,-11.71881 -45.548523,-26.52262 -66.506568,-26.15356 -5.380418,0.0946 -20.868184,1.74401 -25.648902,3.24026 -6.775153,2.12036 -20.009054,7.54371 -23.271004,12.66656 -4.27349,6.71161 -5.26066,8.57149 -2.96676,16.13854 1.56647,5.16661 4.12907,7.748976 7.08972,12.164762 3.890559,5.803243 0.43303,17.692922 10.416874,16.682859 z"
   id="path14"
   style="fill:#006200;fill-opacity:0.489639;stroke-width:0.0235" /><path
   class="fil0"
   d="m 91.516638,-213.95004 c -10.073953,-1.44518 -14.305067,-2.26395 -24.709998,-1.93511 -7.122321,0.22485 -14.245947,4.56832 -18.104989,9.07058 -2.207751,2.57612 -12.004512,15.81033 -14.715002,18.72321 -4.74918,5.10326 -27.905179,19.90352 -34.97581303,22.891 -5.63721697,2.38189 -17.88607697,13.55179 1.948851,15.66383 4.87852003,0.51931 41.93462403,-7.76148 47.11709603,-11.60752 6.345576,-4.70941 18.300812,-10.97153 26.983479,-11.99326 8.067066,-0.94943 27.023758,-5.27997 33.574738,-7.55204 11.80019,-4.09258 7.89294,-13.90315 5.17371,-21.34204 -3.11092,-8.50815 -11.43848,-10.36156 -22.292072,-11.91865 z"
   id="path15"
   style="fill:#006200;fill-opacity:0.489639;stroke-width:0.0235" /><path
   class="fil0"
   d="m -427.65376,-348.32149 c -10.73569,-2.39899 -20.13758,-0.44283 -29.86677,3.21982 -23.45068,8.82825 -36.30641,23.08085 -49.64736,39.94064 -7.88234,9.96145 -11.9608,30.07669 -4.52498,40.82608 8.67577,12.54172 14.24752,13.82166 30.71398,18.34435 3.26726,0.89753 10.18896,2.00011 13.40429,0.8619 8.57188,-3.03478 14.22925,-6.08415 17.53944,-13.31341 11.42894,-24.96072 58.12838,-54.8332 49.2496,-67.52123 -5.19784,-7.42806 -10.37261,-18.67173 -26.8682,-22.35815 z"
   id="path16"
   style="fill:#006200;fill-opacity:0.489639;stroke-width:0.0235" /><path
   class="fil0"
   d="m -288.1443,-443.09114 c -0.60581,-1.15554 -5.48512,-5.97246 -7.03381,-6.54658 -3.25561,-1.2072 -15.79413,0.25069 -19.18118,1.22409 -2.20751,0.63454 -2.78838,0.68059 -5.011,1.53166 -6.02596,2.30792 -10.57056,3.43781 -14.98903,7.82191 -3.37749,3.35112 0.54089,7.9432 5.05446,8.93909 3.34281,0.7377 5.97432,0.1588 9.40908,0.49305 4.34795,0.42325 11.83492,-0.4372 15.9844,-1.51937 2.85276,-0.74416 11.41673,-2.86411 12.89308,-5.12264 0.68903,-1.05424 1.14961,-1.80048 1.79646,-2.85515 0.56367,-0.91879 1.56409,-3.03811 1.07754,-3.96606 z"
   id="path17"
   style="fill:#006200;fill-opacity:0.489639;stroke-width:0.0235" /><path
   class="fil0"
   d="m -88.182645,-453.61985 c -1.237307,-1.39891 -9.371675,-8.91199 -12.686645,-9.11996 -7.65525,-0.47993 -35.257,2.92849 -41.23924,2.8912 -4.67445,-0.029 -11.63113,0.0749 -16.24755,1.06424 -12.51731,2.68261 -16.41132,4.09507 -25.62851,9.30024 -7.0452,3.97879 1.00544,9.56258 10.34188,10.83002 6.91455,0.9388 14.91642,1.82278 22.02786,2.27791 21.75253,1.39225 32.14821,-5.5336 37.8575,-6.59846 9.07673,-1.69359 21.754633,-3.11439 23.110154,-4.37243 1.180334,-1.09613 3.458328,-5.1489 2.464551,-6.27276 z"
   id="path18"
   style="fill:#006200;fill-opacity:0.489639;stroke-width:0.0235" /><path
   class="fil0"
   d="m 42.907824,-30.496737 c -6.089573,-3.024366 -14.864468,-2.293745 -21.440613,-0.848151 -6.985307,1.53542 -13.293506,2.849941 -20.091992,4.914871 -2.06016503,0.625801 -4.429834,0.534107 -6.764027,1.43685 -1.578107,0.610166 -10.929124,1.599805 -13.2694,1.599805 -5.395523,0 -6.708625,-0.07341 -11.932433,-0.609745 -2.660927,-0.272986 -13.044161,-0.457002 -14.167787,1.759433 -0.669411,1.319947 -1.310713,0.274869 -1.466548,3.099387 -0.126951,2.302494 6.286768,5.093879 8.587012,5.821992 9.347036,2.957889 15.8283,2.114325 25.91895,2.114325 14.06919,0 15.633008,-0.702272 29.028539,-3.671827 7.835193,-1.736926 15.049189,-4.795263 22.277781,-7.676255 3.483498,-1.388498 4.017753,-4.708564 3.591362,-7.435344 -0.01106,-0.07651 -0.128057,-0.434286 -0.270844,-0.505341 z"
   id="path19"
   style="fill:#006200;fill-opacity:0.489639;stroke-width:0.0235" /><path
   class="fil0"
   d="m -196.15686,-468.45907 c 5.72547,0 20.09492,-1.15802 17.81055,6.66722 -0.99033,3.39175 -8.35034,7.90048 -11.61072,10.54724 -7.01844,5.69717 -17.7867,7.60601 -27.54609,7.60601 -6.34931,0 -10.95776,0.10941 -17.37117,0.60913 -6.04242,0.47075 -13.39343,0.37781 -19.50318,0.37781 -8.71551,0 -17.87521,0.17004 -26.54355,0.0535 -4.44231,-0.0596 -7.97669,-2.12705 -10.19429,-5.09952 -3.94381,-5.28642 4.39118,-6.96334 9.01102,-8.5494 2.19109,-0.75229 11.12631,-3.01457 13.65631,-3.51471 12.06973,-2.38502 20.09464,-4.62146 33.00893,-5.48856 6.64029,-0.44575 14.57167,-0.97881 21.08259,-1.77215 3.58291,-0.43658 6.82474,-1.10321 10.50435,-1.13636 2.63655,-0.0237 4.78441,-0.30028 7.69525,-0.30028 z"
   id="path20"
   style="fill:#006200;fill-opacity:0.489639;stroke-width:0.0235" /><path
   class="fil0"
   d="m 3.622206,-399.64791 c 6.279336,0 22.038477,-1.15802 19.533098,6.66722 -1.085983,3.39175 -9.157826,7.90068 -12.73355,10.54724 -7.697117,5.69716 -18.6082377,8.25828 -29.31157,8.25828 -6.963301,0 -15.864881,9.01806 -22.923064,8.85552 -14.989826,-0.34551 -24.675007,-3.17836 -39.843715,-2.97684 -41.094005,0.54639 -49.168495,-1.42664 -46.857105,-14.28617 1.20974,-6.73079 0.87903,-8.11032 6.12588,-10.42075 9.7048,-4.27303 32.418507,-5.93931 34.216565,-6.26315 13.237086,-2.38419 21.830976,4.40057 35.993985,3.53388 7.282381,-0.44554 28.69913,-1.68546 35.83972,-2.4786 3.929263,-0.43657 7.4848616,-1.10321 11.520374,-1.13635 2.891473,-0.0237 5.24711997,-0.30028 8.439382,-0.30028 z"
   id="path21"
   style="fill:#006200;fill-opacity:0.489639;stroke-width:0.0235" /><path
   class="fil0"
   d="m 13.782834,-398.54053 c 2.660661,0 8.891495,1.35578 8.070759,5.8295 -0.619317,3.37591 -11.91892,8.36602 -15.252973,9.60969 -10.776494,4.01941 -23.187272,-0.042 -31.832053,-2.53902 -31.938568,-9.22459 18.747883,-11.9693 30.350399,-12.30126 2.548042,-0.0729 5.723075,-0.59891 8.663868,-0.59891 z"
   id="path22"
   style="fill:#006200;fill-opacity:0.489639;stroke-width:0.0235" /><path
   class="fil0"
   d="m -106.83007,-464.60282 c -3.26118,-0.41407 -12.62836,3.3282 -16.00957,3.26047 -3.18565,-0.0638 -6.94609,-0.60933 -10.08483,-1.00798 -4.47754,-0.56912 -9.21268,-1.04758 -13.64572,-1.69526 -2.27189,-0.33176 -3.72837,-2.01346 -4.35141,-4.24447 -1.10799,-3.96754 3.46523,-4.60042 6.11397,-5.41189 12.28226,-3.76582 14.87958,0.3924 25.1915,0.74873 5.05607,0.17464 12.55894,-4.51747 17.07781,-4.00066 26.419836,3.02249 11.8821,14.40558 -4.29175,12.35106 z"
   id="path23"
   style="fill:#006200;fill-opacity:0.489639;stroke-width:0.0235" /><path
   class="fil0"
   d="m 116.81521,-411.53948 c -14.98797,-2.26436 -25.007342,-2.89598 -27.643092,10.77918 -0.88884,4.60854 0.18489,7.18966 3.63166,11.02861 3.21028,3.57597 9.539162,6.9025 14.933892,7.74711 9.98175,1.56271 14.45769,1.63711 24.71743,1.52937 5.09767,-0.0533 13.13477,-2.58883 15.9518,-6.2965 2.04055,-2.68531 3.13845,-6.65681 2.20857,-9.73618 -2.01857,-6.68765 -25.38472,-13.77978 -33.80026,-15.05159 z"
   id="path24"
   style="fill:#006200;fill-opacity:0.489639;stroke-width:0.0235" /><path
   class="fil0"
   d="m 96.742808,-356.66729 c -29.155464,-5.44878 -47.281907,-9.03017 -54.92017,5.73988 -2.575069,4.97739 -2.577192,7.47307 3.534896,12.43421 5.693416,4.62126 11.843679,4.40641 22.331835,6.40049 13.317636,2.53173 15.147499,9.15915 25.609159,10.29717 4.78258,0.52014 23.910212,1.3987 30.264282,1.98783 10.06256,0.93276 26.36628,-0.33592 32.5836,-3.93107 4.50351,-2.60363 7.37751,-6.82831 6.09276,-10.45096 -2.78761,-7.86693 -49.12663,-19.41818 -65.496362,-22.47755 z"
   id="path25"
   style="fill:#006200;fill-opacity:0.489639;stroke-width:0.0235" /><path
   class="fil0"
   d="m 90.855698,-277.15385 c -5.87916,9.9477 -16.544336,22.64322 -6.16059,24.57729 12.88647,2.40044 27.066952,2.95622 38.458512,2.04597 9.27286,-0.74145 16.69834,-2.45504 20.07346,-4.93738 8.95986,-6.58929 17.74563,-11.03361 -1.53757,-17.80795 -16.36467,-5.74886 -38.67928,-24.35681 -50.833812,-3.87793 z"
   id="path26"
   style="fill:#006200;fill-opacity:0.489639;stroke-width:0.0235" /><path
   class="fil0"
   d="m -55.849734,-346.81922 c -20.848058,-2.36271 -34.78501,-3.02185 -38.45137,11.24764 -1.236532,4.80903 0.257574,7.50225 5.05154,11.50793 4.46562,3.73121 8.982661,8.5619 16.486852,9.44298 13.884226,1.63022 32.831647,14.86465 47.10303,14.75295 7.089986,-0.0554 15.2286,-12.48818 17.2111132,-18.20494 1.1986248,-3.45574 0.9087168,-9.82745 -0.3847895,-13.04082 -2.8080037,-6.97815 -35.3102427,-14.3785 -47.0163757,-15.70574 z"
   id="path27"
   style="fill:#006200;fill-opacity:0.489639;stroke-width:0.0235" /><path
   class="fil0"
   d="m 62.651343,-331.20247 c 13.790671,8.15659 8.664907,15.31623 0.442293,23.51533 -5.418857,5.40356 -10.025206,12.7443 -19.107768,15.85014 -19.281586,6.59303 -40.622828,4.79714 -51.782785,-1.58877 -5.732607,-3.27984 -3.185384,-17.11964 -0.5806345,-22.6801 1.5738815,-3.36134 6.5128025,-8.41791 9.9374915,-10.4443 3.794084,-2.24582 16.370495,2.71303 31.278179,1.87677 14.312984,-0.80273 19.813187,-8.67924 29.813224,-6.52907 z"
   id="path28"
   style="fill:#006200;fill-opacity:0.489639;stroke-width:0.0235" /><path
   class="fil0"
   d="m -162.43717,-367.53608 c -34.32629,-2.26436 -62.30168,-1.81758 -68.33802,11.85759 -2.03577,4.60855 0.42347,7.18967 8.31723,11.02862 7.35236,3.57575 22.03104,8.02948 34.34086,9.215 18.78207,1.80883 29.39001,7.26093 52.81208,5.77511 8.39937,-0.53285 25.00547,-8.7157 33.75756,-11.35391 5.40402,-1.62879 21.668,-7.24114 19.538145,-10.32052 7.014988,-6.92854 0.09355,-12.01701 -19.593525,-15.31394 -11.15783,-1.86863 -53.86201,-0.42783 -60.83433,-0.88795 z"
   id="path29"
   style="fill:#006200;fill-opacity:0.489639;stroke-width:0.0235" /><path
   class="fil0"
   d="m 178.1361,-446.10717 c -5.47979,1.49894 -11.41965,2.26602 -16.4211,4.56164 -24.87775,11.41915 -9.98413,26.20711 2.85648,37.77671 8.71793,7.85463 19.44592,11.4656 32.01704,16.81164 8.38982,3.56804 23.81586,6.83206 33.38232,8.14847 9.71196,1.33597 19.00574,-0.30926 28.72668,1.10175 28.16809,4.08715 38.58655,0.82564 34.61701,-18.55482 -2.8981,-14.14884 -14.76775,-18.38062 -29.49177,-26.69642 -17.21138,-9.72034 -34.50782,-15.84971 -55.53158,-22.30687 -11.10269,-3.4101 -18.48816,-4.03318 -30.15508,-0.8421 z"
   id="path30"
   style="fill:#006200;fill-opacity:0.489639;stroke-width:0.0235" /><path
   class="fil0"
   d="m 262.62732,-347.32372 c 8.84697,-1.68984 18.01114,-4.53477 26.80858,-6.29817 6.73514,-1.34974 23.02057,-8.11053 15.04016,-14.90508 -2.59785,-2.21164 -3.53994,-3.58534 -7.73949,-4.5602 -11.12658,-2.58277 -27.77029,-2.80159 -39.53236,-1.65253 -13.31737,1.30056 -23.72256,1.81757 -34.76512,8.49084 -5.91176,3.57264 -7.78112,7.24614 -7.83809,12.96789 -0.077,7.77253 4.91216,10.73499 14.58329,10.62538 2.51783,-0.0285 19.02773,-2.25977 22.19005,-2.93329 3.88872,-0.82814 7.56408,-1.02986 11.25298,-1.73484 z"
   id="path31"
   style="fill:#006200;fill-opacity:0.489639;stroke-width:0.0235" /><path
   class="fil0"
   d="m 347.68192,-274.76424 c 5.10166,0.71686 20.88968,0.38197 26.66601,-1.05445 5.47796,-1.36205 10.80722,-0.97881 15.35712,-3.59327 4.74284,-2.72532 9.62186,-5.52942 13.59403,-8.92368 3.18223,-2.71907 8.71686,-5.46585 11.57443,-9.26333 4.36678,-5.80345 7.2437,-8.65319 -6.71791,-9.59032 -7.36771,-0.4943 -21.39979,-0.0158 -29.21775,-0.0158 -9.26888,0 -26.04643,-1.23992 -33.96616,2.4938 -7.27176,3.42802 -15.13343,8.44896 -14.6074,15.81804 0.29283,4.10237 11.97565,12.81598 16.54938,13.85022 0.12164,0.0275 0.61589,0.25736 0.76825,0.27882 z"
   id="path32"
   style="fill:#006200;fill-opacity:0.489639;stroke-width:0.0235" /><path
   class="fil0"
   d="m 331.7333,-358.61908 c -8.33921,-1.21137 -32.14739,3.47907 -41.09692,5.05116 -6.67021,1.17157 -19.34758,4.09403 -24.36601,7.77524 -2.47966,1.81882 -15.19574,13.70768 -11.37118,16.50656 4.6514,3.40384 17.65447,9.89477 23.81057,9.89477 7.53441,0 45.41918,-8.09053 51.75364,-11.19575 10.57746,-5.18515 30.25551,-2.97642 34.5722,-15.18724 3.16313,-8.94785 -18.74205,-11.29578 -26.23403,-12.10579 -1.58686,-0.1715 -5.48908,-0.31175 -6.8197,-0.65059 z"
   id="path33"
   style="fill:#006200;fill-opacity:0.489639;stroke-width:0.0235" /><path
   class="fil0"
   d="m 221.11882,-266.34133 c 12.25098,-2.56633 47.23715,-13.24235 58.58711,-19.11227 7.80336,-4.03547 11.55826,-6.21044 11.08655,-13.95941 -0.18158,-2.98269 -18.04696,-16.59472 -21.44937,-19.26961 -4.03259,-3.17044 -19.88662,-10.66123 -25.2803,-11.16532 -11.60144,-1.08383 -18.52818,1.05467 -29.17801,1.72027 -4.91718,0.30737 -28.16275,7.52328 -29.78883,11.74276 -1.59162,4.13008 -12.85309,9.08892 -12.58119,19.50383 0.38665,14.80839 -8.19346,12.9781 9.88528,29.11436 2.33127,2.08097 4.20778,3.95816 7.59217,4.13987 7.47026,1.5298 23.76897,-1.17324 31.12659,-2.71448 z"
   id="path34"
   style="fill:#006200;fill-opacity:0.489639;stroke-width:0.0235" /><path
   class="fil0"
   d="m -67.037514,-419.74752 c -2.887779,0.54431 -12.869503,-0.16339 -17.953931,0.27778 -6.25043,0.54223 -11.042538,0.58953 -17.369055,1.62001 -7.82696,1.27494 -14.9058,3.63766 -20.13279,8.55879 -1.65682,1.5598 -1.95732,8.48167 -0.15615,10.40011 4.42429,4.71211 17.39316,0.0113 23.147508,-1.32619 17.271006,-4.01485 13.215079,-0.9113 31.583215,-0.48805 4.819136,0.11086 19.308369,-1.9372 24.659371,-1.50208 4.702801,0.38218 20.117958,2.71157 22.991427,-0.79897 4.16326,-5.08637 -7.206321,-9.48548 -11.503388,-11.51499 -4.1198,-1.94573 -28.960972,-6.06977 -35.266273,-5.22641 z"
   id="path35"
   style="fill:#006200;fill-opacity:0.489639;stroke-width:0.0235" /><path
   class="fil0"
   d="m 107.80314,-461.54512 c -12.402312,0.28363 -26.361251,4.18947 -38.927864,6.17793 -10.014855,1.5848 -19.013948,0.84793 -26.607448,4.10611 -3.509462,1.50562 -14.264481,6.15729 -12.157428,8.65048 8.370222,9.9033 30.201198,7.69104 50.631866,7.63853 5.245522,-0.0136 20.287314,-0.55203 25.647574,-0.89941 13.50555,-0.87524 29.01503,-0.40886 41.56149,-2.94809 13.18965,-2.66948 17.06404,-3.4301 24.83377,-9.22667 3.38943,-2.52861 -10.12854,-5.12973 -22.72087,-6.79101 -15.83173,-2.08849 -33.30626,-6.91271 -42.26109,-6.70787 z"
   id="path36"
   style="fill:#006200;fill-opacity:0.489639;stroke-width:0.0235" /><path
   class="fil0"
   d="m 33.470153,-474.90645 c -3.169482,0.52202 -23.480099,3.23817 -30.059937,5.48753 -5.480608,1.87342 -9.616287,2.2802 -14.540921,5.74511 -6.872931,4.83568 -2.296263,9.18582 3.545004,12.86202 11.291133,7.10609 26.576176,2.23269 38.561623,-0.8769 13.372751,-3.46949 13.118606,-2.5434 26.026526,-2.93079 6.306894,-0.18943 15.231785,-1.92678 14.348526,-8.31726 -0.801649,-5.79907 -10.203557,-9.65908 -16.616435,-10.7227 -3.367185,-0.55849 -5.046519,-0.75229 -8.385615,-0.84628 -4.983177,-0.14045 -7.637203,-1.22325 -12.878771,-0.40073 z"
   id="path37"
   style="fill:#006200;fill-opacity:0.489639;stroke-width:0.0235" /><path
   class="fil0"
   d="m 314.8585,-181.98325 c 7.52644,-0.31445 29.17084,-3.33236 24.72773,-12.5532 -2.07976,-4.31596 -24.89469,-6.03934 -33.71623,-12.15871 -6.32994,-4.39119 -10.2356,-6.17689 -16.6485,-11.27639 -4.73777,-3.76748 -14.06309,0.31592 -17.08549,4.27575 -4.64504,6.08477 -25.53761,23.49304 -33.21458,27.93361 -10.00771,5.78887 3.37249,13.7727 11.48299,14.01547 8.09489,0.24235 14.70415,1.38538 23.4907,-0.0557 8.87906,-1.45643 17.72628,-1.8132 26.05331,-5.80783 0.063,-0.0302 12.68347,-4.28012 14.91007,-4.37306 z"
   id="path38"
   style="fill:#006200;fill-opacity:0.489639;stroke-width:0.0235" /><path
   class="fil0"
   d="m 387.841,-196.57783 c -31.00285,0.13066 -23.65288,0.48826 -49.95423,11.83592 -10.64399,4.59228 -61.74201,4.51477 -33.86811,27.55851 13.66083,11.29349 6.75131,18.19453 10.48977,30.00439 2.59122,8.18597 6.6429,19.0089 18.18023,22.38795 6.09197,1.78423 29.12712,-8.20368 34.17337,-12.40462 16.01355,-13.33048 25.74697,-30.19632 38.21207,-45.58944 19.75042,-24.38995 21.29327,-33.95505 -17.2331,-33.79271 z"
   id="path39"
   style="fill:#006200;fill-opacity:0.489639;stroke-width:0.0235" /><path
   class="fil0"
   d="m 215.48081,-68.06756 c -2.06652,-1.729005 -2.47119,-2.325001 -5.54975,-3.440517 -6.85203,-2.483168 -17.69978,-2.262695 -25.19869,-2.262695 -7.0791,0 -14.6074,-0.337806 -21.56807,-0.123784 -5.52537,0.169838 -14.62517,5.197867 -22.81573,5.9016 -5.91361,0.508262 -14.41793,-0.138371 -19.51083,2.37648 -10.69911,5.282474 -14.95855,11.475611 -14.95855,20.594333 0,4.701065 0.8883,5.978918 5.4223,9.169162 1.90009,1.336817 9.23997,3.025607 12.02095,3.202938 11.7085,0.746243 17.77742,-3.718498 28.83774,-5.302682 7.07833,-1.013607 14.25362,-1.335572 21.39556,-1.855294 6.46854,-0.470536 32.17628,-4.636679 35.89618,-8.505438 3.93667,-4.094021 20.61035,-7.555379 6.02889,-19.754103 z"
   id="path40"
   style="fill:#006200;fill-opacity:0.489639;stroke-width:0.0235" /><path
   class="fil0"
   d="m 334.4846,-99.422729 c -4.04478,-4.125911 -8.35406,-8.093861 -14.99883,-8.093861 -16.73912,0 -19.34442,6.20855 -31.86941,9.504028 -8.64504,2.274791 -42.83033,-1.475389 -51.55622,5.714053 -10.39327,8.563579 -16.31644,34.751721 3.98175,34.751721 6.82231,0 25.66242,-4.710446 32.69304,-6.551995 9.44033,-2.472739 17.74086,-4.450786 26.90612,-8.073227 7.24075,-2.861603 31.49017,-11.638366 33.34071,-17.493486 0.46693,-1.47707 2.58115,-8.657558 1.50284,-9.757233 z"
   id="path41"
   style="fill:#006200;fill-opacity:0.489639;stroke-width:0.0235" /><path
   class="fil0"
   d="m 299.51754,-232.76702 c 5.49357,-2.89807 11.95259,-8.70403 7.91362,-14.45829 -5.18961,-7.39472 -23.78593,-10.57787 -33.44857,-12.48672 -9.68388,-1.91282 -42.37506,-5.05075 -53.72609,-5.05075 -7.17531,0 -26.08882,-0.3551 -24.28121,8.86177 1.14932,5.86055 14.69697,11.22096 21.54527,13.12669 5.43476,1.5125 12.92145,2.11266 18.95193,3.90335 2.94371,0.87399 6.52077,1.59064 9.77319,2.53527 9.50366,2.76096 22.26026,5.25413 32.22902,6.71495 8.33656,1.22221 14.06072,0.53702 21.04284,-3.14627 z"
   id="path42"
   style="fill:#006200;fill-opacity:0.489639;stroke-width:0.0235" /><path
   class="fil0"
   d="m 363.51314,-234.50562 c -7.14723,-1.50228 -13.02532,-3.41447 -21.81824,-2.47046 -9.88474,1.06112 -27.79811,-2.09619 -35.93221,2.17955 -2.61749,1.376 -5.14087,1.74298 -7.94173,3.18316 -3.23599,1.66378 -5.6046,3.2663 -6.96304,6.20188 -2.15847,4.66398 1.87731,9.78599 6.79663,12.46485 12.00345,6.53635 16.92355,8.17617 31.01448,10.89461 6.90686,1.33224 19.16766,1.67004 25.57871,-0.50367 5.07195,-1.71984 5.31707,-1.74318 9.50127,-4.53061 7.364,-4.90591 8.16881,-5.35624 11.25931,-12.54881 4.08906,-9.51529 -2.0029,-12.87558 -11.49518,-14.8705 z"
   id="path43"
   style="fill:#006200;fill-opacity:0.489639;stroke-width:0.0235" /><path
   class="fil0"
   d="m 408.02946,-246.91231 c 12.1728,1.14718 43.0132,0.14796 54.59982,-3.10793 17.48458,-4.91342 21.46604,-20.00876 12.09833,-31.609 -4.89546,-6.06226 -22.46487,-14.86736 -31.11096,-18.8822 -12.3024,-5.71301 -20.53377,-2.69051 -29.20691,4.68232 -6.80693,5.78635 -8.62357,6.53615 -14.8703,13.42092 -8.70837,9.5974 -16.00082,16.12709 -4.44521,27.9155 2.48523,2.53548 12.91615,7.57851 12.93523,7.58039 z"
   id="path44"
   style="fill:#006200;fill-opacity:0.489639;stroke-width:0.0235" /><path
   class="fil0"
   d="m -53.696567,-38.922783 c -11.866724,-6.169999 -12.371564,-7.10984 -25.714899,-10.747916 -7.389427,-2.014715 -15.42867,-2.653632 -23.093184,-1.244711 -2.86737,0.527024 -8.1092,4.469764 -8.13729,6.911045 -0.0504,4.403066 0.86736,4.885076 3.42732,8.796963 4.68666,7.161739 18.778626,13.897933 28.526353,16.378621 7.292998,1.856122 9.759406,2.95809 17.889262,2.95809 7.111727,0 8.819946,0.30883 14.161947,-3.494079 5.158365,-3.672449 3.933753,-5.54254 4.035513,-10.564732 0.0825,-4.057985 -7.1292,-6.931679 -11.095022,-8.993281 z"
   id="path45"
   style="fill:#006200;fill-opacity:0.489639;stroke-width:0.0235" /><path
   class="fil0"
   d="m -34.17247,-77.691833 c -0.05352,-0.01067 -42.271442,0.06026 -44.125699,0.21714 -6.04691,0.512011 -15.337239,1.603349 -20.187139,4.594994 -3.202592,1.975539 -1.518212,0.487838 -3.660252,2.997904 -1.34836,1.580004 -1.88102,2.16954 -1.53943,4.164458 0.50033,2.919546 5.676964,4.813595 9.05262,5.115558 3.447469,0.308194 4.769328,0.494719 8.422174,0.494719 14.120081,0 28.817323,0.837717 42.585214,-1.79779 3.845506,-0.736037 14.323865,-2.769075 16.690372,-5.404591 2.367833,-2.636959 3.676688,-3.599728 2.751827,-6.911654 -0.297605,-1.065923 -7.936157,-3.063131 -9.989687,-3.470738 z"
   id="path46"
   style="fill:#006200;fill-opacity:0.489639;stroke-width:0.0235" /><path
   class="fil0"
   d="m 116.44924,-81.042121 c -0.0403,-3.948151 -0.39381,-5.943903 -4.29815,-8.739665 -3.40082,-2.435233 -13.129752,-4.692938 -17.925292,-6.873525 -3.09158,-1.405795 -14.397004,-6.670149 -17.389462,-7.092969 -5.067198,-0.71602 -9.635639,-3.0004 -15.310477,-0.32279 -5.894016,2.78096 -8.362548,7.587894 -12.637365,11.534787 -6.140199,5.66925 -4.12033,10.553914 -4.29815,17.013367 -0.05773,2.096402 3.256136,4.321174 5.439005,5.086174 8.54353,2.993513 16.189756,2.733657 25.406701,2.914125 3.649661,0.07165 24.089858,0.467836 26.56689,-0.05435 8.8997,-1.876344 14.52845,-5.393337 14.4463,-13.465118 z"
   id="path47"
   style="fill:#006200;fill-opacity:0.489639;stroke-width:0.0235" /><path
   class="fil0"
   d="m 390.7998,-257.62855 c -2.41579,-5.56964 -13.06482,-11.13177 -20.33845,-11.64087 -15.6025,-1.09196 -27.37702,-1.0034 -42.33319,3.74873 -3.70955,1.17864 -14.22263,5.9937 -15.54686,9.56134 -2.34001,6.30379 -2.27852,11.90948 5.1692,16.125 8.89099,5.0324 28.61144,-0.91025 40.86877,3.63285 4.38772,1.62628 14.09358,1.77674 17.88581,-0.69497 2.72852,-1.7784 13.18356,-11.86052 13.73449,-14.41558 0.15969,-0.74041 0.80617,-5.74968 0.56023,-6.3165 z"
   id="path48"
   style="fill:#006200;fill-opacity:0.489639;stroke-width:0.0235" /><path
   class="fil0"
   d="m 60.721026,-59.786138 c -11.189904,-1.423728 -19.171886,-1.568975 -29.876279,1.847584 -4.398583,1.403922 -6.644508,1.478722 -10.962277,3.687654 -6.13436,3.137941 -10.605553,6.526567 -10.774349,12.47318 -0.109699,3.86625 -1.447992,6.724117 4.177017,8.886158 5.46497,2.100783 12.069204,1.115721 17.717545,0.233402 4.458476,-0.696233 16.212293,0.34613 21.486705,-0.06791 4.925673,-0.38657 16.439677,-2.566741 18.975797,-6.241077 3.150395,-4.564567 2.800042,-6.852896 2.060166,-11.708382 -0.968078,-6.351937 -4.937882,-8.110325 -12.804325,-9.110596 z"
   id="path49"
   style="fill:#006200;fill-opacity:0.489639;stroke-width:0.0235" /><path
   class="fil0"
   d="m -399.9007,-246.77582 c 1.36001,0.22923 2.73725,0.75812 4.68241,1.08425 11.0261,1.84801 33.49309,0.0231 42.66709,-5.01824 7.0118,-3.85312 9.89799,-8.45625 13.14563,-14.58728 6.7293,-12.70304 2.94528,-21.04384 -7.91468,-31.25327 -6.94475,-6.52865 -19.06535,-13.57118 -28.88091,-17.14299 -8.71662,-3.17189 -14.25869,-0.75458 -22.16384,1.89448 -7.82086,2.62071 -14.87057,10.03813 -17.76974,16.18043 -5.02,10.63622 -5.63429,14.12633 -2.7982,25.29831 2.04665,8.0624 5.32453,11.18825 11.38415,17.35596 0.027,0.0275 7.3897,6.1448 7.64809,6.18835 z"
   id="path50"
   style="fill:#006200;fill-opacity:0.489639;stroke-width:0.0235" /><path
   class="fil0"
   d="m -330.15047,-271.28038 c 1.05444,0.71332 1.94168,1.69608 3.45091,2.71469 8.55546,5.77324 29.39159,12.62863 40.51523,11.65608 8.50195,-0.74333 13.83838,-3.69829 20.42193,-7.85838 13.64148,-8.61963 15.71223,-25.14266 12.39331,-38.1937 -2.16538,-8.5148 10.12057,-22.94643 6.84774,-28.03761 -7.74241,-12.0441 -34.39093,-6.03703 -54.89368,7.99593 -10.88144,7.44784 -19.0166,11.60502 -23.32773,22.48089 -3.11116,7.849 -9.92024,13.2338 -8.35512,20.92984 0.007,0.0344 2.74707,8.17681 2.94741,8.31226 z"
   id="path51"
   style="fill:#006200;fill-opacity:0.489639;stroke-width:0.0235" /><path
   class="fil0"
   d="m -224.07398,-262.52676 c 11.02587,1.84759 17.487,-3.50137 26.66073,-8.54253 7.01154,-3.85291 15.38601,-10.54244 18.63338,-16.67306 6.7288,-12.70282 17.94546,-19.31815 7.08577,-29.52718 -6.94424,-6.52843 -16.13865,-10.55056 -25.95394,-14.12216 -8.71633,-3.17169 -21.66747,0.10878 -29.57262,2.75763 -7.82059,2.6207 -15.26595,9.93143 -17.76972,16.18043 -4.02677,10.05002 -4.67632,13.56181 -2.79822,25.29832 1.30516,8.15679 -0.52497,11.68984 5.53043,17.85942 5.55452,5.65924 9.84418,5.37146 18.18419,6.76913 z"
   id="path52"
   style="fill:#006200;fill-opacity:0.489639;stroke-width:0.0235" /><path
   class="fil0"
   d="m -341.06794,-332.49511 c 2.27428,0.22923 4.57746,0.75832 7.83015,1.08425 18.43833,1.848 44.34459,-3.44197 58.70448,-10.03189 10.36627,-4.75712 19.69528,-12.42192 28.22344,-15.71615 18.20357,-7.03148 34.03293,-14.52477 44.1673,-26.87082 7.74164,-9.43152 0.56872,-20.48535 -15.84526,-24.05674 -14.57589,-3.17169 -109.05146,3.26819 -122.27052,5.91703 -13.07887,2.62049 -23.10989,14.6894 -27.95767,20.83169 -8.39486,10.63601 -9.42203,14.12633 -4.67949,25.29832 3.42284,8.06239 8.90424,11.18824 19.03755,17.35596 0.0453,0.0275 12.35779,6.1448 12.79002,6.18835 z"
   id="path53"
   style="fill:#006200;fill-opacity:0.489639;stroke-width:0.0235" /><path
   class="fil0"
   d="m -6.414634,-44.286948 c -3.3372383,0.423037 -5.725729,0.378032 -9.345201,0.967348 -2.714714,0.441794 -4.902074,0.761049 -7.5956,1.336616 -3.458881,0.738945 -13.807105,2.498803 -16.020983,4.153837 -2.810392,2.101195 -2.399349,4.737531 -2.848809,7.496405 -0.674963,4.144039 5.68625,5.156186 9.511343,5.64195 4.91216,0.623713 6.787605,1.00027 12.053568,1.00027 4.305559,0 5.639583,-0.156084 9.854773,-0.534944 2.0320772,-0.182547 14.443651,-3.613477 15.647318,-4.572061 4.026246,-3.206707 3.181137,-3.696844 3.181137,-8.163677 0,-4.622505 -4.937062,-6.0581 -9.876536,-6.988569 -0.209005,-0.03932 -4.516223,-0.342797 -4.56101,-0.337175 z"
   id="path54"
   style="fill:#006200;fill-opacity:0.489639;stroke-width:0.0235" />
 <path
   class="fil0"
   d="m 462.15076,132.19082 c 2.82309,3.95057 11.73383,4.78754 14.98123,1.34333 1.77029,-1.87753 3.35631,-2.92043 4.23379,-6.77007 2.16085,-9.47995 0.95703,-7.18767 1.30084,-16.39764 0.54746,-14.667727 4.07564,-21.01379 -0.2264,-38.299764 -1.9685,-7.908942 -4.42238,-14.984398 -7.53931,-22.025646 C 468.95826,36.616019 468.094,25.81738 459.39482,13.840684 456.48507,9.83473 454.15169,5.021958 450.35594,2.236665 445.7851,-1.117621 439.75945,-5.898781 434.84765,-7.39728 c -1.72207,-0.525507 -5.02525,-2.841847 -7.46152,-3.470303 -4.8889,-1.261277 -19.77525,-0.205912 -24.02378,4.223753 -5.0949,5.312171 -9.06089,12.149828 -11.02764,21.023363 -3.39557,15.319669 0.94536,20.583417 9.89383,29.583397 11.69728,11.764099 21.56682,19.529216 30.59836,36.803287 2.30263,4.404146 8.25709,18.463129 10.01498,24.241643 0.92085,3.02716 4.26277,10.32129 5.94595,12.47667 2.1599,2.76643 6.07181,8.65777 8.59534,10.44194 0.3524,0.24912 4.69369,4.16081 4.76759,4.26435 z"
   id="path55"
   style="fill:#006200;fill-opacity:0.489639;stroke-width:0.023749" /><path
   class="fil0"
   d="m 228.04316,225.22784 c -6.01114,-1.25837 -10.57613,-4.84025 -17.05581,-5.87671 -3.99736,-0.63944 -3.42732,-0.66732 -7.73686,-0.92656 -11.98306,-0.7207 -24.09015,-3.04078 -34.28547,4.82 -8.62862,6.65288 -3.80046,6.44754 -9.23628,14.62646 -1.391,2.09317 -0.60049,9.2906 0.30875,11.87281 1.97668,5.61459 0.83635,6.94816 4.71207,13.45932 6.09464,10.23791 21.20715,28.48018 33.24322,32.21455 6.82523,2.11763 8.26501,3.69152 16.12747,4.44586 6.61934,0.63498 7.68228,0.58685 14.11135,-1.04855 0.51941,-0.132 7.49174,-3.32106 8.03657,-3.68627 5.66134,-3.79668 10.19243,-6.01633 15.87018,-10.45299 6.11265,-4.77636 8.75528,-5.46707 14.3114,-11.7537 3.38122,-3.82562 18.5661,-14.28255 20.00005,-19.63657 1.34703,-5.0285 3.43661,-7.57681 -0.47436,-11.65983 -0.92938,-0.96995 -57.8207,-16.37441 -57.93228,-16.39782 z"
   id="path56"
   style="fill:#006200;fill-opacity:0.489639;stroke-width:0.0263966" /><path
   class="fil0"
   d="m -62.134326,177.17342 c -0.7248,-8.9338 -7.2408,-17.56022 -15.4809,-21.08031 -3.3704,-1.4398 -15.7626,-0.7709 -18.9387,0.46539 -9.560604,3.72202 -8.467504,14.66406 -13.211904,23.53369 -5.1504,9.62924 -9.316,17.92227 -20.6218,20.87627 -16.3922,4.28285 -20.6482,1.75585 -34.3421,13.70858 -7.5853,6.62081 -8.6599,21.23071 -5.7697,30.20709 4.5239,14.05117 9.5015,22.67182 23.5585,27.75185 6.6132,2.38976 21.4565,0.37206 25.4748,-5.04927 1.1605,-1.56574 7.4321,-9.36526 8.7206,-10.24792 5.9676,-4.08827 17.038604,-3.24585 23.397604,0.66075 8.7111,5.35191 15.4351,7.57024 26.2124,5.82755 6.5411,-1.05776 13.1615,-7.40433 14.0893,-13.91839 2.1625,-15.18019 -1.2834,-24.94957 -6.5897,-38.98759 -1.5701,-4.15401 -7.8431,-20.45165 -7.9186,-23.71486 -0.1243,-5.3619 -0.8788,-4.30361 1.4504,-9.72205 0.071,-0.16486 -0.018,-0.16249 -0.03,-0.31078 z"
   id="path57"
   style="fill:#006200;fill-opacity:0.489639;stroke-width:0.0263966" /><path
   class="fil0"
   d="m -235.99743,337.1571 c -1.7381,-4.53366 -9.9844,-13.50953 -14.7415,-16.43723 -13.969,-8.59698 -32.9877,-12.975 -49.2962,-10.51006 -7.0132,1.05988 -17.553,6.89557 -20.1763,13.63023 -1.9433,4.9888 -4.0689,10.65283 -2.8846,16.1454 3.0113,13.96519 26.0215,18.11551 37.9121,18.92166 8.9472,0.60658 17.4504,0.83743 26.4275,0.48642 2.9323,-0.1147 16.6861,-3.12176 18.7786,-4.24052 5.7886,-3.09467 7.2652,-12.3821 4.052,-17.40877 -0.074,-0.11522 -0.034,-0.49036 -0.072,-0.58713 z"
   id="path58"
   style="fill:#006200;fill-opacity:0.489639;stroke-width:0.0263966" /><path
   class="fil0"
   d="m -83.197926,263.48897 c -2.9346,-2.15155 -12.1698,-6.71704 -15.9502,-6.96683 -5.456204,-0.36073 -8.738804,-0.32656 -13.445604,2.8867 -4.3734,2.98555 -6.4094,11.39243 -6.0864,16.33812 0.3811,5.83307 9.5424,13.05546 15.2265,13.00103 4.981304,-0.0475 4.193204,-0.24582 8.632604,-1.1482 8.2231,-1.67144 7.0094,-2.70738 10.8173,-8.89883 2.266,-3.68467 3.8155,-9.57191 2.297,-13.74301 -0.086,-0.23454 -1.3897,-1.39458 -1.4912,-1.46898 z"
   id="path59"
   style="fill:#006200;fill-opacity:0.489639;stroke-width:0.0263966" /><path
   class="fil0"
   d="m 127.0622,221.32388 c -2.93467,-2.15154 -12.16988,-6.71704 -15.95021,-6.96682 -5.45621,-0.36074 -8.73885,-0.32656 -13.445626,2.88669 -4.37339,2.98556 -6.40945,11.39245 -6.08639,16.33813 0.38108,5.83307 9.542326,13.05545 15.226456,13.00103 4.98132,-0.0476 4.1932,-0.24584 8.63259,-1.14821 8.22315,-1.67143 7.00942,-2.70737 10.8173,-8.89882 2.26608,-3.68469 3.81556,-9.57192 2.29706,-13.74302 -0.0856,-0.23453 -1.38967,-1.39457 -1.49118,-1.46898 z"
   id="path60"
   style="fill:#006200;fill-opacity:0.489639;stroke-width:0.0263966" /><path
   class="fil0"
   d="m -193.57493,369.8005 c 2.3753,-0.68677 13.9137,-15.42708 22.9899,-18.37871 2.8602,-0.92998 7.7593,-1.85603 9.7639,-3.68312 3.1877,-2.90561 1.5513,-7.1882 -2.0795,-9.31739 -13.658,-8.0096 -28.8235,-6.47304 -43.2862,-1.38748 -10.1537,3.57005 -15.3908,6.75885 -22.1365,15.06791 -5.3033,6.53221 -3.9494,14.02882 3.4671,18.47128 8.9625,5.36847 20.177,7.19636 29.099,0.87739 0.2348,-0.16618 2.0551,-1.61307 2.1823,-1.64988 z"
   id="path61"
   style="fill:#006200;fill-opacity:0.489639;stroke-width:0.0263966" /><path
   class="fil0"
   d="m -60.749226,315.18311 c -6.2443,-1.95198 -16.7314,-2.67819 -21.9597,2.05663 -4.2417,3.84112 -3.902,7.78242 -3.8553,13.28237 0.088,10.3565 7.616,20.87443 18.8366,21.0811 4.8192,0.0886 14.1098,0.49377 18.3093,-1.30939 9.9796,-4.28469 9.1072,-12.70734 6.9074,-21.57724 -1.9229,-7.73537 -10.2854,-11.04696 -18.2383,-13.53347 z"
   id="path62"
   style="fill:#006200;fill-opacity:0.489639;stroke-width:0.0263966" /><path
   class="fil0"
   d="m -225.64783,197.97239 c -9.3757,-2.93139 -25.1226,-4.02123 -32.9729,3.0881 -6.3689,5.7676 -5.8585,11.68534 -5.7888,19.94367 0.086,10.16666 -4.0037,23.79821 4.0601,29.77746 4.2706,3.16566 18.3913,1.76899 24.2232,1.876 7.2358,0.13251 20.8375,-0.26819 27.4918,-1.96618 67.6217,-17.26101 16.6432,-42.19717 -17.0134,-52.71905 z"
   id="path63"
   style="fill:#006200;fill-opacity:0.489639;stroke-width:0.0263966" /><path
   class="fil0"
   d="m -6.6749262,280.05873 c -2.0628,-2.94665 -24.9123998,-14.02961 -29.7073998,-15.49413 -8.7124,-2.6611 -28.4811,-3.79694 -32.4551,6.76568 -1.7552,4.66515 -3.3449,20.93386 -1.1077,25.7168 1.6186,3.4604 1.3011,4.62991 4.1327,8.49891 8.286,11.3217 29.4878,13.64993 41.2838,7.14746 10.0517,-5.54097 20.2053998,-17.3257 19.0467998,-29.45986 -0.072,-0.75987 -1.0348,-2.94875 -1.1931,-3.17486 z"
   id="path64"
   style="fill:#006200;fill-opacity:0.489639;stroke-width:0.0263966" /><path
   class="fil0"
   d="m -261.59093,302.48392 c 4.3713,0.55609 31.7306,22.17776 48.2521,22.84351 7.1992,0.29027 19.2893,-0.1993 22.4386,-7.95307 2.8706,-7.06673 4.1347,-14.35959 3.201,-21.99688 -1.1262,-9.21249 -10.3463,-18.70133 -17.6997,-23.8053 -15.319,-10.63284 -28.9342,-11.20681 -46.9984,-14.82839 -7.6327,-1.53051 -14.8809,-2.63559 -22.577,-4.31781 -7.7835,-1.70142 -30.2677,-3.42124 -36.2634,3.38284 -11.7221,13.30234 7.2749,26.15771 17.8542,31.65608 5.2273,2.71685 10.5248,4.90625 15.9017,7.62231 4.6143,2.33112 8.1673,3.82903 12.7712,6.43228 1.2421,0.70228 2.3506,0.52902 3.033,1.15268 z"
   id="path65"
   style="fill:#006200;fill-opacity:0.489639;stroke-width:0.0263966" /><path
   class="fil0"
   d="m -184.44093,412.27295 c -5.5461,-2.57224 -11.8927,-1.7206 -17.8728,-1.7206 -14.1593,0 -16.7105,1.07459 -25.063,12.95239 -2.2634,3.21877 -3.4854,7.97043 -1.2251,11.50234 1.3136,2.05269 15.1859,1.58073 17.9836,1.09694 5.8057,-1.00387 10.2629,-1.85786 16.0106,-3.54008 4.9991,-1.4632 7.9557,-1.24391 12.786,-1.60229 3.0391,-0.22532 6.1657,-1.70534 7.8736,-4.19396 4.1283,-6.01135 -5.0786,-11.98351 -10.4929,-14.49474 z"
   id="path66"
   style="fill:#006200;fill-opacity:0.489639;stroke-width:0.0263966" /><path
   class="fil0"
   d="m -103.45123,392.19571 c 0,-12.56641 -10.6363,-21.03009 -17.8752,-31.2525 -4.8751,-6.88425 -11.6412,-13.6155 -20.3263,-14.99454 -7.0674,-1.12246 -30.8772,-14.90808 -37.9945,-14.75951 -38.6432,0.80798 -38.5325,-2.01666 -51.6018,20.13692 -19.893,33.72086 54.6756,57.28165 57.5798,64.16642 8.1564,19.33579 44.3634,13.90525 58.9571,6.82827 4.138,-2.00668 9.3465,-7.90758 10.3887,-12.57851 1.2774,-5.72317 0.8722,-11.67877 0.8722,-17.54655 z"
   id="path67"
   style="fill:#006200;fill-opacity:0.489639;stroke-width:0.0263966" /><path
   class="fil0"
   d="m -81.849826,432.05965 c 0.1843,-0.0654 42.9001,-1.07671 44.2633,-0.96153 8.526,0.72068 16.3792,-8.37953 24.719,-8.22283 15.4121998,0.28948 36.8791,0.90684 37.5366,-19.28662 0.2236,-6.86349 -0.7667,-10.07516 -5.6322,-15.36028 -13.6115002,-14.78581 -45.5485,-33.464 -66.5066,-32.99834 -5.3804,0.11939 -20.8682,2.20044 -25.6489,4.08827 -6.7751,2.67529 -20.009,9.51802 -23.271,15.9816 -4.273504,8.46815 -5.260704,10.81478 -2.9668,20.36225 1.5665,6.51878 4.1291,9.777 7.0898,15.34846 3.8905,7.32204 0.433,22.32343 10.4168,21.04902 z"
   id="path68"
   style="fill:#006200;fill-opacity:0.489639;stroke-width:0.0263966" /><path
   class="fil0"
   d="m 99.742964,259.15617 c -10.07395,-1.82341 -14.30507,-2.85646 -24.71,-2.44156 -7.12232,0.2837 -14.24594,5.76392 -18.10499,11.44449 -2.2077,3.25033 -12.0045,19.94814 -14.715,23.62336 -4.7492,6.43886 -27.9052,25.11258 -34.9758002,28.88193 -5.6372,3.00527 -17.8860998,17.0985 1.9488,19.76329 4.8786002,0.65522 41.9347002,-9.79278 47.1171002,-14.64539 6.34561,-5.94192 18.30085,-13.84294 26.98351,-15.13207 8.06707,-1.19791 27.023756,-6.66182 33.574736,-9.52853 11.80019,-5.16367 7.89294,-17.54182 5.17371,-26.92758 -3.11092,-10.73486 -11.43848,-13.07334 -22.292066,-15.03794 z"
   id="path69"
   style="fill:#006200;fill-opacity:0.489639;stroke-width:0.0263966" /><path
   class="fil0"
   d="m 51.134174,490.62203 c -6.0896,-3.81589 -14.8645,-2.89406 -21.4406,-1.07013 -6.9853,1.93726 -13.2935,3.59582 -20.0920002,6.20117 -2.0602,0.78958 -4.4299,0.67389 -6.7641,1.81289 -1.5781,0.76986 -10.9291,2.0185 -13.2693998,2.0185 -5.3955,0 -6.7086,-0.0926 -11.9324,-0.76932 -2.6609,-0.34443 -13.0441,-0.57661 -14.1678,2.2199 -0.6694,1.6654 -1.3107,0.34681 -1.4665,3.91055 -0.127,2.90509 6.2867,6.42702 8.587,7.34569 9.347,3.73202 15.8283,2.66768 25.9188998,2.66768 14.0692002,0 15.6330002,-0.88607 29.0286002,-4.6328 7.8352,-2.19151 15.0492,-6.05026 22.2778,-9.68525 3.4835,-1.75189 4.0177,-5.94087 3.5913,-9.38129 -0.011,-0.0965 -0.128,-0.54794 -0.2708,-0.63759 z"
   id="path73"
   style="fill:#006200;fill-opacity:0.489639;stroke-width:0.0263966" /><path
   class="fil0"
   d="m -470.18061,-39.5695 c 6.2793,0 22.0384,-2.47379 19.5331,14.24267 -1.086,7.24554 -9.1579,16.8776196 -12.7336,22.5312496 -7.6971,12.1704097 -18.6082,17.6415294 -29.3116,17.6415294 -6.9633,0 -15.8648,19.264591 -22.923,18.917361 -14.9899,-0.73808 -24.675,-6.78968 -39.8437,-6.3592 -41.094,1.16722 -49.1685,-3.047621 -46.8571,-30.5184204 1.2097,-14.3784696 0.879,-17.3254596 6.1258,-22.2610396 9.7048,-9.12815 32.4185,-12.6877 34.2166,-13.3795 13.2371,-5.09316 21.831,9.40061 35.994,7.54916 7.2824,-0.95178 28.6991,-3.60052 35.8397,-5.29483 3.9293,-0.93262 7.4849,-2.35671 11.5204,-2.4275 2.8914,-0.0507 5.2471,-0.64148 8.4394,-0.64148 z"
   id="path75"
   style="fill:#006200;fill-opacity:0.489639;stroke-width:0.0343472" /><path
   class="fil0"
   d="m -441.3497,-191.77539 c 2.6606,0 8.8915,2.89625 8.0707,12.45311 -0.6193,7.2117 -11.9189,17.87168 -15.2529,20.52843 -10.7765,8.58637 -23.1873,-0.0898 -31.8321,-5.4239 -31.9385,-19.70579 18.7479,-25.56909 30.3504,-26.27824 2.5481,-0.15571 5.7231,-1.2794 8.6639,-1.2794 z"
   id="path76"
   style="fill:#006200;fill-opacity:0.489639;stroke-width:0.0343472" /><path
   class="fil0"
   d="m -394.22696,-80.122202 c -14.98797,-4.83717 -25.00734,-6.18646 -27.64309,23.02673 -0.88884,9.84486 0.18489,15.35871 3.63166,23.55956 3.21028,7.63908 9.53916,14.74528 14.93389,16.54955 9.98175,3.3383 14.45769,3.49724 24.71743,3.26707 5.09767,-0.11391 13.13477,-5.53031 15.9518,-13.45072 2.04055,-5.73641 3.13845,-14.22042 2.20857,-20.79865 -2.01857,-14.28631 -25.38472,-29.43668 -33.80026,-32.15354 z"
   id="path78"
   style="fill:#006200;fill-opacity:0.489639;stroke-width:0.0343472" /><path
   class="fil0"
   d="m -414.29936,37.096998 c -29.15546,-11.6398 -47.28191,-19.29045 -54.92016,12.26167 -2.5751,10.63282 -2.5772,15.96414 3.5349,26.56225 5.6934,9.87203 11.84367,9.41306 22.33182,13.67286 13.31764,5.40835 15.1475,19.565982 25.60916,21.997052 4.78258,1.11113 23.91021,2.98794 30.26428,4.24644 10.06256,1.99258 26.36628,-0.7176 32.5836,-8.39763 4.50351,-5.56193 7.37751,-14.586792 6.09276,-22.325572 -2.78761,-16.80552 -49.12663,-41.48157 -65.49636,-48.01707 z"
   id="path79"
   style="fill:#006200;fill-opacity:0.489639;stroke-width:0.0343472" /><path
   class="fil0"
   d="m 99.082024,179.41094 c -5.87916,12.55117 -16.54434,28.56931 -6.16059,31.00954 12.886466,3.02869 27.066946,3.72991 38.458506,2.58144 9.27286,-0.9355 16.69834,-3.09756 20.07346,-6.22957 8.95986,-8.3138 17.74563,-13.92128 -1.53757,-22.46856 -16.36467,-7.25343 -38.67928,-30.73137 -50.833806,-4.89285 z"
   id="path80"
   style="fill:#006200;fill-opacity:0.489639;stroke-width:0.0263966" /><path
   class="fil0"
   d="m -442.35365,252.60991 c -20.848,-5.04729 -34.785,-6.45536 -38.4514,24.02746 -1.2365,10.27314 0.2576,16.02647 5.0516,24.58349 4.4656,7.9707 8.9826,18.29013 16.4868,20.1723 13.8843,3.48252 32.8317,31.7542 47.1031,31.5156 7.09,-0.11832 15.2286,-26.67753 17.2111,-38.88981 1.1986,-7.38222 0.9087,-20.99363 -0.3848,-27.85809 -2.808,-14.90689 -35.3102,-30.71567 -47.0164,-33.55095 z"
   id="path81"
   style="fill:#006200;fill-opacity:0.489639;stroke-width:0.0343472" /><path
   class="fil0"
   d="m 70.877674,111.21697 c 13.79067,10.29129 8.6649,19.32472 0.44229,29.66966 -5.41886,6.81775 -10.02521,16.07967 -19.10779,19.99836 -19.2816,8.31853 -40.6228,6.05262 -51.78280019,-2.00458 -5.73260001,-4.13822 -3.18530001,-21.60011 -0.5806,-28.61583 1.57389999,-4.24105 6.51279999,-10.62101 9.93749999,-13.17773 3.7941002,-2.83358 16.3705002,3.42306 31.2782002,2.36794 14.313,-1.01281 19.81316,-10.95073 29.8132,-8.23782 z"
   id="path82"
   style="fill:#006200;fill-opacity:0.489639;stroke-width:0.0263966" /><path
   class="fil0"
   d="m -313.95369,-132.34542 c -5.47979,3.20208 -11.41965,4.84074 -16.4211,9.74469 -24.87775,24.393841 -9.98413,55.984219 2.85648,80.699449 8.71793,16.77924 19.44592,24.49309 32.01704,35.9134098 8.38982,7.62214 23.81586,14.5948 33.38232,17.4069402 9.71196,2.85394 19.00574,-0.66063 28.72668,2.35359 28.16809,8.73106 38.58655,1.76375 34.61701,-39.63723 -2.8981,-30.22507 -14.76775,-39.26509 -29.49177,-57.029478 -17.21138,-20.764811 -34.50782,-33.858511 -55.53158,-47.652451 -11.10269,-7.28473 -18.48816,-8.61577 -30.15508,-1.79892 z"
   id="path84"
   style="fill:#006200;fill-opacity:0.489639;stroke-width:0.0343472" /><path
   class="fil0"
   d="m -269.32177,75.585056 c 8.84697,-3.60987 18.01114,-9.68728 26.80858,-13.4543 6.73514,-2.88335 23.02057,-17.3259 15.04016,-31.84056 -2.59785,-4.72457 -3.53994,-7.6591 -7.73949,-9.74161 -11.12658,-5.51738 -27.77029,-5.98482 -39.53236,-3.53016 -13.31737,2.77828 -23.72256,3.88273 -34.76512,18.13832 -5.91176,7.63194 -7.78112,15.47936 -7.83809,27.7023 -0.077,16.60385 4.91216,22.93233 14.58329,22.69818 2.51783,-0.061 19.02773,-4.82739 22.19005,-6.26616 3.88872,-1.7691 7.56408,-2.20003 11.25298,-3.70601 z"
   id="path85"
   style="fill:#006200;fill-opacity:0.489639;stroke-width:0.0343472" /><path
   class="fil0"
   d="m 355.90824,182.42595 c 5.10166,0.90447 20.88968,0.48194 26.66601,-1.33042 5.47796,-1.71851 10.80722,-1.23498 15.35712,-4.53368 4.74284,-3.43858 9.62186,-6.97655 13.59403,-11.25914 3.18223,-3.43069 8.71686,-6.89635 11.57443,-11.68769 4.36678,-7.32231 7.2437,-10.91786 -6.71791,-12.10025 -7.36771,-0.62367 -21.39979,-0.02 -29.21775,-0.02 -9.26888,0 -26.04643,-1.56442 -33.96616,3.14646 -7.27176,4.32519 -15.13343,10.66019 -14.6074,19.95787 0.29283,5.17602 11.97565,16.17012 16.54938,17.47503 0.12164,0.0348 0.61589,0.32472 0.76825,0.3518 z"
   id="path86"
   style="fill:#006200;fill-opacity:0.489639;stroke-width:0.0263966" /><path
   class="fil0"
   d="m -118.92616,4.351184 c -8.33921,-2.58776 -32.14739,7.43207 -41.09692,10.79041 -6.67021,2.50272 -19.34758,8.74576 -24.36601,16.60964 -2.47966,3.88541 -15.19574,29.28265 -11.37118,35.26169 4.6514,7.271362 17.65447,21.137432 23.81057,21.137432 7.53441,0 45.41918,-17.283172 51.75364,-23.916622 10.57746,-11.07664 30.255513,-6.35829 34.572203,-32.44333 3.16313,-19.1146 -18.742053,-24.13029 -26.234033,-25.86065 -1.58686,-0.36636 -5.48908,-0.66598 -6.8197,-1.38982 z"
   id="path87"
   style="fill:#006200;fill-opacity:0.489639;stroke-width:0.0343472" /><path
   class="fil0"
   d="m 229.34514,193.05326 c 12.25098,-3.23797 47.23715,-16.70807 58.58711,-24.11424 7.80336,-5.09162 11.55826,-7.8358 11.08655,-17.6128 -0.18158,-3.76331 -18.04696,-20.93781 -21.44937,-24.31276 -4.03259,-4.0002 -19.88662,-13.45144 -25.2803,-14.08746 -11.60144,-1.36749 -18.52818,1.33069 -29.17801,2.17049 -4.91718,0.38781 -28.16275,9.49224 -29.78883,14.81602 -1.59162,5.21099 -12.85309,11.46763 -12.58119,24.60829 0.38665,18.68397 -8.19346,16.37466 9.88528,36.73403 2.33127,2.6256 4.20778,4.99407 7.59217,5.22333 7.47026,1.93018 23.76897,-1.48028 31.12659,-3.4249 z"
   id="path88"
   style="fill:#006200;fill-opacity:0.489639;stroke-width:0.0263966" /><path
   class="fil0"
   d="m -494.44568,-145.10009 c -2.8877,1.16278 -12.8695,-0.34902 -17.9539,0.5934 -6.2504,1.15833 -11.0425,1.25938 -17.369,3.46072 -7.827,2.72354 -14.9058,7.77085 -20.1328,18.28346 -1.6569,3.33208 -1.9574,18.11874 -0.1562,22.21696 4.4243,10.066117 17.3932,0.0241 23.1475,-2.83304 17.271,-8.5766 13.2151,-1.94673 31.5832,-1.04259 4.8192,0.23683 19.3084,-4.13827 24.6594,-3.20876 4.7028,0.81642 20.118,5.79252 22.9914,-1.70679 4.1633,-10.86562 -7.2063,-20.26309 -11.5034,-24.59858 -4.1198,-4.15651 -28.9609,-12.96637 -35.2662,-11.16478 z"
   id="path89"
   style="fill:#006200;fill-opacity:0.489639;stroke-width:0.0343472" /><path
   class="fil0"
   d="m 323.08482,299.48916 c 7.52644,-0.39675 29.17084,-4.20449 24.72773,-15.83856 -2.07976,-5.44552 -24.89469,-7.61994 -33.71623,-15.34085 -6.32994,-5.54042 -10.2356,-7.79347 -16.6485,-14.22759 -4.73777,-4.75348 -14.06309,0.39861 -17.08549,5.39478 -4.64504,7.67725 -25.53761,29.64153 -33.21458,35.24427 -10.00771,7.3039 3.37249,17.37722 11.48299,17.68354 8.09489,0.30577 14.70415,1.74795 23.4907,-0.0703 8.87906,-1.83761 17.72628,-2.28775 26.05331,-7.32783 0.063,-0.0382 12.68347,-5.40029 14.91007,-5.51755 z"
   id="path92"
   style="fill:#006200;fill-opacity:0.489639;stroke-width:0.0263966" /><path
   class="fil0"
   d="m 396.06732,281.07495 c -31.00285,0.16485 -23.65288,0.61604 -49.95423,14.93356 -10.64399,5.79415 -61.74201,5.69636 -33.86811,34.77099 13.66083,14.24918 6.75131,22.95633 10.48977,37.85701 2.59122,10.32837 6.6429,23.98383 18.18023,28.24722 6.09197,2.25119 29.12712,-10.35071 34.17337,-15.6511 16.01355,-16.81927 25.74697,-38.09916 38.21207,-57.5209 19.75042,-30.77318 21.29327,-42.8416 -17.2331,-42.63678 z"
   id="path93"
   style="fill:#006200;fill-opacity:0.489639;stroke-width:0.0263966" /><path
   class="fil0"
   d="m 223.70713,443.21834 c -2.06652,-2.18151 -2.47119,-2.93349 -5.54975,-4.34095 -6.85203,-3.13306 -17.69978,-2.85488 -25.19869,-2.85488 -7.0791,0 -14.6074,-0.42622 -21.56807,-0.15618 -5.52537,0.21428 -14.62517,6.55823 -22.81573,7.44614 -5.91361,0.64128 -14.41793,-0.17459 -19.51083,2.99844 -10.69911,6.66498 -14.95855,14.47895 -14.95855,25.98419 0,5.9314 0.8883,7.54369 5.4223,11.56887 1.90009,1.68668 9.23997,3.81745 12.02095,4.0412 11.7085,0.94154 17.77742,-4.69169 28.83774,-6.69048 7.07833,-1.27888 14.25362,-1.68511 21.39556,-2.34085 6.46854,-0.59369 32.17628,-5.85017 35.89618,-10.73145 3.93667,-5.16548 20.61035,-9.53273 6.02889,-24.92405 z"
   id="path94"
   style="fill:#006200;fill-opacity:0.489639;stroke-width:0.0263966" /><path
   class="fil0"
   d="m 342.71092,403.65704 c -4.04478,-5.20572 -8.35406,-10.21215 -14.99883,-10.21215 -16.73912,0 -19.34442,7.83343 -31.86941,11.99138 -8.64504,2.87014 -42.83033,-1.86152 -51.55622,7.20951 -10.39327,10.8048 -16.31644,43.84678 3.98175,43.84678 6.82231,0 25.66242,-5.94324 32.69304,-8.26675 9.44033,-3.1199 17.74086,-5.61563 26.90612,-10.18612 7.24075,-3.61053 31.49017,-14.68431 33.34071,-22.0718 0.46693,-1.86364 2.58115,-10.92337 1.50284,-12.31085 z"
   id="path95"
   style="fill:#006200;fill-opacity:0.489639;stroke-width:0.0263966" /><path
   class="fil0"
   d="m 307.74386,235.41449 c 5.49357,-3.65654 11.95259,-10.98201 7.91362,-18.24225 -5.18961,-9.33003 -23.78593,-13.34626 -33.44857,-15.75469 -9.68388,-2.41343 -42.37506,-6.3726 -53.72609,-6.3726 -7.17531,0 -26.08882,-0.44804 -24.28121,11.18103 1.14932,7.39435 14.69697,14.15766 21.54527,16.56215 5.43476,1.90834 12.92145,2.66557 18.95193,4.92491 2.94371,1.10273 6.52077,2.00694 9.77319,3.1988 9.50366,3.48354 22.26026,6.62921 32.22902,8.47235 8.33656,1.54208 14.06072,0.67757 21.04284,-3.9697 z"
   id="path96"
   style="fill:#006200;fill-opacity:0.489639;stroke-width:0.0263966" /><path
   class="fil0"
   d="m 371.73946,233.22087 c -7.14723,-1.89545 -13.02532,-4.30808 -21.81824,-3.11701 -9.88474,1.33883 -27.79811,-2.6448 -35.93221,2.74997 -2.61749,1.73612 -5.14087,2.19914 -7.94173,4.01624 -3.23599,2.09921 -5.6046,4.12114 -6.96304,7.82501 -2.15847,5.88462 1.87731,12.34713 6.79663,15.72709 12.00345,8.24701 16.92355,10.316 31.01448,13.7459 6.90686,1.68091 19.16766,2.10711 25.57871,-0.63549 5.07195,-2.16995 5.31707,-2.1994 9.50127,-5.71634 7.364,-6.18986 8.16881,-6.75805 11.25931,-15.83303 4.08906,-12.00559 -2.0029,-16.24532 -11.49518,-18.76234 z"
   id="path97"
   style="fill:#006200;fill-opacity:0.489639;stroke-width:0.0263966" /><path
   class="fil0"
   d="m 416.25578,217.56716 c 12.1728,1.44742 43.0132,0.18668 54.59982,-3.92132 17.48458,-6.19934 21.46604,-25.24537 12.09833,-39.88156 -4.89546,-7.64885 -22.46487,-18.75838 -31.11096,-23.82397 -12.3024,-7.20819 -20.53377,-3.39466 -29.20691,5.90775 -6.80693,7.30074 -8.62357,8.24677 -14.8703,16.9334 -8.70837,12.10918 -16.00082,20.34779 -4.44521,35.2214 2.48523,3.19906 12.91615,9.56193 12.93523,9.5643 z"
   id="path98"
   style="fill:#006200;fill-opacity:0.489639;stroke-width:0.0263966" /><path
   class="fil0"
   d="m -45.470226,479.99075 c -11.8667,-7.78478 -12.3716,-8.97059 -25.7149,-13.56081 -7.3894,-2.54199 -15.4287,-3.34813 -23.0932,-1.57047 -2.8674,0.66495 -8.109204,5.63957 -8.137304,8.71977 -0.05,5.55542 0.8674,6.16358 3.427304,11.09927 4.6867,9.03607 18.7787,17.53523 28.5264,20.66515 7.293,2.3419 9.7594,3.73227 17.8892,3.73227 7.1118,0 8.82,0.38966 14.162,-4.40853 5.1584,-4.63359 3.9337,-6.99311 4.0355,-13.32969 0.082,-5.12002 -7.1292,-8.7458 -11.095,-11.34696 z"
   id="path99"
   style="fill:#006200;fill-opacity:0.489639;stroke-width:0.0263966" /><path
   class="fil0"
   d="m -25.946126,431.07524 c -0.053,-0.0135 -42.2715,0.076 -44.1257,0.27397 -6.0469,0.64602 -15.3373,2.02297 -20.1872,5.79758 -3.2025,2.49257 -1.5182,0.61551 -3.6602,3.7825 -1.3484,1.99352 -1.881,2.73734 -1.5394,5.25436 0.5003,3.68364 5.6769,6.07339 9.0526,6.45438 3.4475,0.38885 4.7693,0.62419 8.4222,0.62419 14.12,0 28.8173,1.05697 42.5852,-2.26829 3.8455,-0.92867 14.3238,-3.49379 16.6903,-6.81906 2.3679,-3.32709 3.6767,-4.54183 2.7519,-8.72054 -0.2976,-1.34489 -7.9362,-3.8648 -9.9897,-4.37909 z"
   id="path100"
   style="fill:#006200;fill-opacity:0.489639;stroke-width:0.0263966" /><path
   class="fil0"
   d="m 124.67556,426.84814 c -0.0403,-4.98145 -0.39381,-7.49952 -4.29815,-11.02697 -3.40082,-3.07258 -13.12975,-5.92116 -17.92529,-8.67244 -3.091576,-1.77371 -14.396996,-8.41583 -17.389456,-8.94931 -5.0672,-0.90341 -9.63564,-3.78565 -15.31048,-0.40727 -5.89401,3.50878 -8.36255,9.57377 -12.63736,14.55362 -6.14025,7.15298 -4.12035,13.31604 -4.29815,21.46603 -0.058,2.64506 3.2561,5.45209 5.439,6.41731 8.54353,3.77696 16.18976,3.44909 25.4067,3.67679 3.64966,0.0904 24.089856,0.59028 26.566886,-0.0686 8.8997,-2.36741 14.52845,-6.80485 14.4463,-16.98914 z"
   id="path101"
   style="fill:#006200;fill-opacity:0.489639;stroke-width:0.0263966" /><path
   class="fil0"
   d="m 399.02612,204.04631 c -2.41579,-7.02729 -13.06482,-14.04512 -20.33845,-14.68746 -15.6025,-1.37775 -27.37702,-1.26601 -42.33319,4.72983 -3.70955,1.48711 -14.22263,7.56234 -15.54686,12.06369 -2.34001,7.9536 -2.27852,15.02637 5.1692,20.34516 8.89099,6.34946 28.61144,-1.14848 40.86877,4.58363 4.38772,2.0519 14.09358,2.24173 17.88581,-0.87686 2.72852,-2.24383 13.18356,-14.96459 13.73449,-18.18835 0.15969,-0.9342 0.80617,-7.25447 0.56023,-7.96964 z"
   id="path102"
   style="fill:#006200;fill-opacity:0.489639;stroke-width:0.0263966" /><path
   class="fil0"
   d="m 68.947354,453.66714 c -11.18991,-1.79634 -19.17188,-1.9796 -29.87628,2.33112 -4.3986,1.77135 -6.6445,1.86573 -10.9623,4.65277 -6.1343,3.95919 -10.6055,8.23467 -10.7743,15.73761 -0.1097,4.8781 -1.448,8.48392 4.177,11.2118 5.465,2.65059 12.0692,1.40772 17.7175,0.29448 4.4585,-0.87844 16.2123,0.43672 21.48674,-0.0857 4.92567,-0.48775 16.43968,-3.2385 18.9758,-7.87447 3.15039,-5.75918 2.80004,-8.6464 2.06016,-14.77264 -0.96807,-8.01434 -4.93788,-10.23293 -12.80432,-11.49498 z"
   id="path103"
   style="fill:#006200;fill-opacity:0.489639;stroke-width:0.0263966" /><path
   class="fil0"
   d="m -391.67433,217.73938 c 1.36,0.28921 2.7372,0.95653 4.6824,1.36801 11.0261,2.33166 33.4931,0.0291 42.6671,-6.33159 7.0118,-4.86154 9.8979,-10.66938 13.1456,-18.405 6.7293,-16.02762 2.9453,-26.55133 -7.9147,-39.43274 -6.9447,-8.23729 -19.0653,-17.12296 -28.8809,-21.62956 -8.7166,-4.00203 -14.2587,-0.95207 -22.1638,2.39029 -7.8209,3.30659 -14.8706,12.66526 -17.7698,20.41509 -5.02,13.41988 -5.6343,17.82342 -2.7982,31.91928 2.0467,10.17245 5.3245,14.11638 11.3842,21.89828 0.027,0.0347 7.3897,7.75298 7.6481,7.80794 z"
   id="path104"
   style="fill:#006200;fill-opacity:0.489639;stroke-width:0.0263966" /><path
   class="fil0"
   d="m -321.92413,186.82159 c 1.0544,0.90001 1.9417,2.13997 3.4509,3.42517 8.5555,7.28418 29.3916,15.93374 40.5152,14.70665 8.502,-0.93786 13.8384,-4.66619 20.422,-9.91504 13.6414,-10.87552 15.7122,-31.72287 12.3933,-48.18957 -2.1654,-10.74326 10.1205,-28.95187 6.8477,-35.37548 -7.7424,-15.196238 -34.3909,-7.61703 -54.8937,10.08857 -10.8814,9.39707 -19.0166,14.64225 -23.3277,28.3645 -3.1112,9.9032 -9.9202,16.69728 -8.3551,26.4075 0.01,0.0434 2.747,10.3168 2.9474,10.4877 z"
   id="path105"
   style="fill:#006200;fill-opacity:0.489639;stroke-width:0.0263966" /><path
   class="fil0"
   d="m -215.84763,197.86617 c 11.0258,2.33113 17.487,-4.41773 26.6607,-10.77824 7.0115,-4.86128 15.386,-13.30156 18.6334,-21.03666 6.7288,-16.02734 17.9454,-24.37401 7.0858,-37.25489 -6.9443,-8.23703 -16.1387,-13.31182 -25.954,-17.81816 -8.7163,-4.00176 -21.6675,0.13725 -29.5726,3.47935 -7.8206,3.30658 -15.266,12.53064 -17.7697,20.41509 -4.0268,12.68027 -4.6763,17.11115 -2.7982,31.91928 1.3051,10.29155 -0.525,14.74926 5.5304,22.53352 5.5545,7.14035 9.8442,6.77725 18.1842,8.54071 z"
   id="path106"
   style="fill:#006200;fill-opacity:0.489639;stroke-width:0.0263966" /><path
   class="fil0"
   d="m 1.8116738,473.2227 c -3.3372,0.53376 -5.7257,0.47697 -9.3452,1.22052 -2.7146998,0.55742 -4.9020998,0.96023 -7.5955998,1.68643 -3.4589,0.93234 -13.8071,3.15278 -16.021,5.24096 -2.8104,2.65111 -2.3993,5.97742 -2.8488,9.45833 -0.6749,5.2286 5.6863,6.50564 9.5114,7.11854 4.9121,0.78694 6.7876,1.26205 12.0535,1.26205 4.3055998,0 5.6395998,-0.19693 9.8547998,-0.67495 2.03210001,-0.23032 14.4437002,-4.55917 15.6473002,-5.76864 4.0263,-4.04595 3.1812,-4.66436 3.1812,-10.30023 0,-5.83229 -4.9371,-7.6436 -9.8766002,-8.81759 -0.209,-0.0496 -4.5162,-0.43251 -4.561,-0.42542 z"
   id="path108"
   style="fill:#006200;fill-opacity:0.489639;stroke-width:0.0263966" /></g>
</svg>
