<?xml version="1.0" encoding="UTF-8" standalone="no"?>
<svg
   xml:space="preserve"
   width="500"
   height="500"
   version="1.1"
   style="clip-rule:evenodd;fill-rule:evenodd;image-rendering:optimizeQuality;shape-rendering:geometricPrecision;text-rendering:geometricPrecision"
   viewBox="0 0 500 500"
   id="svg54"
   sodipodi:docname="foreground-0.svg"
   inkscape:version="1.3.2 (1:1.3.2+202311252150+091e20ef0f)"
   xmlns:inkscape="http://www.inkscape.org/namespaces/inkscape"
   xmlns:sodipodi="http://sodipodi.sourceforge.net/DTD/sodipodi-0.dtd"
   xmlns="http://www.w3.org/2000/svg"
   xmlns:svg="http://www.w3.org/2000/svg"><sodipodi:namedview
   id="namedview54"
   pagecolor="#ffffff"
   bordercolor="#000000"
   borderopacity="0.25"
   inkscape:showpageshadow="2"
   inkscape:pageopacity="0.0"
   inkscape:pagecheckerboard="0"
   inkscape:deskcolor="#d1d1d1"
   inkscape:document-units="mm"
   inkscape:zoom="0.4433508"
   inkscape:cx="-96.98866"
   inkscape:cy="-210.89395"
   inkscape:window-width="1080"
   inkscape:window-height="1883"
   inkscape:window-x="1920"
   inkscape:window-y="0"
   inkscape:window-maximized="1"
   inkscape:current-layer="Warstwa_x0020_1"
   showguides="true"><sodipodi:guide
     position="-60.555145,500"
     orientation="0,1"
     id="guide1"
     inkscape:locked="false"
     inkscape:label=""
     inkscape:color="rgb(0,134,229)" /><sodipodi:guide
     position="0,500"
     orientation="-1,0"
     id="guide2"
     inkscape:locked="false"
     inkscape:label=""
     inkscape:color="rgb(0,134,229)" /></sodipodi:namedview>
 <defs
   id="defs1"><rect
   x="-909.05646"
   y="-439.23424"
   width="316.4538"
   height="85.411484"
   id="rect3" />
  <style
   type="text/css"
   id="style1">
   <![CDATA[
    .fil0 {fill:#AE4A84;fill-opacity:0.101961}
   ]]>
  </style>
 <rect
   x="-909.05646"
   y="-439.23425"
   width="316.4538"
   height="85.411484"
   id="rect3-5" /><rect
   x="-909.05646"
   y="-439.23425"
   width="630.9634"
   height="255.4587"
   id="rect3-5-0" /><rect
   x="-909.05646"
   y="-439.23425"
   width="630.96338"
   height="255.45869"
   id="rect3-5-0-9" /><rect
   x="-909.05646"
   y="-439.23425"
   width="630.9634"
   height="255.4587"
   id="rect7" /><style
   type="text/css"
   id="style1-2">
   <![CDATA[
    .fil0 {fill:#AE4A84;fill-opacity:0.101961}
   ]]>
  </style>
  
  
  
  
  
  
  
  
  
  
  
  
  
  
  
  
  
  
  
  
  
  
  
  
  
  
  
  
  
  
  
  
  
  
  
  
  
  
  
  
  
  
  
  
  
  
  
  
  
  
  
  
  
  
  
 </defs>
 <g
   id="Warstwa_x0020_1"
   inkscape:label="Warstwa 1"
   inkscape:groupmode="layer">
  <metadata
   id="CorelCorpID_0Corel-Layer" />
  
  
  
  
  
  
  
  
  
  
  
  
  
  
  
  
  
  
  
  
  
  
  
  
  
  
  
  
  
  
  
  
  
  
  
  
  
  
  
  
  
  
  
  
  
  
  
  
  
  
  
  
  
  
 <g
   id="g61"
   style="fill:#c2dcb6;fill-opacity:1;stroke:#767676;stroke-opacity:1;stroke-width:1;stroke-dasharray:none"><path
     style="fill:#c2dcb6;fill-opacity:1;stroke-width:1;stroke-linecap:round;stroke-linejoin:round;paint-order:stroke fill markers;stroke:#767676;stroke-opacity:1;stroke-dasharray:none"
     d="m -512.71818,54.106122 c -3.96216,-8.3378 -34.16543,-44.6572808 -25.46517,-102.362698 8.70025,-57.705414 5.86342,-101.550604 37.68697,-131.820854 31.82354,-30.27024 40.89514,-35.91347 60.06968,-33.83659 19.17454,2.07688 46.32195,5.66537 59.97734,31.71243 13.65538,26.04706 30.12144,64.29538 31.99825,88.846435 1.87682,24.551059 5.2628,80.477787 8.52379,129.035408 3.26098,48.557621 3.15456,151.515287 1.08124,159.837407 -2.07333,8.32212 18.24411,140.49641 -55.84755,41.45317 C -468.7853,137.9276 -512.71818,54.106122 -512.71818,54.106122 Z"
     id="path7" /><path
     style="fill:#c2dcb6;fill-opacity:1;stroke-width:1;stroke-linecap:round;stroke-linejoin:round;paint-order:stroke fill markers;stroke:#767676;stroke-opacity:1;stroke-dasharray:none"
     d="m -330.80183,2.5361223 c 0,0 -21.27485,-40.2331513 -14.758,-54.8486333 6.51686,-14.615482 -0.71124,-58.153419 13.34801,-79.929099 14.05925,-21.77568 31.5811,-36.56771 31.5811,-36.56771 l 36.06359,-16.62295 c 0,0 17.13005,-1.88432 27.6087,1.2829 10.47865,3.16722 35.87961,12.54882 35.87961,12.54882 l 48.52124,39.04205 69.825518,35.157219 c 0,0 7.752979,8.691995 14.210484,17.533884 6.457505,8.841889 13.973152,19.240895 19.914579,33.670016 5.941428,14.429121 9.699335,29.259719 11.921586,37.4621281 2.222251,8.20240901 4.46437,22.3314069 7.535516,35.3024169 3.071146,12.97101 2.222418,14.256256 3.757907,26.628865 1.535489,12.372608 3.350646,24.356901 4.037408,34.175782 0.686761,9.818881 22.11142823,41.848199 16.7175994,61.367759 -5.3938284,19.51955 -15.5523184,41.96774 -24.6141014,62.63749 -9.061783,20.66975 -22.541996,54.89818 -72.756576,41.27578 -50.21459,-13.62239 -136.50998,11.02809 -136.50998,11.02809 0,0 -55.79184,8.90158 -68.45866,3.9291 -12.66682,-4.97248 -26.86377,-20.71804 -26.86377,-20.71804 0,0 -6.66927,-9.58666 -7.49473,-22.90491 -0.82546,-13.31824 4.25948,-47.92962 4.25948,-47.92962 l 1.55217,-101.920733 c 0,0 10.49416,-30.058398 10.2259,-47.49973 -0.26827,-17.4413321 -5.50458,-24.1008747 -5.50458,-24.1008747 z"
     id="path22" /><path
     style="fill:#c2dcb6;fill-opacity:1;stroke-width:1;stroke-linecap:round;stroke-linejoin:round;paint-order:stroke fill markers;stroke:#767676;stroke-opacity:1;stroke-dasharray:none"
     d="m -248.76416,389.26241 c 0,-6.01251 5.13144,64.58343 -1.53548,-23.79086 -6.66692,-88.37428 8.26763,-140.89663 8.26763,-140.89663 0,0 12.0729,-25.82113 46.84097,-22.44668 34.76806,3.37446 71.59372,-30.09461 109.460516,-23.51488 37.86679,6.57974 62.716799,52.15147 62.716799,52.15147 0,0 83.37699,54.20186 81.697727,84.64639 -1.679263,30.44454 -28.805343,62.72954 -20.263325,74.75324 8.542017,12.02369 34.210657,20.91655 42.956892,37.67297 8.746235,16.75641 10.228909,26.97048 6.68595,38.49252 -3.542959,11.52204 -2.046117,28.28968 -12.756145,40.37324 -10.710029,12.08355 -61.898168,25.18299 -76.20397019,31.64904 -14.30580181,6.46606 -18.06362581,14.9924 -38.51163581,10.5479 -20.44801,-4.4445 -43.84435,-9.60628 -59.685725,-17.60799 -15.841373,-8.00172 -50.994693,-17.51544 -69.992353,-39.65781 -18.99765,-22.14236 -37.61633,-38.91973 -44.27273,-49.67218 -6.6564,-10.75245 -35.40512,-52.69974 -35.40512,-52.69974 z"
     id="path55" /><path
     style="fill:#c2dcb6;fill-opacity:1;stroke-width:1;stroke-linecap:round;stroke-linejoin:round;paint-order:stroke fill markers;stroke:#767676;stroke-opacity:1;stroke-dasharray:none"
     d="M 129.23434,490.14177 C 92.580536,477.65682 91.045047,475.19464 90.196236,464.25424 c -0.848812,-10.9404 -0.848812,-5.48219 -0.848812,-15.61612 0,-10.13392 10.347282,-7.07569 -4.751415,-20.3148 -15.098696,-13.2391 -17.192011,-15.32571 -25.523356,-23.81751 -8.331345,-8.4918 -20.398129,-17.41937 -20.398129,-17.41937 0,0 -7.3484,-6.08076 -2.903815,-15.65669 4.444585,-9.57593 8.727289,-13.37257 15.394125,-22.58567 6.666836,-9.21311 10.41636,-16.70293 10.41636,-16.70293 0,0 7.143596,-5.71978 5.608107,-17.30016 -1.535489,-11.58038 -1.381907,-12.84761 -5.980075,-26.28775 -4.598168,-13.44014 -9.204719,-11.81998 -7.50718,-27.13664 1.697539,-15.31666 3.526696,-24.6312 11.558755,-36.25066 8.03206,-11.61945 0.717194,-9.07293 18.780819,-19.98382 18.06363,-10.91089 22.00848,-13.4274 37.58545,-17.70105 15.57696,-4.27365 24.5633,-8.55124 30.43321,-27.44028 5.86992,-18.88905 5.01273,-22.23064 3.48562,-32.34613 -1.52711,-10.11548 -1.52702,-14.15867 -3.06259,-23.57255 -1.53558,-9.413887 -3.07115,-15.845487 -3.91988,-24.244485 -0.84873,-8.398998 -3.91115,-16.063785 -0.84873,-22.86685 3.06243,-6.803065 1.81843,-10.457355 7.11183,-18.297017 5.29339,-7.839663 17.16074,-17.928822 17.16074,-17.928822 0,0 -6.13877,-2.301725 10.48862,-2.301725 16.6274,0 28.01337,-1.535573 40.36628,0.848727 12.35291,2.384301 53.43714,19.643798 65.85778,23.393071 12.42064,3.749273 25.17352,11.742267 25.17352,11.742267 l 17.74699,47.502584 c 0,0 11.27372,18.9328 18.26457,20.99309 6.99085,2.06028 41.21308,13.58903 55.58159,12.93479 14.36851,-0.65423 39.18364,-0.65423 39.18364,-0.65423 0,0 7.86783,3.01741 4.61401,33.38984 -3.25381,30.37244 -2.7208,39.08808 -6.64889,59.95618 -3.92809,20.86809 -7.53787,46.36546 -20.99494,70.89539 -13.45707,24.52994 -26.66508,42.46052 -42.87884,66.19722 -16.21377,23.73671 -34.18987,43.2851 -46.38366,57.17643 -12.19379,13.89133 -33.2511,30.50272 -41.41478,36.96894 -8.16368,6.46622 -38.87891,27.93893 -69.63547,28.78765 -30.75656,0.84873 -92.07335,1.52661 -92.07335,1.52661 z"
     id="path56" /><path
     style="fill:#c2dcb6;fill-opacity:1;stroke-width:1;stroke-linecap:round;stroke-linejoin:round;paint-order:stroke fill markers;stroke:#767676;stroke-opacity:1;stroke-dasharray:none"
     d="m 379.49618,122.66543 c -47.48808,-11.16474 -54.30271,-5.97715 -58.35202,-16.94404 -4.04931,-10.966891 13.58425,6.65695 -10.51545,-19.817331 -24.0997,-26.474277 -18.23079,-23.996754 -31.6628,-32.672653 -13.43201,-8.675899 6.78915,6.08998 -21.63442,-12.271673 C 228.90792,22.59808 221.10473,17.179772 211.89154,9.5020753 202.67836,1.8243783 186.53351,-2.9070004 181.92695,-15.173644 c -4.60655,-12.266643 -10.91072,-30.645817 -10.91072,-30.645817 0,0 -0.8162,-14.258436 -1.66493,-19.858746 -0.84873,-5.60031 -7.1529,-13.031454 -2.3843,-41.796643 4.7686,-28.76518 6.47469,-37.6396 7.31495,-43.7191 0.84026,-6.0795 5.46987,-19.13518 7.50718,-26.60489 2.03732,-7.46971 3.92683,-9.5683 9.01953,-19.73668 5.0927,-10.16839 9.8613,-20.0296 18.87379,-30.41562 9.01249,-10.38601 10.1854,-12.54178 18.37951,-17.97719 8.19411,-5.43541 9.48883,-8.65528 20.46453,-10.71556 10.97569,-2.06029 22.81982,-3.07106 43.46852,-3.75782 20.64871,-0.68677 31.26577,-3.07098 49.61476,1.85958 18.349,4.93057 8.99011,-5.03653 41.46659,16.32736 32.47648,21.36389 40.30282,29.18025 52.96314,51.91254 12.66032,22.7323 19.45056,29.68442 26.27945,38.73564 6.82888,9.05122 12.31057,14.19095 22.57964,32.66871 10.26906,18.47777 12.51562,9.29694 20.21026,41.116672 7.69463,31.819734 10.08832,30.807616 10.07893,49.520697 -0.009,18.7130819 -7.02447,36.024137 -15.02618,54.735877 -8.00172,18.711741 -17.57455,33.987158 -30.02084,46.271406 -12.4463,12.284248 -27.75265,22.469312 -39.18809,29.984958 -11.43544,7.51565 -27.95729,13.13298 -33.54234,15.67933 -5.58505,2.54635 -17.91415,4.25437 -17.91415,4.25437 z"
     id="path57" /><path
     style="fill:#c2dcb6;fill-opacity:1;stroke-width:1;stroke-linecap:round;stroke-linejoin:round;paint-order:stroke fill markers;stroke:#767676;stroke-opacity:1;stroke-dasharray:none"
     d="m 21.415697,-223.12938 c 0,0 -26.3749344,6.53312 -50.056056,10.61496 -23.681122,4.08184 -47.490173,-0.88612 -60.198365,10.32531 -12.708196,11.21144 -23.930526,25.85375 -17.638846,45.27849 6.29169,19.42474 6.40377,23.75758 16.515648,36.08986 10.111878,12.33229 39.828991,23.437419 58.630182,41.381331 18.80119,17.943912 21.016063,17.768282 32.952236,39.939483 11.936173,22.171202 2.1910648,79.709372 2.1910648,79.709372 0,0 -10.2510412,0.460915 3.2584292,14.507673 13.50947,14.046757 19.606157,14.733519 19.606157,14.733519 0,0 33.969217,1.557453 43.846278,1.557453 9.877062,0 10.745574,-2.222251 22.867856,-2.222251 12.122279,0 15.216059,-0.709732 24.591299,-9.236072 9.37524,-8.526341 35.19955,-37.212389 44.07992,-46.779603 8.88037,-9.5672133 3.46743,-20.6480357 5.55789,-35.292021 2.09047,-14.643985 2.09642,-18.287712 -0.44104,-32.630736 -2.53747,-14.343024 -4.23492,-18.946473 -5.7705,-30.661997 -1.53557,-11.715524 -6.10289,-19.740461 -3.23311,-29.561851 2.86978,-9.8214 0.28512,-24.16836 5.09245,-32.4095 4.80733,-8.24114 7.88686,-14.34948 8.72712,-20.72617 0.84026,-6.37669 3.3867,-7.06345 -1.38199,-21.5313 -4.76868,-14.46786 -6.40234,-19.32197 -13.75594,-27.52438 -7.3536,-8.2024 -11.56412,-13.33526 -22.92729,-16.2545 -11.36317,-2.91924 -40.502258,-5.24955 -49.880176,-5.24955 -9.377918,0 -17.093173,2.1219 -23.051199,5.115 -5.958026,2.99309 -39.582018,10.82748 -39.582018,10.82748 z"
     id="path58" /><path
     style="fill:#c2dcb6;fill-opacity:1;stroke-width:1;stroke-linecap:round;stroke-linejoin:round;paint-order:stroke fill markers;stroke:#767676;stroke-opacity:1;stroke-dasharray:none"
     d="m 31.415993,-488.59848 c 0,0 -7.018349,-1.49961 -27.218045,15.78168 -20.199696,17.2813 -35.759643,13.79417 -32.487884,29.87506 3.271758,16.08089 6.478966,27.49277 30.3995149,49.35303 23.9205491,21.86026 15.9574841,-16.0492 47.9256021,38.71242 31.968119,54.76161 26.875419,40.47777 33.665657,62.90861 6.790239,22.43083 -0.887542,26.35062 13.094329,32.65479 13.981873,6.30418 34.840323,12.8093 51.121913,10.06225 16.28158,-2.74705 47.51582,-9.4117 47.51582,-9.4117 0,0 16.72875,-2.38439 36.72943,-2.38439 20.00068,0 41.94762,6.48274 55.79461,3.24971 13.84698,-3.23302 27.40499,8.40915 30.7589,-8.01361 3.35392,-16.42276 4.05057,-12.2669 3.35392,-38.25838 -0.69665,-25.99148 44.24038,6.10733 -12.0615,-45.60644 -56.30189,-51.71377 -59.10401,-48.00977 -85.2837,-65.86373 -26.17968,-17.85396 -25.46107,-16.33297 -57.91206,-33.66071 -32.451,-17.32774 -55.67649,-25.58145 -63.91545,-27.92241 -8.238959,-2.34096 -71.481057,-11.47618 -71.481057,-11.47618 z"
     id="path59" /><path
     style="fill:#c2dcb6;fill-opacity:1;stroke-width:1;stroke-linecap:round;stroke-linejoin:round;paint-order:stroke fill markers;stroke:#767676;stroke-opacity:1;stroke-dasharray:none"
     d="m -290.97669,-445.38967 c -8.74351,3.46424 -46.18531,8.17785 -54.51104,26.36487 -8.32573,18.18703 -24.96758,38.65097 -24.16714,49.34499 0.80044,10.69401 17.94609,22.16902 48.44109,20.78258 30.495,-1.38643 31.19312,-0.91646 58.27825,-3.83419 27.08513,-2.91773 35.55454,-1.90696 72.13835,-8.41409 36.58381,-6.50713 28.79277,14.29541 65.34363,-12.51336 36.550861,-26.80877 37.631219,-23.61574 44.876589,-34.28577 7.245369,-10.67004 18.279496,-17.2595 24.745635,-33.94969 6.46614,-16.69019 13.93484,-20.40081 7.314951,-31.61904 -6.61989,-11.21822 -14.135453,-22.12886 -33.047974,-23.66443 -18.912521,-1.53558 -39.186911,-2.15494 -52.979571,0.84872 -13.79266,3.00366 -42.29738,5.15331 -62.62207,11.9822 -20.32469,6.82889 -68.86957,23.67634 -68.86957,23.67634 z"
     id="path60" /><path
     style="fill:#c2dcb6;fill-opacity:1;stroke-width:1;stroke-linecap:round;stroke-linejoin:round;paint-order:stroke fill markers;stroke:#767676;stroke-opacity:1;stroke-dasharray:none"
     d="m -170.56856,-342.07806 c 0,0 7.77486,0.61106 -23.25986,2.99536 -31.03472,2.3843 -50.6291,3.39507 -63.37275,4.08184 -12.74366,0.68676 -57.40085,0.3619 -66.93952,4.08603 -9.53867,3.72412 -30.53407,8.80164 -39.38455,19.34971 -8.85048,10.54806 -19.23645,11.11142 -22.63157,33.17959 -3.39512,22.06817 -8.16372,35.14129 -5.09266,53.54368 3.07106,18.4024 -2.87032,18.76523 13.13306,34.76857 16.00338,16.00334 23.92273,28.02964 29.6612,31.19669 5.73846,3.16705 2.69745,7.07837 20.88444,4.69399 18.18699,-2.38439 32.22729,-20.02055 56.27112,-27.17345 24.04382,-7.1529 28.49931,-10.20099 34.51157,-9.51423 6.01227,0.68676 3.82875,2.42303 28.92204,10.78749 25.09329,8.36446 39.15967,11.59757 50.95793,13.13306 11.79827,1.53549 26.94517,6.29319 39.22942,-1.54656 12.28425,-7.83974 10.61052,-9.0363 17.56909,-19.74439 6.958579,-10.7081 10.881554,-19.56181 27.57174,-28.08824 16.690187,-8.52642 22.754346,-9.79138 43.450921,-19.71531 20.6965759,-9.92392 25.8197911,-8.21666 39.358939,-20.02289 13.539147,-11.80623 16.772342,-7.64693 20.368116,-23.0797 3.595775,-15.43277 18.214442,-1.52149 0.524713,-35.71119 -17.68973,-34.1897 -17.041699,-37.46145 -28.4772201,-42.75485 -11.4355206,-5.2934 -15.2778479,-9.37524 -29.6224649,-11.07278 -14.344617,-1.69753 -20.913285,-7.41144 -48.723024,-0.84881 -27.80974,6.56263 -84.3741,18.72784 -84.3741,18.72784 z"
     id="path61" /></g><text
   xml:space="preserve"
   style="font-weight:bold;font-size:34.6667px;line-height:0.9;font-family:'Bai Jamjuree SemiBold';-inkscape-font-specification:'Bai Jamjuree SemiBold,  Bold';opacity:0.434685;fill:#000000;fill-opacity:1;stroke-width:5.46898;stroke-linecap:round;stroke-linejoin:round;paint-order:stroke fill markers"
   x="-828.18927"
   y="-350.60492"
   id="text4"><tspan
     sodipodi:role="line"
     id="tspan4" /></text></g>
</svg>
