<?xml version="1.0" encoding="UTF-8" standalone="no"?>
<svg
   xml:space="preserve"
   width="500"
   height="500"
   version="1.1"
   style="clip-rule:evenodd;fill-rule:evenodd;image-rendering:optimizeQuality;shape-rendering:geometricPrecision;text-rendering:geometricPrecision"
   viewBox="0 0 500 500"
   id="svg54"
   sodipodi:docname="foreground-1.svg"
   inkscape:version="1.3.2 (1:1.3.2+202311252150+091e20ef0f)"
   xmlns:inkscape="http://www.inkscape.org/namespaces/inkscape"
   xmlns:sodipodi="http://sodipodi.sourceforge.net/DTD/sodipodi-0.dtd"
   xmlns="http://www.w3.org/2000/svg"
   xmlns:svg="http://www.w3.org/2000/svg"><sodipodi:namedview
   id="namedview54"
   pagecolor="#ffffff"
   bordercolor="#000000"
   borderopacity="0.25"
   inkscape:showpageshadow="2"
   inkscape:pageopacity="0.0"
   inkscape:pagecheckerboard="0"
   inkscape:deskcolor="#d1d1d1"
   inkscape:document-units="mm"
   inkscape:zoom="0.4433508"
   inkscape:cx="-96.98866"
   inkscape:cy="-210.89395"
   inkscape:window-width="1080"
   inkscape:window-height="1883"
   inkscape:window-x="1920"
   inkscape:window-y="0"
   inkscape:window-maximized="1"
   inkscape:current-layer="Warstwa_x0020_1"
   showguides="true"><sodipodi:guide
     position="-60.555145,500"
     orientation="0,1"
     id="guide1"
     inkscape:locked="false"
     inkscape:label=""
     inkscape:color="rgb(0,134,229)" /><sodipodi:guide
     position="0,500"
     orientation="-1,0"
     id="guide2"
     inkscape:locked="false"
     inkscape:label=""
     inkscape:color="rgb(0,134,229)" /></sodipodi:namedview>
 <defs
   id="defs1"><rect
   x="-909.05646"
   y="-439.23424"
   width="316.4538"
   height="85.411484"
   id="rect3" />
  <style
   type="text/css"
   id="style1">
   <![CDATA[
    .fil0 {fill:#AE4A84;fill-opacity:0.101961}
   ]]>
  </style>
 <rect
   x="-909.05646"
   y="-439.23425"
   width="316.4538"
   height="85.411484"
   id="rect3-5" /><rect
   x="-909.05646"
   y="-439.23425"
   width="630.9634"
   height="255.4587"
   id="rect3-5-0" /><rect
   x="-909.05646"
   y="-439.23425"
   width="630.96338"
   height="255.45869"
   id="rect3-5-0-9" /><rect
   x="-909.05646"
   y="-439.23425"
   width="630.9634"
   height="255.4587"
   id="rect7" /><style
   type="text/css"
   id="style1-2">
   <![CDATA[
    .fil0 {fill:#AE4A84;fill-opacity:0.101961}
   ]]>
  </style>
  
  
  
  
  
  
  
  
  
  
  
  
  
  
  
  
  
  
  
  
  
  
  
  
  
  
  
  
  
  
  
  
  
  
  
  
  
  
  
  
  
  
  
  
  
  
  
  
  
  
  
  
  
  
  
 </defs>
 <g
   id="Warstwa_x0020_1"
   inkscape:label="Warstwa 1"
   inkscape:groupmode="layer">
  <metadata
   id="CorelCorpID_0Corel-Layer" />
  
  
  
  
  
  
  
  
  
  
  
  
  
  
  
  
  
  
  
  
  
  
  
  
  
  
  
  
  
  
  
  
  
  
  
  
  
  
  
  
  
  
  
  
  
  
  
  
  
  
  
  
  
  
 <g
   id="g61"
   style="clip-rule:evenodd;fill:#c2dcb6;fill-opacity:1;fill-rule:evenodd;stroke:#767676;stroke-width:1;stroke-dasharray:none;stroke-opacity:1;image-rendering:optimizeQuality;shape-rendering:geometricPrecision;text-rendering:geometricPrecision"
   transform="translate(-3.4789437e-4,0.00186412)"><path
     style="fill:#c2dcb6;fill-opacity:1;stroke:#767676;stroke-width:1;stroke-linecap:round;stroke-linejoin:round;stroke-dasharray:none;stroke-opacity:1;paint-order:stroke fill markers"
     d="m -512.71818,54.106122 c -3.96216,-8.3378 -34.16543,-44.6572808 -25.46517,-102.362698 8.70025,-57.705414 5.86342,-101.550604 37.68697,-131.820854 31.82354,-30.27024 40.89514,-35.91347 60.06968,-33.83659 19.17454,2.07688 46.32195,5.66537 59.97734,31.71243 13.65538,26.04706 30.12144,64.29538 31.99825,88.846435 1.87682,24.551059 5.2628,80.477787 8.52379,129.035408 3.26098,48.557621 3.15456,151.515287 1.08124,159.837407 -2.07333,8.32212 18.24411,140.49641 -55.84755,41.45317 C -468.7853,137.9276 -512.71818,54.106122 -512.71818,54.106122 Z"
     id="path7" /><path
     style="fill:#c2dcb6;fill-opacity:1;stroke:#767676;stroke-width:1;stroke-linecap:round;stroke-linejoin:round;stroke-dasharray:none;stroke-opacity:1;paint-order:stroke fill markers"
     d="m -330.80183,2.5361223 c 0,0 -21.27485,-40.2331513 -14.758,-54.8486333 6.51686,-14.615482 -0.71124,-58.153419 13.34801,-79.929099 14.05925,-21.77568 31.5811,-36.56771 31.5811,-36.56771 l 36.06359,-16.62295 c 0,0 17.13005,-1.88432 27.6087,1.2829 10.47865,3.16722 35.87961,12.54882 35.87961,12.54882 l 48.52124,39.04205 69.825518,35.157219 c 0,0 7.752979,8.691995 14.210484,17.533884 6.457505,8.841889 13.973152,19.240895 19.914579,33.670016 5.941428,14.429121 9.699335,29.259719 11.921586,37.4621281 2.222251,8.20240901 4.46437,22.3314069 7.535516,35.3024169 3.071146,12.97101 2.222418,14.256256 3.757907,26.628865 1.535489,12.372608 3.350646,24.356901 4.037408,34.175782 0.686761,9.818881 22.11142823,41.848199 16.7175994,61.367759 -5.3938284,19.51955 -15.5523184,41.96774 -24.6141014,62.63749 -9.061783,20.66975 -22.541996,54.89818 -72.756576,41.27578 -50.21459,-13.62239 -136.50998,11.02809 -136.50998,11.02809 0,0 -55.79184,8.90158 -68.45866,3.9291 -12.66682,-4.97248 -26.86377,-20.71804 -26.86377,-20.71804 0,0 -6.66927,-9.58666 -7.49473,-22.90491 -0.82546,-13.31824 4.25948,-47.92962 4.25948,-47.92962 l 1.55217,-101.920733 c 0,0 10.49416,-30.058398 10.2259,-47.49973 -0.26827,-17.4413321 -5.50458,-24.1008747 -5.50458,-24.1008747 z"
     id="path22" /><path
     style="fill:#c2dcb6;fill-opacity:1;stroke:#767676;stroke-width:1;stroke-linecap:round;stroke-linejoin:round;stroke-dasharray:none;stroke-opacity:1;paint-order:stroke fill markers"
     d="m -248.76416,389.26241 c 0,-6.01251 5.13144,64.58343 -1.53548,-23.79086 -6.66692,-88.37428 8.26763,-140.89663 8.26763,-140.89663 0,0 12.0729,-25.82113 46.84097,-22.44668 34.76806,3.37446 71.59372,-30.09461 109.460516,-23.51488 37.86679,6.57974 62.716799,52.15147 62.716799,52.15147 0,0 83.37699,54.20186 81.697727,84.64639 -1.679263,30.44454 -28.805343,62.72954 -20.263325,74.75324 8.542017,12.02369 34.210657,20.91655 42.956892,37.67297 8.746235,16.75641 10.228909,26.97048 6.68595,38.49252 -3.542959,11.52204 -2.046117,28.28968 -12.756145,40.37324 -10.710029,12.08355 -61.898168,25.18299 -76.20397019,31.64904 -14.30580181,6.46606 -18.06362581,14.9924 -38.51163581,10.5479 -20.44801,-4.4445 -43.84435,-9.60628 -59.685725,-17.60799 -15.841373,-8.00172 -50.994693,-17.51544 -69.992353,-39.65781 -18.99765,-22.14236 -37.61633,-38.91973 -44.27273,-49.67218 -6.6564,-10.75245 -35.40512,-52.69974 -35.40512,-52.69974 z"
     id="path55" /><path
     style="fill:#c2dcb6;fill-opacity:1;stroke:#767676;stroke-width:1;stroke-linecap:round;stroke-linejoin:round;stroke-dasharray:none;stroke-opacity:1;paint-order:stroke fill markers"
     d="M 129.23434,490.14177 C 92.580536,477.65682 91.045047,475.19464 90.196236,464.25424 c -0.848812,-10.9404 -0.848812,-5.48219 -0.848812,-15.61612 0,-10.13392 10.347282,-7.07569 -4.751415,-20.3148 -15.098696,-13.2391 -17.192011,-15.32571 -25.523356,-23.81751 -8.331345,-8.4918 -20.398129,-17.41937 -20.398129,-17.41937 0,0 -7.3484,-6.08076 -2.903815,-15.65669 4.444585,-9.57593 8.727289,-13.37257 15.394125,-22.58567 6.666836,-9.21311 10.41636,-16.70293 10.41636,-16.70293 0,0 7.143596,-5.71978 5.608107,-17.30016 -1.535489,-11.58038 -1.381907,-12.84761 -5.980075,-26.28775 -4.598168,-13.44014 -9.204719,-11.81998 -7.50718,-27.13664 1.697539,-15.31666 3.526696,-24.6312 11.558755,-36.25066 8.03206,-11.61945 0.717194,-9.07293 18.780819,-19.98382 18.06363,-10.91089 22.00848,-13.4274 37.58545,-17.70105 15.57696,-4.27365 24.5633,-8.55124 30.43321,-27.44028 5.86992,-18.88905 5.01273,-22.23064 3.48562,-32.34613 -1.52711,-10.11548 -1.52702,-14.15867 -3.06259,-23.57255 -1.53558,-9.413887 -3.07115,-15.845487 -3.91988,-24.244485 -0.84873,-8.398998 -3.91115,-16.063785 -0.84873,-22.86685 3.06243,-6.803065 1.81843,-10.457355 7.11183,-18.297017 5.29339,-7.839663 17.16074,-17.928822 17.16074,-17.928822 0,0 -6.13877,-2.301725 10.48862,-2.301725 16.6274,0 28.01337,-1.535573 40.36628,0.848727 12.35291,2.384301 53.43714,19.643798 65.85778,23.393071 12.42064,3.749273 25.17352,11.742267 25.17352,11.742267 l 17.74699,47.502584 c 0,0 11.27372,18.9328 18.26457,20.99309 6.99085,2.06028 41.21308,13.58903 55.58159,12.93479 14.36851,-0.65423 39.18364,-0.65423 39.18364,-0.65423 0,0 7.86783,3.01741 4.61401,33.38984 -3.25381,30.37244 -2.7208,39.08808 -6.64889,59.95618 -3.92809,20.86809 -7.53787,46.36546 -20.99494,70.89539 -13.45707,24.52994 -26.66508,42.46052 -42.87884,66.19722 -16.21377,23.73671 -34.18987,43.2851 -46.38366,57.17643 -12.19379,13.89133 -33.2511,30.50272 -41.41478,36.96894 -8.16368,6.46622 -38.87891,27.93893 -69.63547,28.78765 -30.75656,0.84873 -92.07335,1.52661 -92.07335,1.52661 z"
     id="path56" /><path
     style="fill:#c2dcb6;fill-opacity:1;stroke:#767676;stroke-width:1;stroke-linecap:round;stroke-linejoin:round;stroke-dasharray:none;stroke-opacity:1;paint-order:stroke fill markers"
     d="m 379.49618,122.66543 c -47.48808,-11.16474 -54.30271,-5.97715 -58.35202,-16.94404 -4.04931,-10.966891 13.58425,6.65695 -10.51545,-19.817331 -24.0997,-26.474277 -18.23079,-23.996754 -31.6628,-32.672653 -13.43201,-8.675899 6.78915,6.08998 -21.63442,-12.271673 C 228.90792,22.59808 221.10473,17.179772 211.89154,9.5020753 202.67836,1.8243783 186.53351,-2.9070004 181.92695,-15.173644 c -4.60655,-12.266643 -10.91072,-30.645817 -10.91072,-30.645817 0,0 -0.8162,-14.258436 -1.66493,-19.858746 -0.84873,-5.60031 -7.1529,-13.031454 -2.3843,-41.796643 4.7686,-28.76518 6.47469,-37.6396 7.31495,-43.7191 0.84026,-6.0795 5.46987,-19.13518 7.50718,-26.60489 2.03732,-7.46971 3.92683,-9.5683 9.01953,-19.73668 5.0927,-10.16839 9.8613,-20.0296 18.87379,-30.41562 9.01249,-10.38601 10.1854,-12.54178 18.37951,-17.97719 8.19411,-5.43541 9.48883,-8.65528 20.46453,-10.71556 10.97569,-2.06029 22.81982,-3.07106 43.46852,-3.75782 20.64871,-0.68677 31.26577,-3.07098 49.61476,1.85958 18.349,4.93057 8.99011,-5.03653 41.46659,16.32736 32.47648,21.36389 40.30282,29.18025 52.96314,51.91254 12.66032,22.7323 19.45056,29.68442 26.27945,38.73564 6.82888,9.05122 12.31057,14.19095 22.57964,32.66871 10.26906,18.47777 12.51562,9.29694 20.21026,41.116672 7.69463,31.819734 10.08832,30.807616 10.07893,49.520697 -0.009,18.7130819 -7.02447,36.024137 -15.02618,54.735877 -8.00172,18.711741 -17.57455,33.987158 -30.02084,46.271406 -12.4463,12.284248 -27.75265,22.469312 -39.18809,29.984958 -11.43544,7.51565 -27.95729,13.13298 -33.54234,15.67933 -5.58505,2.54635 -17.91415,4.25437 -17.91415,4.25437 z"
     id="path57" /><path
     style="fill:#c2dcb6;fill-opacity:1;stroke:#767676;stroke-width:1;stroke-linecap:round;stroke-linejoin:round;stroke-dasharray:none;stroke-opacity:1;paint-order:stroke fill markers"
     d="m 21.415697,-223.12938 c 0,0 -26.3749344,6.53312 -50.056056,10.61496 -23.681122,4.08184 -47.490173,-0.88612 -60.198365,10.32531 -12.708196,11.21144 -23.930526,25.85375 -17.638846,45.27849 6.29169,19.42474 6.40377,23.75758 16.515648,36.08986 10.111878,12.33229 39.828991,23.437419 58.630182,41.381331 18.80119,17.943912 21.016063,17.768282 32.952236,39.939483 11.936173,22.171202 2.1910648,79.709372 2.1910648,79.709372 0,0 -10.2510412,0.460915 3.2584292,14.507673 13.50947,14.046757 19.606157,14.733519 19.606157,14.733519 0,0 33.969217,1.557453 43.846278,1.557453 9.877062,0 10.745574,-2.222251 22.867856,-2.222251 12.122279,0 15.216059,-0.709732 24.591299,-9.236072 9.37524,-8.526341 35.19955,-37.212389 44.07992,-46.779603 8.88037,-9.5672133 3.46743,-20.6480357 5.55789,-35.292021 2.09047,-14.643985 2.09642,-18.287712 -0.44104,-32.630736 -2.53747,-14.343024 -4.23492,-18.946473 -5.7705,-30.661997 -1.53557,-11.715524 -6.10289,-19.740461 -3.23311,-29.561851 2.86978,-9.8214 0.28512,-24.16836 5.09245,-32.4095 4.80733,-8.24114 7.88686,-14.34948 8.72712,-20.72617 0.84026,-6.37669 3.3867,-7.06345 -1.38199,-21.5313 -4.76868,-14.46786 -6.40234,-19.32197 -13.75594,-27.52438 -7.3536,-8.2024 -11.56412,-13.33526 -22.92729,-16.2545 -11.36317,-2.91924 -40.502258,-5.24955 -49.880176,-5.24955 -9.377918,0 -17.093173,2.1219 -23.051199,5.115 -5.958026,2.99309 -39.582018,10.82748 -39.582018,10.82748 z"
     id="path58" /><path
     style="fill:#c2dcb6;fill-opacity:1;stroke:#767676;stroke-width:1;stroke-linecap:round;stroke-linejoin:round;stroke-dasharray:none;stroke-opacity:1;paint-order:stroke fill markers"
     d="m 31.415993,-488.59848 c 0,0 -7.018349,-1.49961 -27.218045,15.78168 -20.199696,17.2813 -35.759643,13.79417 -32.487884,29.87506 3.271758,16.08089 6.478966,27.49277 30.3995149,49.35303 23.9205491,21.86026 15.9574841,-16.0492 47.9256021,38.71242 31.968119,54.76161 26.875419,40.47777 33.665657,62.90861 6.790239,22.43083 -0.887542,26.35062 13.094329,32.65479 13.981873,6.30418 34.840323,12.8093 51.121913,10.06225 16.28158,-2.74705 47.51582,-9.4117 47.51582,-9.4117 0,0 16.72875,-2.38439 36.72943,-2.38439 20.00068,0 41.94762,6.48274 55.79461,3.24971 13.84698,-3.23302 27.40499,8.40915 30.7589,-8.01361 3.35392,-16.42276 4.05057,-12.2669 3.35392,-38.25838 -0.69665,-25.99148 44.24038,6.10733 -12.0615,-45.60644 -56.30189,-51.71377 -59.10401,-48.00977 -85.2837,-65.86373 -26.17968,-17.85396 -25.46107,-16.33297 -57.91206,-33.66071 -32.451,-17.32774 -55.67649,-25.58145 -63.91545,-27.92241 -8.238959,-2.34096 -71.481057,-11.47618 -71.481057,-11.47618 z"
     id="path59" /><path
     style="fill:#c2dcb6;fill-opacity:1;stroke:#767676;stroke-width:1;stroke-linecap:round;stroke-linejoin:round;stroke-dasharray:none;stroke-opacity:1;paint-order:stroke fill markers"
     d="m -290.97669,-445.38967 c -8.74351,3.46424 -46.18531,8.17785 -54.51104,26.36487 -8.32573,18.18703 -24.96758,38.65097 -24.16714,49.34499 0.80044,10.69401 17.94609,22.16902 48.44109,20.78258 30.495,-1.38643 31.19312,-0.91646 58.27825,-3.83419 27.08513,-2.91773 35.55454,-1.90696 72.13835,-8.41409 36.58381,-6.50713 28.79277,14.29541 65.34363,-12.51336 36.550861,-26.80877 37.631219,-23.61574 44.876589,-34.28577 7.245369,-10.67004 18.279496,-17.2595 24.745635,-33.94969 6.46614,-16.69019 13.93484,-20.40081 7.314951,-31.61904 -6.61989,-11.21822 -14.135453,-22.12886 -33.047974,-23.66443 -18.912521,-1.53558 -39.186911,-2.15494 -52.979571,0.84872 -13.79266,3.00366 -42.29738,5.15331 -62.62207,11.9822 -20.32469,6.82889 -68.86957,23.67634 -68.86957,23.67634 z"
     id="path60" /><path
     style="fill:#c2dcb6;fill-opacity:1;stroke:#767676;stroke-width:1;stroke-linecap:round;stroke-linejoin:round;stroke-dasharray:none;stroke-opacity:1;paint-order:stroke fill markers"
     d="m -170.56856,-342.07806 c 0,0 7.77486,0.61106 -23.25986,2.99536 -31.03472,2.3843 -50.6291,3.39507 -63.37275,4.08184 -12.74366,0.68676 -57.40085,0.3619 -66.93952,4.08603 -9.53867,3.72412 -30.53407,8.80164 -39.38455,19.34971 -8.85048,10.54806 -19.23645,11.11142 -22.63157,33.17959 -3.39512,22.06817 -8.16372,35.14129 -5.09266,53.54368 3.07106,18.4024 -2.87032,18.76523 13.13306,34.76857 16.00338,16.00334 23.92273,28.02964 29.6612,31.19669 5.73846,3.16705 2.69745,7.07837 20.88444,4.69399 18.18699,-2.38439 32.22729,-20.02055 56.27112,-27.17345 24.04382,-7.1529 28.49931,-10.20099 34.51157,-9.51423 6.01227,0.68676 3.82875,2.42303 28.92204,10.78749 25.09329,8.36446 39.15967,11.59757 50.95793,13.13306 11.79827,1.53549 26.94517,6.29319 39.22942,-1.54656 12.28425,-7.83974 10.61052,-9.0363 17.56909,-19.74439 6.958579,-10.7081 10.881554,-19.56181 27.57174,-28.08824 16.690187,-8.52642 22.754346,-9.79138 43.450921,-19.71531 20.6965759,-9.92392 25.8197911,-8.21666 39.358939,-20.02289 13.539147,-11.80623 16.772342,-7.64693 20.368116,-23.0797 3.595775,-15.43277 18.214442,-1.52149 0.524713,-35.71119 -17.68973,-34.1897 -17.041699,-37.46145 -28.4772201,-42.75485 -11.4355206,-5.2934 -15.2778479,-9.37524 -29.6224649,-11.07278 -14.344617,-1.69753 -20.913285,-7.41144 -48.723024,-0.84881 -27.80974,6.56263 -84.3741,18.72784 -84.3741,18.72784 z"
     id="path61" /></g><g
   id="g62"
   style="fill:#d7eec0;fill-opacity:1;stroke-width:0.2;stroke-dasharray:none;stroke:#9f9f9f;stroke-opacity:0.6095711"><path
     class="fil0"
     d="m -370.40256,242.31916 c 3.96619,6.14182 16.48527,7.44305 21.04765,2.08846 2.4872,-2.91897 4.71538,-4.54032 5.94819,-10.52523 3.03585,-14.7382 1.34456,-11.17449 1.82763,-25.49292 0.76914,-22.80346 5.72606,-32.6695 -0.31804,-59.54346 -2.76562,-12.29581 -6.21323,-23.29581 -10.59227,-34.2426 -8.34906,-20.871456 -9.56328,-37.659786 -21.78509,-56.279571 -4.08805,-6.227937 -7.36626,-13.710207 -12.69914,-18.040411 -6.4217,-5.21482 -14.88743,-12.647945 -21.7881,-14.977616 -2.41944,-0.816986 -7.06024,-4.418125 -10.48298,-5.395171 -6.8687,-1.960855 -27.78301,-0.320121 -33.75197,6.566544 -7.15806,8.258677 -12.73002,18.888957 -15.49318,32.684379 -4.77058,23.817021 1.32816,32.000403 13.90025,45.992406 16.43391,18.28929 30.3,30.36147 42.98876,57.21694 3.23503,6.84699 11.60076,28.70405 14.07047,37.68774 1.29374,4.70623 5.98891,16.04619 8.35371,19.39709 3.03448,4.3009 8.53048,13.45997 12.0759,16.23376 0.49509,0.3873 6.59438,6.4687 6.69821,6.62966 z"
     id="path1"
     style="clip-rule:evenodd;fill:#d7eec0;fill-opacity:1;fill-rule:evenodd;stroke-width:0.2;image-rendering:optimizeQuality;shape-rendering:geometricPrecision;text-rendering:geometricPrecision;stroke-dasharray:none;stroke:#9f9f9f;stroke-opacity:0.6095711" /><path
     class="fil0"
     d="m 228.39081,29.906991 c -6.19765,-2.157888 -10.90429,-8.300158 -17.58502,-10.077507 -4.12138,-1.096528 -3.53367,-1.144321 -7.97692,-1.588884 -12.35487,-1.235848 -24.83761,-5.214369 -35.34927,8.265441 -8.89634,11.40849 -3.91838,11.056357 -9.52285,25.081725 -1.43418,3.589416 -0.61914,15.931668 0.31831,20.359712 2.03801,9.627985 0.86231,11.914823 4.85828,23.080291 6.28373,17.556171 21.86516,48.838331 34.27467,55.242111 7.03701,3.63134 8.52147,6.33028 16.6279,7.62384 6.82471,1.08886 7.92063,1.00635 14.54917,-1.79809 0.53553,-0.22634 7.72418,-5.695 8.28594,-6.32127 5.83699,-6.51063 10.50866,-10.31692 16.36259,-17.92498 6.3023,-8.1906 9.02694,-9.37505 14.75546,-20.15547 3.48613,-6.56023 19.14215,-24.491978 20.62059,-33.673146 1.38883,-8.622984 3.54324,-12.992865 -0.48908,-19.994503 -0.95821,-1.663278 -59.61474,-28.079142 -59.72977,-28.11927 z"
     id="path2"
     style="clip-rule:evenodd;fill:#d7eec0;fill-opacity:1;fill-rule:evenodd;stroke-width:0.2;image-rendering:optimizeQuality;shape-rendering:geometricPrecision;text-rendering:geometricPrecision;stroke-dasharray:none;stroke:#9f9f9f;stroke-opacity:0.6095711" /><path
     class="fil0"
     d="m -70.790298,-52.497629 c -0.747281,-15.319831 -7.465436,-30.112589 -15.961218,-36.148903 -3.474927,-2.468992 -16.251664,-1.321966 -19.526314,0.798048 -9.85728,6.382587 -8.73021,25.146201 -13.62183,40.356018 -5.3102,16.512395 -9.60509,30.733444 -21.26159,35.799024 -16.90085,7.3443031 -21.28891,3.0109435 -35.40774,23.507721 -7.82064,11.353483 -8.92858,36.406804 -5.94874,51.799676 4.66429,24.095211 9.79635,38.878045 24.28951,47.589405 6.81843,4.098 22.12226,0.63799 26.26523,-8.6586 1.19647,-2.684964 7.66271,-16.05972 8.99114,-17.573307 6.15285,-7.010655 17.56726,-5.566052 24.123666,1.133049 8.981311,9.17756 15.91395,12.981593 27.025627,9.993193 6.744112,-1.81387 13.569918,-12.697091 14.526493,-23.867519 2.229549,-26.031268 -1.323248,-42.783979 -6.794112,-66.8566464 -1.618882,-7.1233741 -8.086486,-35.0708606 -8.164356,-40.6666706 -0.128144,-9.194694 -0.906027,-7.379922 1.495382,-16.671554 0.07323,-0.282699 -0.01885,-0.278641 -0.03115,-0.532934 z"
     id="path3"
     style="clip-rule:evenodd;fill:#d7eec0;fill-opacity:1;fill-rule:evenodd;stroke-width:0.2;image-rendering:optimizeQuality;shape-rendering:geometricPrecision;text-rendering:geometricPrecision;stroke-dasharray:none;stroke:#9f9f9f;stroke-opacity:0.6095711" /><path
     class="fil0"
     d="m -250.04792,221.84538 c -1.79211,-7.77444 -10.29418,-23.16641 -15.19891,-28.1869 -14.40245,-14.74226 -34.01127,-22.24978 -50.82579,-18.02283 -7.23073,1.81748 -18.09759,11.82465 -20.80229,23.37336 -2.00358,8.5549 -4.19515,18.26765 -2.97409,27.68643 3.1047,23.94778 26.8289,31.06484 39.08841,32.44722 9.22476,1.04017 17.99186,1.43604 27.24749,0.83412 3.02328,-0.19658 17.20386,-5.35324 19.36128,-7.27171 5.96814,-5.3068 7.49057,-21.23306 4.17767,-29.85289 -0.076,-0.19748 -0.0355,-0.84088 -0.0738,-1.0068 z"
     id="path4"
     style="clip-rule:evenodd;fill:#d7eec0;fill-opacity:1;fill-rule:evenodd;stroke-width:0.2;image-rendering:optimizeQuality;shape-rendering:geometricPrecision;text-rendering:geometricPrecision;stroke-dasharray:none;stroke:#9f9f9f;stroke-opacity:0.6095711" /><path
     class="fil0"
     d="m -92.507358,95.51787 c -3.025738,-3.68951 -12.547492,-11.518503 -16.445112,-11.946835 -5.62551,-0.6186 -9.00999,-0.559986 -13.86282,4.950157 -4.50909,5.119686 -6.60831,19.535958 -6.27525,28.016918 0.39291,10.00267 9.83843,22.38775 15.69892,22.29442 5.13589,-0.0816 4.32331,-0.42157 8.90044,-1.96897 8.478294,-2.86621 7.226905,-4.64266 11.152932,-15.25987 2.336381,-6.31856 3.933951,-16.4141 2.368349,-23.566781 -0.08825,-0.402181 -1.432813,-2.391441 -1.537459,-2.519039 z"
     id="path5"
     style="clip-rule:evenodd;fill:#d7eec0;fill-opacity:1;fill-rule:evenodd;stroke-width:0.2;image-rendering:optimizeQuality;shape-rendering:geometricPrecision;text-rendering:geometricPrecision;stroke-dasharray:none;stroke:#9f9f9f;stroke-opacity:0.6095711" /><path
     class="fil0"
     d="m 124.27663,23.212399 c -3.02574,-3.68951 -12.5475,-11.518504 -16.44511,-11.946835 -5.62551,-0.6186 -9.009998,-0.559987 -13.862818,4.950157 -4.509098,5.119685 -6.608317,19.535963 -6.275251,28.016921 0.392904,10.002662 9.83843,22.387748 15.698919,22.294417 5.13589,-0.08161 4.3233,-0.421569 8.90043,-1.968972 8.4783,-2.866212 7.22691,-4.642659 11.15294,-15.259864 2.33638,-6.318562 3.93395,-16.414104 2.36835,-23.566785 -0.0882,-0.402181 -1.43281,-2.391441 -1.53746,-2.519039 z"
     id="path6"
     style="clip-rule:evenodd;fill:#d7eec0;fill-opacity:1;fill-rule:evenodd;stroke-width:0.2;image-rendering:optimizeQuality;shape-rendering:geometricPrecision;text-rendering:geometricPrecision;stroke-dasharray:none;stroke:#9f9f9f;stroke-opacity:0.6095711" /><path
     class="fil0"
     d="m -69.36213,184.16395 c -6.438095,-3.34729 -17.250586,-4.59261 -22.641121,3.52675 -4.373303,6.58683 -4.023024,13.34545 -3.974935,22.77685 0.09044,17.75952 7.852328,35.79587 19.421117,36.15026 4.968669,0.15194 14.547532,0.84674 18.877392,-2.24536 10.289257,-7.34746 9.389787,-21.79079 7.121714,-37.00106 -1.98255,-13.26474 -10.604564,-18.94351 -18.804167,-23.20744 z"
     id="path8"
     style="clip-rule:evenodd;fill:#d7eec0;fill-opacity:1;fill-rule:evenodd;stroke-width:0.2;image-rendering:optimizeQuality;shape-rendering:geometricPrecision;text-rendering:geometricPrecision;stroke-dasharray:none;stroke:#9f9f9f;stroke-opacity:0.6095711" /><path
     class="fil0"
     d="m -239.37724,-16.831162 c -9.66656,-5.026806 -25.9021,-6.895683 -33.99597,5.295527 -6.56651,9.8903935 -6.04027,20.0382371 -5.96841,34.19977 0.0885,17.433984 -4.12795,40.809598 4.18614,51.062946 4.40309,5.428535 18.96182,3.033487 24.97477,3.216994 7.46024,0.227241 21.484,-0.459893 28.34478,-3.371644 69.71984,-29.599493 17.1596,-72.3604776 -17.54131,-90.403593 z"
     id="path9"
     style="clip-rule:evenodd;fill:#d7eec0;fill-opacity:1;fill-rule:evenodd;stroke-width:0.2;image-rendering:optimizeQuality;shape-rendering:geometricPrecision;text-rendering:geometricPrecision;stroke-dasharray:none;stroke:#9f9f9f;stroke-opacity:0.6095711" /><path
     class="fil0"
     d="M -13.610026,123.93201 C -15.73684,118.87906 -39.295464,99.873774 -44.23927,97.3624 c -8.982676,-4.563306 -29.36474,-6.511086 -33.462082,11.60192 -1.809596,7.99987 -3.448696,35.89776 -1.142097,44.09963 1.668882,5.93396 1.341554,7.93946 4.261006,14.57408 8.543051,19.41468 30.402737,23.40718 42.564707,12.25659 10.363575,-9.50174 20.832345,-29.71041 19.637787,-50.51829 -0.07486,-1.30303 -1.066959,-5.05656 -1.230077,-5.44432 z"
     id="path10"
     style="clip-rule:evenodd;fill:#d7eec0;fill-opacity:1;fill-rule:evenodd;stroke-width:0.2;image-rendering:optimizeQuality;shape-rendering:geometricPrecision;text-rendering:geometricPrecision;stroke-dasharray:none;stroke:#9f9f9f;stroke-opacity:0.6095711" /><path
     class="fil0"
     d="m -276.43556,162.38714 c 4.50691,0.9536 32.71508,38.03086 49.74926,39.17247 7.42254,0.49777 19.8878,-0.34176 23.13485,-13.63806 2.95962,-12.11817 4.26292,-24.62409 3.30033,-37.72066 -1.16122,-15.79776 -10.6674,-32.06938 -18.24896,-40.82177 -15.79428,-18.233385 -29.83196,-19.217645 -48.45662,-25.427997 -7.86954,-2.624543 -15.34263,-4.519571 -23.27747,-7.404269 -8.02501,-2.917612 -31.20685,-5.866786 -37.38866,5.800957 -12.08573,22.811119 7.50069,44.855749 18.40826,54.284449 5.38944,4.65889 10.85129,8.41333 16.39511,13.07087 4.75746,3.99745 8.42064,6.56609 13.16745,11.0302 1.28062,1.20429 2.42354,0.90716 3.12711,1.97664 z"
     id="path11"
     style="clip-rule:evenodd;fill:#d7eec0;fill-opacity:1;fill-rule:evenodd;stroke-width:0.2;image-rendering:optimizeQuality;shape-rendering:geometricPrecision;text-rendering:geometricPrecision;stroke-dasharray:none;stroke:#9f9f9f;stroke-opacity:0.6095711" /><path
     class="fil0"
     d="m -196.89177,350.65541 c -5.71813,-4.41091 -12.26169,-2.95053 -18.42738,-2.95053 -14.59862,0 -17.229,1.84273 -25.84063,22.21101 -2.33365,5.51961 -3.59351,13.66782 -1.26314,19.72443 1.3544,3.51998 15.65712,2.71066 18.54159,1.88105 5.9859,-1.72145 10.58134,-3.18589 16.50741,-6.07059 5.15419,-2.50911 8.2026,-2.13309 13.18275,-2.74763 3.13339,-0.3864 6.35695,-2.92437 8.11791,-7.1919 4.25636,-10.30836 -5.23616,-20.54953 -10.81851,-24.85584 z"
     id="path12"
     style="clip-rule:evenodd;fill:#d7eec0;fill-opacity:1;fill-rule:evenodd;stroke-width:0.2;image-rendering:optimizeQuality;shape-rendering:geometricPrecision;text-rendering:geometricPrecision;stroke-dasharray:none;stroke:#9f9f9f;stroke-opacity:0.6095711" /><path
     class="fil0"
     d="m -113.38916,316.22659 c 0,-21.54912 -10.96632,-36.06278 -18.42984,-53.59235 -5.02632,-11.80526 -12.0024,-23.34811 -20.95694,-25.71295 -7.28674,-1.92479 -31.83527,-25.56461 -39.17339,-25.30987 -39.84225,1.38554 -39.72804,-3.45821 -53.20287,34.53116 -20.51021,57.82517 56.37206,98.22763 59.36637,110.03379 8.40945,33.15735 45.7399,23.84498 60.78635,11.70923 4.26647,-3.44108 9.63652,-13.56007 10.71113,-21.56986 1.31696,-9.8142 0.89919,-20.02697 0.89919,-30.08915 z"
     id="path13"
     style="clip-rule:evenodd;fill:#d7eec0;fill-opacity:1;fill-rule:evenodd;stroke-width:0.2;image-rendering:optimizeQuality;shape-rendering:geometricPrecision;text-rendering:geometricPrecision;stroke-dasharray:none;stroke:#9f9f9f;stroke-opacity:0.6095711" /><path
     class="fil0"
     d="m -91.117442,384.58601 c 0.189894,-0.11227 44.23113,-1.84634 45.63662,-1.64885 8.790596,1.23584 16.887465,-14.36939 25.485981,-14.10067 15.8904524,0.49642 38.023368,1.55507 38.701249,-33.07303 0.230605,-11.76964 -0.790452,-17.27708 -5.806936,-26.34012 -14.0338614,-25.35496 -46.961781,-57.38466 -68.570097,-56.58616 -5.547368,0.20469 -21.51569,3.77337 -26.444742,7.01065 -6.985372,4.58765 -20.629883,16.32168 -23.993053,27.40554 -4.4061,14.52133 -5.42387,18.54539 -3.0588,34.91756 1.61505,11.17854 4.25718,16.76579 7.30969,26.31983 4.011277,12.55596 0.44646,38.28064 10.740088,36.09525 z"
     id="path14"
     style="clip-rule:evenodd;fill:#d7eec0;fill-opacity:1;fill-rule:evenodd;stroke-width:0.2;image-rendering:optimizeQuality;shape-rendering:geometricPrecision;text-rendering:geometricPrecision;stroke-dasharray:none;stroke:#9f9f9f;stroke-opacity:0.6095711" /><path
     class="fil0"
     d="M 96.109724,88.087901 C 85.723197,84.961083 81.360823,83.189595 70.633033,83.901076 63.28973,84.38757 55.945061,93.785158 51.966301,103.52631 49.69003,109.10003 39.5893,137.73375 36.794714,144.03608 31.898177,155.07756 8.0237002,187.0996 0.7336773,193.56334 -5.07845,198.71685 -17.707368,222.8842 2.7430034,227.45381 7.772876,228.57739 45.97876,210.66098 51.322027,202.33963 57.864495,192.1503 70.190675,178.60151 79.14275,176.39087 c 8.317364,-2.05419 27.86225,-11.42382 34.61647,-16.33971 12.16635,-8.85474 8.13786,-30.08103 5.33425,-46.17591 C 115.88604,95.466921 107.30009,91.456839 96.109724,88.087901 Z"
     id="path15"
     style="clip-rule:evenodd;fill:#d7eec0;fill-opacity:1;fill-rule:evenodd;stroke-width:0.2;image-rendering:optimizeQuality;shape-rendering:geometricPrecision;text-rendering:geometricPrecision;stroke-dasharray:none;stroke:#9f9f9f;stroke-opacity:0.6095711" /><path
     class="fil0"
     d="m -439.16938,-202.63991 c -11.06878,-5.19047 -20.7624,-0.95811 -30.79346,6.96647 -24.17831,19.10087 -37.43292,49.93802 -51.18781,86.41606 -8.12693,21.552726 -12.33192,65.074337 -4.66539,88.331822 8.94497,27.1354608 14.68961,29.904735 31.66697,39.690075 3.36864,1.941919 10.50511,4.327498 13.8202,1.864819 8.83786,-6.566092 14.67075,-13.1637464 18.08366,-28.805051 11.78354,-54.005357 59.93196,-118.637835 50.77769,-146.089815 -5.35911,-16.07144 -10.69445,-40.3984 -27.70186,-48.37438 z"
     id="path16"
     style="clip-rule:evenodd;fill:#d7eec0;fill-opacity:1;fill-rule:evenodd;stroke-width:0.2;image-rendering:optimizeQuality;shape-rendering:geometricPrecision;text-rendering:geometricPrecision;stroke-dasharray:none;stroke:#9f9f9f;stroke-opacity:0.6095711" /><path
     class="fil0"
     d="m -295.33126,-407.68478 c -0.6246,-2.5001 -5.65529,-12.92208 -7.25204,-14.16424 -3.35662,-2.61192 -16.28418,0.5424 -19.77632,2.64844 -2.27599,1.37292 -2.87491,1.47256 -5.16648,3.31393 -6.21296,4.99344 -10.89856,7.43809 -15.45411,16.9236 -3.4823,7.25052 0.55766,17.186 5.2113,19.34073 3.44651,1.5961 6.15967,0.34357 9.70099,1.06677 4.48287,0.91573 12.20214,-0.94594 16.48036,-3.28733 2.94131,-1.61007 11.77098,-6.19683 13.29314,-11.08341 0.71039,-2.28098 1.18526,-3.89556 1.85221,-6.17744 0.58116,-1.98791 1.6126,-6.5733 1.11095,-8.58105 z"
     id="path17"
     style="clip-rule:evenodd;fill:#d7eec0;fill-opacity:1;fill-rule:evenodd;stroke-width:0.2;image-rendering:optimizeQuality;shape-rendering:geometricPrecision;text-rendering:geometricPrecision;stroke-dasharray:none;stroke:#9f9f9f;stroke-opacity:0.6095711" /><path
     class="fil0"
     d="m -89.165221,-430.46479 c -1.275706,-3.02672 -9.662471,-19.28212 -13.080289,-19.73209 -7.89277,-1.03837 -36.35094,6.33614 -42.51881,6.25544 -4.81948,-0.0627 -11.99202,0.16186 -16.75167,2.30262 -12.9057,5.80411 -16.92052,8.86014 -26.4237,20.1221 -7.26379,8.60855 1.03663,20.68975 10.66276,23.43197 7.12909,2.03119 15.37924,3.9438 22.71134,4.92851 22.42746,3.0123 33.14569,-11.97253 39.03213,-14.2765 9.35837,-3.66426 22.429643,-6.73833 23.827209,-9.46026 1.216962,-2.3716 3.565639,-11.14022 2.54103,-13.57179 z"
     id="path18"
     style="clip-rule:evenodd;fill:#d7eec0;fill-opacity:1;fill-rule:evenodd;stroke-width:0.2;image-rendering:optimizeQuality;shape-rendering:geometricPrecision;text-rendering:geometricPrecision;stroke-dasharray:none;stroke:#9f9f9f;stroke-opacity:0.6095711" /><path
     class="fil0"
     d="m 45.992695,485.00985 c -6.278529,-6.54355 -15.325688,-4.96279 -22.105865,-1.83507 -7.202044,3.32205 -13.705987,6.16617 -20.7154036,10.63389 -2.1240822,1.35398 -4.5672959,1.15559 -6.973897,3.10878 -1.6270787,1.32017 -11.2682374,3.46137 -13.6811224,3.46137 -5.562942,0 -6.916792,-0.15871 -12.302682,-1.31926 -2.743493,-0.59064 -13.448878,-0.98877 -14.607369,3.80674 -0.690176,2.85584 -1.351391,0.5947 -1.512049,6.70586 -0.130877,4.98172 6.481811,11.02119 8.853439,12.59655 9.63706,6.39972 16.319422,4.57458 26.723162,4.57458 14.5057279,0 16.1180523,-1.51945 29.929232,-7.94442 8.078288,-3.75804 15.516128,-10.37509 22.968996,-16.60843 3.591595,-3.00418 4.142425,-10.18752 3.702799,-16.08722 -0.0123,-0.16547 -0.13197,-0.93963 -0.27924,-1.09337 z"
     id="path19"
     style="clip-rule:evenodd;fill:#d7eec0;fill-opacity:1;fill-rule:evenodd;stroke-width:0.2;image-rendering:optimizeQuality;shape-rendering:geometricPrecision;text-rendering:geometricPrecision;stroke-dasharray:none;stroke:#9f9f9f;stroke-opacity:0.6095711" /><path
     class="fil0"
     d="m -200.48964,-462.57115 c 5.90311,0 20.7184,-2.50551 18.36317,14.4253 -1.02106,7.33844 -8.60945,17.09357 -11.97098,22.82013 -7.2362,12.32648 -18.33859,16.45649 -28.40079,16.45649 -6.54629,0 -11.29775,0.23671 -17.91016,1.31791 -6.2299,1.01853 -13.809,0.81743 -20.10829,0.81743 -8.98596,0 -18.42984,0.36792 -27.36716,0.11588 -4.58014,-0.12895 -8.2242,-4.60208 -10.51058,-11.03336 -4.06619,-11.4378 4.52741,-15.06599 9.29061,-18.4976 2.25906,-1.62766 11.47152,-6.52236 14.08004,-7.60446 12.44421,-5.16026 20.71813,-9.99905 34.03313,-11.87514 6.8463,-0.96443 15.02377,-2.11776 21.73673,-3.83424 3.69406,-0.94459 7.03647,-2.38694 10.83025,-2.45863 2.71836,-0.0514 4.93288,-0.64971 7.93403,-0.64971 z"
     id="path20"
     style="clip-rule:evenodd;fill:#d7eec0;fill-opacity:1;fill-rule:evenodd;stroke-width:0.2;image-rendering:optimizeQuality;shape-rendering:geometricPrecision;text-rendering:geometricPrecision;stroke-dasharray:none;stroke:#9f9f9f;stroke-opacity:0.6095711" /><path
     class="fil0"
     d="m 5.4881351,-313.69042 c 6.4741609,0 22.7222699,-2.50551 20.1391629,14.4253 -1.119692,7.33844 -9.441974,17.09402 -13.128653,22.82013 -7.9359365,12.32647 -19.1855941,17.86773 -30.22104,17.86773 -7.179365,0 -16.357128,19.51161 -23.634309,19.15993 -15.454925,-0.74755 -25.440625,-6.87674 -41.07998,-6.44075 -42.369076,1.1822 -50.694086,-3.08669 -48.310986,-30.90973 1.24729,-14.56282 0.9063,-17.54761 6.31596,-22.54646 10.00592,-9.24519 33.424379,-12.85039 35.278238,-13.55105 13.647788,-5.15846 22.508331,9.52113 37.110782,7.64594 7.508333,-0.96397 29.589608,-3.64668 36.951763,-5.36271 4.051167,-0.94458 7.7170802,-2.38693 11.8778114,-2.45862 2.98120161,-0.0514 5.4099342,-0.64971 8.7012507,-0.64971 z"
     id="path21"
     style="clip-rule:evenodd;fill:#d7eec0;fill-opacity:1;fill-rule:evenodd;stroke-width:0.2;image-rendering:optimizeQuality;shape-rendering:geometricPrecision;text-rendering:geometricPrecision;stroke-dasharray:none;stroke:#9f9f9f;stroke-opacity:0.6095711" /><path
     class="fil0"
     d="m -108.39125,-454.22771 c -3.36236,-0.89588 -13.02018,7.20093 -16.50631,7.0544 -3.28449,-0.13797 -7.16161,-1.31836 -10.39773,-2.18089 -4.61648,-1.23134 -9.49854,-2.26655 -14.06911,-3.66787 -2.34239,-0.71779 -3.84406,-4.35635 -4.48642,-9.18342 -1.14237,-8.58421 3.57274,-9.95351 6.30367,-11.70922 12.66334,-8.14776 15.34126,0.849 25.97314,1.61999 5.21294,0.37784 12.9486,-9.77407 17.6077,-8.6559 27.239566,6.5395 12.250769,31.16809 -4.42494,26.72291 z"
     id="path23"
     style="clip-rule:evenodd;fill:#d7eec0;fill-opacity:1;fill-rule:evenodd;stroke-width:0.2;image-rendering:optimizeQuality;shape-rendering:geometricPrecision;text-rendering:geometricPrecision;stroke-dasharray:none;stroke:#9f9f9f;stroke-opacity:0.6095711" /><path
     class="fil0"
     d="m 122.19326,-339.41915 c -15.45301,-4.89921 -25.783257,-6.26581 -28.500793,23.32196 -0.91641,9.9711 0.190714,15.55564 3.744331,23.86166 3.309892,7.73701 9.835152,14.93433 15.397272,16.76173 10.29144,3.38111 14.90628,3.54207 25.48434,3.30897 5.25584,-0.11542 13.54233,-5.60122 16.44675,-13.62319 2.10386,-5.80997 3.23585,-14.40275 2.27709,-21.06533 -2.08118,-14.46948 -26.17233,-29.81411 -34.84899,-32.5658 z"
     id="path24"
     style="clip-rule:evenodd;fill:#d7eec0;fill-opacity:1;fill-rule:evenodd;stroke-width:0.2;image-rendering:optimizeQuality;shape-rendering:geometricPrecision;text-rendering:geometricPrecision;stroke-dasharray:none;stroke:#9f9f9f;stroke-opacity:0.6095711" /><path
     class="fil0"
     d="m 101.49807,-220.697 c -30.060105,-11.78903 -48.748968,-19.53777 -56.624248,12.4189 -2.654966,10.76915 -2.657152,16.16883 3.644602,26.90281 5.870052,9.99861 12.21115,9.53375 23.024734,13.84818 13.730851,5.47768 15.617497,19.81685 26.403758,22.27908 4.930964,1.12539 24.652084,3.02628 31.203294,4.3009 10.37478,2.01812 27.18438,-0.72681 33.5946,-8.50531 4.64326,-5.63323 7.60642,-14.77382 6.28181,-22.61183 -2.8741,-17.02098 -50.65092,-42.01343 -67.52855,-48.63273 z"
     id="path25"
     style="clip-rule:evenodd;fill:#d7eec0;fill-opacity:1;fill-rule:evenodd;stroke-width:0.2;image-rendering:optimizeQuality;shape-rendering:geometricPrecision;text-rendering:geometricPrecision;stroke-dasharray:none;stroke:#9f9f9f;stroke-opacity:0.6095711" /><path
     class="fil0"
     d="M 95.428291,-48.660683 C 89.366706,-27.137714 78.370605,0.33049275 89.076537,4.5150636 102.36284,9.7086928 116.98333,10.911176 128.72835,8.9417544 138.2889,7.3375411 145.94478,3.629996 149.42463,-1.740827 c 9.23787,-14.256667 18.29623,-23.872479 -1.58528,-38.529523 -16.87244,-12.438289 -39.87941,-52.698721 -52.411059,-8.390333 z"
     id="path26"
     style="clip-rule:evenodd;fill:#d7eec0;fill-opacity:1;fill-rule:evenodd;stroke-width:0.2;image-rendering:optimizeQuality;shape-rendering:geometricPrecision;text-rendering:geometricPrecision;stroke-dasharray:none;stroke:#9f9f9f;stroke-opacity:0.6095711" /><path
     class="fil0"
     d="m -55.829097,-199.38955 c -21.494926,-5.11202 -35.864312,-6.53814 -39.644435,24.33553 -1.274887,10.40484 0.265578,16.23195 5.208291,24.89867 4.604182,8.07292 9.26137,18.52465 16.998396,20.43095 14.315013,3.52719 33.85034,32.161364 48.564542,31.919695 7.309968,-0.119933 15.7011043,-27.019585 17.7451304,-39.388445 1.2358148,-7.47686 0.9369022,-21.26281 -0.3967285,-28.2153 -2.8951349,-15.098 -36.4058519,-31.10948 -48.4751959,-33.9811 z"
     id="path27"
     style="clip-rule:evenodd;fill:#d7eec0;fill-opacity:1;fill-rule:evenodd;stroke-width:0.2;image-rendering:optimizeQuality;shape-rendering:geometricPrecision;text-rendering:geometricPrecision;stroke-dasharray:none;stroke:#9f9f9f;stroke-opacity:0.6095711" /><path
     class="fil0"
     d="m 66.348802,-165.60098 c 14.218564,17.6477 8.933769,33.13842 0.456019,50.87809 -5.586986,11.69119 -10.336253,27.573714 -19.70063,34.293555 -19.879869,14.264783 -41.8832738,10.379142 -53.3894935,-3.437471 -5.9104895,-7.096322 -3.2842126,-37.040284 -0.5986447,-49.070984 1.622707,-7.27261 6.71487588,-18.21309 10.2458142,-22.5974 3.9118196,-4.85908 16.878448,5.86994 32.248672,4.06058 14.757099,-1.73677 20.427967,-18.77849 30.738263,-14.12637 z"
     id="path28"
     style="clip-rule:evenodd;fill:#d7eec0;fill-opacity:1;fill-rule:evenodd;stroke-width:0.2;image-rendering:optimizeQuality;shape-rendering:geometricPrecision;text-rendering:geometricPrecision;stroke-dasharray:none;stroke:#9f9f9f;stroke-opacity:0.6095711" /><path
     class="fil0"
     d="m -165.72371,-244.21284 c -35.39136,-4.8992 -64.23478,-3.93253 -70.45839,25.65524 -2.09894,9.9711 0.43662,15.55564 8.5753,23.86166 7.58046,7.73656 22.71462,17.37267 35.40638,19.93769 19.36483,3.9136 30.30191,15.70984 54.45071,12.4951 8.65999,-1.15289 25.78134,-18.85739 34.805,-24.56547 5.57169,-3.52404 22.3403,-15.66701 20.144358,-22.32959 7.232645,-14.99069 0.09645,-26.00015 -20.201458,-33.13345 -11.50403,-4.04299 -55.53325,-0.92564 -62.7219,-1.92118 z"
     id="path29"
     style="clip-rule:evenodd;fill:#d7eec0;fill-opacity:1;fill-rule:evenodd;stroke-width:0.2;image-rendering:optimizeQuality;shape-rendering:geometricPrecision;text-rendering:geometricPrecision;stroke-dasharray:none;stroke:#9f9f9f;stroke-opacity:0.6095711" /><path
     class="fil0"
     d="m 185.41681,-414.21029 c -5.64983,3.24314 -11.77399,4.90281 -16.93064,9.86965 -25.64964,24.7066 -10.2939,56.70204 2.94514,81.73417 8.98841,16.99438 20.04927,24.80714 33.01043,36.37389 8.65016,7.71988 24.55482,14.78194 34.41811,17.63011 10.0133,2.89056 19.59544,-0.6691 29.61803,2.38378 29.04206,8.84301 39.78378,1.78637 35.69108,-40.14546 -2.98803,-30.61261 -15.22596,-39.76853 -30.40683,-57.7607 -17.74541,-21.03106 -35.57852,-34.29265 -57.25459,-48.26346 -11.44721,-7.37812 -19.06182,-8.72623 -31.09073,-1.82198 z"
     id="path30"
     style="clip-rule:evenodd;fill:#d7eec0;fill-opacity:1;fill-rule:evenodd;stroke-width:0.2;image-rendering:optimizeQuality;shape-rendering:geometricPrecision;text-rendering:geometricPrecision;stroke-dasharray:none;stroke:#9f9f9f;stroke-opacity:0.6095711" /><path
     class="fil0"
     d="m 272.52959,-200.48112 c 9.12148,-3.65614 18.57001,-9.81149 27.64039,-13.62679 6.94412,-2.92032 23.73486,-17.54806 15.50684,-32.24884 -2.67846,-4.78513 -3.64979,-7.7573 -7.97965,-9.86649 -11.47179,-5.58815 -28.63194,-6.06157 -40.75894,-3.57544 -13.73057,2.81391 -24.45864,3.93253 -35.84382,18.3709 -6.09519,7.7298 -8.02255,15.67782 -8.08129,28.0575 -0.0795,16.81674 5.06457,23.22637 15.03579,22.98921 2.59595,-0.0618 19.61812,-4.88928 22.87856,-6.34651 4.00936,-1.79178 7.79877,-2.22823 11.60212,-3.75354 z"
     id="path31"
     style="clip-rule:evenodd;fill:#d7eec0;fill-opacity:1;fill-rule:evenodd;stroke-width:0.2;image-rendering:optimizeQuality;shape-rendering:geometricPrecision;text-rendering:geometricPrecision;stroke-dasharray:none;stroke:#9f9f9f;stroke-opacity:0.6095711" /><path
     class="fil0"
     d="m 360.22326,-43.490499 c 5.25993,1.55101 21.53782,0.826454 27.49339,-2.281428 5.64792,-2.946919 11.14256,-2.11776 15.83362,-7.774437 4.88998,-5.896544 9.9204,-11.963518 14.01583,-19.30737 3.28094,-5.883017 8.98732,-11.826 11.93355,-20.042295 4.50227,-12.556421 7.46844,-18.722131 -6.92635,-20.749721 -7.59632,-1.06947 -22.06379,-0.0343 -30.12432,-0.0343 -9.55646,0 -26.85459,-2.68271 -35.02003,5.39562 -7.49741,7.41689 -15.60302,18.280273 -15.06066,34.224115 0.30192,8.875925 12.34722,27.728812 17.06288,29.966505 0.12541,0.05951 0.63498,0.556831 0.79209,0.603271 z"
     id="path32"
     style="clip-rule:evenodd;fill:#d7eec0;fill-opacity:1;fill-rule:evenodd;stroke-width:0.2;image-rendering:optimizeQuality;shape-rendering:geometricPrecision;text-rendering:geometricPrecision;stroke-dasharray:none;stroke:#9f9f9f;stroke-opacity:0.6095711" /><path
     class="fil0"
     d="m 343.77979,-224.91989 c -8.59797,-2.62094 -33.14486,7.52735 -42.37208,10.92876 -6.87717,2.53481 -19.9479,8.85789 -25.12204,16.82259 -2.5566,3.93524 -15.66722,29.65811 -11.72398,35.71381 4.79571,7.36459 18.20224,21.40845 24.54935,21.40845 7.76817,0 46.82844,-17.50477 53.35944,-24.22326 10.90566,-11.21867 31.19428,-6.43985 35.64491,-32.85932 3.26126,-19.35967 -19.32358,-24.43968 -27.04804,-26.19223 -1.63609,-0.37107 -5.65939,-0.67451 -7.03127,-1.40763 z"
     id="path33"
     style="clip-rule:evenodd;fill:#d7eec0;fill-opacity:1;fill-rule:evenodd;stroke-width:0.2;image-rendering:optimizeQuality;shape-rendering:geometricPrecision;text-rendering:geometricPrecision;stroke-dasharray:none;stroke:#9f9f9f;stroke-opacity:0.6095711" /><path
     class="fil0"
     d="m 229.73319,-25.266583 c 12.6311,-5.552525 48.70279,-28.651302 60.40492,-41.351549 8.0455,-8.731195 11.91688,-13.436977 11.43053,-30.202764 -0.18716,-6.453374 -18.60689,-35.904534 -22.11488,-41.691964 -4.15773,-6.85961 -20.50365,-23.06676 -26.06468,-24.15743 -11.96142,-2.345 -19.10308,2.28188 -30.08333,3.72197 -5.06977,0.66505 -29.03659,16.27749 -30.71313,25.40681 -1.64101,8.93589 -13.25188,19.66491 -12.97154,42.198745 0.39864,32.039629 -8.4477,28.079593 10.19198,62.992197 2.4036,4.502438 4.33833,8.56392 7.82774,8.957083 7.70205,3.309873 24.50646,-2.538426 32.09239,-5.873098 z"
     id="path34"
     style="clip-rule:evenodd;fill:#d7eec0;fill-opacity:1;fill-rule:evenodd;stroke-width:0.2;image-rendering:optimizeQuality;shape-rendering:geometricPrecision;text-rendering:geometricPrecision;stroke-dasharray:none;stroke:#9f9f9f;stroke-opacity:0.6095711" /><path
     class="fil0"
     d="m -67.364006,-357.17821 c -2.977376,1.17768 -13.26882,-0.35349 -18.510992,0.60101 -6.444379,1.17318 -11.385179,1.27553 -17.907972,3.5051 -8.06982,2.75846 -15.36831,7.87048 -20.75748,18.51789 -1.70823,3.3748 -2.01807,18.35107 -0.16093,22.50182 4.56155,10.19519 17.93283,0.0244 23.86573,-2.86937 17.806879,-8.68656 13.625109,-1.97167 32.563158,-1.05595 4.968669,0.23987 19.907464,-4.19133 25.424504,-3.2499 4.848722,0.8269 20.74218,5.86678 23.704802,-1.72866 4.292428,-11.00496 -7.429916,-20.52293 -11.860324,-24.914 -4.247618,-4.20982 -29.859558,-13.13264 -36.360496,-11.30794 z"
     id="path35"
     style="clip-rule:evenodd;fill:#d7eec0;fill-opacity:1;fill-rule:evenodd;stroke-width:0.2;image-rendering:optimizeQuality;shape-rendering:geometricPrecision;text-rendering:geometricPrecision;stroke-dasharray:none;stroke:#9f9f9f;stroke-opacity:0.6095711" /><path
     class="fil0"
     d="m 112.90156,-447.61202 c -12.78712,0.61364 -27.179183,9.06439 -40.135702,13.36664 -10.325597,3.42891 -19.603907,1.83461 -27.433011,8.88405 -3.618372,3.25757 -14.707097,13.322 -12.534654,18.71627 8.629938,21.42693 31.13827,16.64044 52.20286,16.52682 5.408295,-0.0293 20.916777,-1.19437 26.443377,-1.94598 13.92457,-1.89367 29.9153,-0.88461 42.85105,-6.37852 13.59888,-5.77571 17.59349,-7.42141 25.60429,-19.96295 3.4946,-5.47091 -10.44281,-11.09874 -23.42584,-14.69311 -16.32297,-4.51867 -34.33969,-14.95643 -43.57237,-14.51322 z"
     id="path36"
     style="clip-rule:evenodd;fill:#d7eec0;fill-opacity:1;fill-rule:evenodd;stroke-width:0.2;image-rendering:optimizeQuality;shape-rendering:geometricPrecision;text-rendering:geometricPrecision;stroke-dasharray:none;stroke:#9f9f9f;stroke-opacity:0.6095711" /><path
     class="fil0"
     d="m 36.262191,-476.52077 c -3.267819,1.12944 -24.208636,7.00615 -30.9926391,11.87289 -5.65064892,4.05337 -9.9146607,4.93348 -14.9920752,12.43018 -7.0861937,10.46255 -2.3675297,19.87457 3.6549843,27.82845 11.641468,15.37484 27.40077,4.83068 39.758098,-1.89728 13.787682,-7.50662 13.525655,-5.50293 26.834094,-6.34111 6.502577,-0.40984 15.704383,-4.16879 14.793711,-17.99532 -0.826518,-12.54695 -10.520137,-20.89851 -17.132005,-23.19977 -3.471648,-1.20835 -5.2031,-1.62766 -8.645785,-1.83101 -5.137799,-0.30389 -7.874187,-2.64663 -13.278383,-0.86703 z"
     id="path37"
     style="clip-rule:evenodd;fill:#d7eec0;fill-opacity:1;fill-rule:evenodd;stroke-width:0.2;image-rendering:optimizeQuality;shape-rendering:geometricPrecision;text-rendering:geometricPrecision;stroke-dasharray:none;stroke:#9f9f9f;stroke-opacity:0.6095711" /><path
     class="fil0"
     d="m 326.38139,157.25168 c 7.75997,-0.68038 30.07595,-7.20995 25.495,-27.16026 -2.14431,-9.33808 -25.66714,-13.06681 -34.76238,-26.30676 -6.52635,-9.500835 -10.5532,-13.364383 -17.16507,-24.397745 -4.88479,-8.151369 -14.49944,0.683527 -17.61562,9.251054 -4.78916,13.165101 -26.32998,50.829841 -34.24516,60.437541 -10.31822,12.52485 3.47712,29.79878 11.83929,30.32405 8.34605,0.52436 15.16038,2.99741 24.21957,-0.12039 9.15453,-3.15116 18.27628,-3.92306 26.86168,-12.56588 0.065,-0.0654 13.07702,-9.26052 15.37269,-9.46161 z"
     id="path38"
     style="clip-rule:evenodd;fill:#d7eec0;fill-opacity:1;fill-rule:evenodd;stroke-width:0.2;image-rendering:optimizeQuality;shape-rendering:geometricPrecision;text-rendering:geometricPrecision;stroke-dasharray:none;stroke:#9f9f9f;stroke-opacity:0.6095711" /><path
     class="fil0"
     d="m 401.62838,125.67464 c -31.96479,0.2827 -24.38678,1.0564 -51.50421,25.60835 -10.97424,9.93593 -63.65771,9.76821 -34.91894,59.62597 14.08468,24.43472 6.96078,39.36589 10.81522,64.91788 2.67164,17.71127 6.84903,41.12792 18.74433,48.43885 6.28099,3.8604 30.03087,-17.74959 35.2337,-26.83878 16.51041,-28.84202 26.54584,-65.33314 39.39771,-98.63792 20.36321,-52.77041 21.95395,-73.46558 -17.76781,-73.11435 z"
     id="path39"
     style="clip-rule:evenodd;fill:#d7eec0;fill-opacity:1;fill-rule:evenodd;stroke-width:0.2;image-rendering:optimizeQuality;shape-rendering:geometricPrecision;text-rendering:geometricPrecision;stroke-dasharray:none;stroke:#9f9f9f;stroke-opacity:0.6095711" /><path
     class="fil0"
     d="m 223.92024,403.72114 c -2.13064,-3.74091 -2.54786,-5.03041 -5.72196,-7.44394 -7.06461,-5.37263 -18.24897,-4.89561 -25.98053,-4.89561 -7.29876,0 -15.06065,-0.73086 -22.23729,-0.26782 -5.69682,0.36747 -15.07896,11.24618 -23.52365,12.76878 -6.0971,1.09969 -14.86529,-0.29938 -20.11621,5.14178 -11.03107,11.42923 -15.42268,24.82879 -15.42268,44.55818 0,10.17128 0.91586,12.93605 5.59054,19.8385 1.95905,2.89236 9.52667,6.54625 12.39394,6.92994 12.0718,1.61459 18.32902,-8.04541 29.7325,-11.47296 7.29795,-2.19306 14.6959,-2.88966 22.05942,-4.01414 6.66925,-1.01808 33.17464,-10.03197 37.00996,-18.40246 4.05882,-8.85789 21.24984,-16.34693 6.21596,-42.74025 z"
     id="path40"
     style="clip-rule:evenodd;fill:#d7eec0;fill-opacity:1;fill-rule:evenodd;stroke-width:0.2;image-rendering:optimizeQuality;shape-rendering:geometricPrecision;text-rendering:geometricPrecision;stroke-dasharray:none;stroke:#9f9f9f;stroke-opacity:0.6095711" /><path
     class="fil0"
     d="m 346.61645,335.88069 c -4.17029,-8.92688 -8.61327,-17.51199 -15.46421,-17.51199 -17.25851,0 -19.94462,13.43292 -32.85825,20.56306 -8.91327,4.92175 -44.15927,-3.1922 -53.15588,12.36299 -10.71577,18.52826 -16.82271,75.18927 4.10527,75.18927 7.034,0 26.45867,-10.19158 33.70744,-14.17596 9.73324,-5.35009 18.29131,-9.62979 27.74094,-17.46735 7.46543,-6.19142 32.46725,-25.18092 34.37521,-37.84916 0.48143,-3.1958 2.66125,-18.7316 1.54948,-21.11086 z"
     id="path41"
     style="clip-rule:evenodd;fill:#d7eec0;fill-opacity:1;fill-rule:evenodd;stroke-width:0.2;image-rendering:optimizeQuality;shape-rendering:geometricPrecision;text-rendering:geometricPrecision;stroke-dasharray:none;stroke:#9f9f9f;stroke-opacity:0.6095711" /><path
     class="fil0"
     d="m 310.56443,47.375241 c 5.66404,-6.270318 12.32345,-18.832147 8.15917,-31.282158 -5.35064,-15.99929962 -24.52394,-22.8864152 -34.48642,-27.01643 -9.98433,-4.138582 -43.68986,-10.927858 -55.39308,-10.927858 -7.39795,0 -26.8983,-0.768291 -25.03461,19.1734598 1.185,12.6799572 15.15301,24.2778152 22.21379,28.4010672 5.60338,3.272451 13.32238,4.570971 19.53998,8.44534 3.03502,1.890969 6.72307,3.441528 10.07641,5.485345 9.79854,5.973643 22.95096,11.367911 33.22902,14.528545 8.59523,2.644382 14.49698,1.161905 21.69574,-6.807311 z"
     id="path42"
     style="clip-rule:evenodd;fill:#d7eec0;fill-opacity:1;fill-rule:evenodd;stroke-width:0.2;image-rendering:optimizeQuality;shape-rendering:geometricPrecision;text-rendering:geometricPrecision;stroke-dasharray:none;stroke:#9f9f9f;stroke-opacity:0.6095711" /><path
     class="fil0"
     d="m 376.54569,43.613591 c -7.36899,-3.250358 -13.42948,-7.387587 -22.49522,-5.345123 -10.19144,2.295855 -28.66063,-4.535352 -37.04712,4.715702 -2.69868,2.977127 -5.30037,3.771118 -8.18813,6.887115 -3.3364,3.599786 -5.77852,7.067015 -7.17909,13.418491 -2.22545,10.091033 1.93555,21.17309 7.0075,26.969088 12.37591,14.142146 17.44868,17.690076 31.97681,23.571746 7.12117,2.88244 19.76238,3.61331 26.37234,-1.08977 5.22933,-3.72107 5.48207,-3.77157 9.79608,-9.80247 7.59249,-10.614498 8.42228,-11.588839 11.60868,-27.15079 4.21592,-20.587403 -2.06506,-27.857763 -11.85185,-32.173989 z"
     id="path43"
     style="clip-rule:evenodd;fill:#d7eec0;fill-opacity:1;fill-rule:evenodd;stroke-width:0.2;image-rendering:optimizeQuality;shape-rendering:geometricPrecision;text-rendering:geometricPrecision;stroke-dasharray:none;stroke:#9f9f9f;stroke-opacity:0.6095711" /><path
     class="fil0"
     d="m 422.44324,16.770297 c 12.5505,2.482067 44.3478,0.320121 56.29392,-6.72435 18.0271,-10.6307305 22.13209,-43.291214 12.47372,-68.389621 -5.04736,-13.116405 -23.1619,-32.167226 -32.07626,-40.853784 -12.68411,-12.360742 -21.17088,-5.821252 -30.11312,10.13071 -7.01816,12.519446 -8.89114,14.141695 -15.3317,29.037703 -8.97858,20.765048 -16.49729,34.892765 -4.58314,60.398313 2.56234,5.4857961 13.31691,16.396971 13.33658,16.401029 z"
     id="path44"
     style="clip-rule:evenodd;fill:#d7eec0;fill-opacity:1;fill-rule:evenodd;stroke-width:0.2;image-rendering:optimizeQuality;shape-rendering:geometricPrecision;text-rendering:geometricPrecision;stroke-dasharray:none;stroke:#9f9f9f;stroke-opacity:0.6095711" /><path
     class="fil0"
     d="m -53.609112,466.77917 c -12.234921,-13.34951 -12.755422,-15.38296 -26.512776,-23.25433 -7.618717,-4.35906 -15.907392,-5.74145 -23.809722,-2.69308 -2.95634,1.14026 -8.36081,9.67082 -8.38977,14.95282 -0.0519,9.52654 0.89428,10.56941 3.53367,19.03324 4.83206,15.49522 19.361282,30.06975 29.411464,35.43697 7.519262,4.01594 10.062205,6.40017 18.444324,6.40017 7.332373,0 9.093607,0.6682 14.601358,-7.55982 5.318402,-7.94577 4.055811,-11.99192 4.160731,-22.85801 0.08497,-8.77989 -7.350407,-14.99746 -11.439279,-19.45796 z"
     id="path45"
     style="clip-rule:evenodd;fill:#d7eec0;fill-opacity:1;fill-rule:evenodd;stroke-width:0.2;image-rendering:optimizeQuality;shape-rendering:geometricPrecision;text-rendering:geometricPrecision;stroke-dasharray:none;stroke:#9f9f9f;stroke-opacity:0.6095711" /><path
     class="fil0"
     d="m -33.479238,382.89793 c -0.05519,-0.023 -43.583031,0.1303 -45.494815,0.46981 -6.234539,1.1078 -15.813128,3.46903 -20.813492,9.9418 -3.301975,4.27429 -1.565325,1.05549 -3.773835,6.48628 -1.39019,3.41854 -1.93938,4.69406 -1.58719,9.01029 0.51586,6.31676 5.85311,10.41476 9.333501,11.06808 3.554436,0.66684 4.917303,1.07038 8.683491,1.07038 14.558188,0 29.711468,1.81251 43.906534,-3.8897 3.964826,-1.59249 14.768301,-5.99123 17.208236,-11.69345 2.441301,-5.70537 3.790779,-7.78841 2.83721,-14.95417 -0.306836,-2.30622 -8.182389,-6.62741 -10.29964,-7.50932 z"
     id="path46"
     style="clip-rule:evenodd;fill:#d7eec0;fill-opacity:1;fill-rule:evenodd;stroke-width:0.2;image-rendering:optimizeQuality;shape-rendering:geometricPrecision;text-rendering:geometricPrecision;stroke-dasharray:none;stroke:#9f9f9f;stroke-opacity:0.6095711" /><path
     class="fil0"
     d="m 121.81593,375.64921 c -0.0415,-8.54227 -0.40602,-12.8603 -4.4315,-18.90924 -3.50635,-5.26893 -13.53713,-10.15371 -18.481486,-14.87166 -3.187489,-3.04161 -14.843711,-14.43161 -17.929013,-15.34644 -5.224412,-1.5492 -9.934607,-6.4917 -15.785533,-0.6984 -6.076886,6.01692 -8.622014,16.41726 -13.029471,24.95683 -6.330716,12.26605 -4.248164,22.83456 -4.431501,36.81034 -0.05956,4.5358 3.357165,9.34934 5.607752,11.0045 8.80863,6.47682 16.692106,5.91458 26.195011,6.30504 3.762909,0.1551 24.837331,1.01221 27.391211,-0.11768 9.17585,-4.05968 14.97923,-11.66909 14.89453,-29.13329 z"
     id="path47"
     style="clip-rule:evenodd;fill:#d7eec0;fill-opacity:1;fill-rule:evenodd;stroke-width:0.2;image-rendering:optimizeQuality;shape-rendering:geometricPrecision;text-rendering:geometricPrecision;stroke-dasharray:none;stroke:#9f9f9f;stroke-opacity:0.6095711" /><path
     class="fil0"
     d="m 404.67898,-6.415499 c -2.49075,-12.050536 -13.47019,-24.084841 -20.9695,-25.186328 -16.08663,-2.362585 -28.22647,-2.170963 -43.6467,8.11079 -3.82466,2.550149 -14.66392,12.968067 -16.02925,20.6870468 -2.41261,13.6389692 -2.34922,25.7675062 5.32961,34.8882562 9.16683,10.888181 29.49916,-1.969422 42.13683,7.860104 4.52385,3.518629 14.53086,3.844161 18.44077,-1.503668 2.81316,-3.847767 13.59259,-25.66155 14.16064,-31.1897289 0.16475,-1.6019588 0.83116,-12.4400921 0.5776,-13.6664721 z"
     id="path48"
     style="clip-rule:evenodd;fill:#d7eec0;fill-opacity:1;fill-rule:evenodd;stroke-width:0.2;image-rendering:optimizeQuality;shape-rendering:geometricPrecision;text-rendering:geometricPrecision;stroke-dasharray:none;stroke:#9f9f9f;stroke-opacity:0.6095711" /><path
     class="fil0"
     d="m 64.358602,421.63891 c -11.537095,-3.08037 -19.766752,-3.39463 -30.803291,3.99746 -4.535055,3.03755 -6.850671,3.19941 -11.302391,7.97869 -6.324705,6.78927 -10.934624,14.12095 -11.108671,26.98712 -0.113117,8.36508 -1.4929236,14.54838 4.306635,19.22621 5.634529,4.54527 12.443669,2.41399 18.267271,0.50498 4.596805,-1.50637 16.715331,0.7489 22.153408,-0.14698 5.078507,-0.83638 16.949761,-5.55343 19.564562,-13.50326 3.248147,-9.87597 2.886938,-14.82702 2.124083,-25.33241 -0.998106,-13.74312 -5.091076,-17.54761 -13.201606,-19.71181 z"
     id="path49"
     style="clip-rule:evenodd;fill:#d7eec0;fill-opacity:1;fill-rule:evenodd;stroke-width:0.2;image-rendering:optimizeQuality;shape-rendering:geometricPrecision;text-rendering:geometricPrecision;stroke-dasharray:none;stroke:#9f9f9f;stroke-opacity:0.6095711" /><path
     class="fil0"
     d="m -410.5552,17.06562 c 1.40221,0.495963 2.82218,1.640283 4.82768,2.345903 11.36824,3.998359 34.53232,0.05005 43.99096,-10.8575211 7.22937,-8.33667877 10.2051,-18.2960566 13.55353,-31.5612499 6.9381,-27.484438 3.03666,-45.53071 -8.16026,-67.619978 -7.16024,-14.125464 -19.65692,-29.362784 -29.77704,-37.090784 -8.98705,-6.86277 -14.70109,-1.63262 -22.85151,4.09891 -8.06354,5.6702 -15.33197,21.71865 -18.3211,35.008187 -5.17578,23.01266 -5.80912,30.563914 -2.88502,54.735774 2.11014,17.443903 5.48971,24.2070278 11.73737,37.5515751 0.0279,0.059515 7.61899,13.2949509 7.88539,13.3891839 z"
     id="path50"
     style="clip-rule:evenodd;fill:#d7eec0;fill-opacity:1;fill-rule:evenodd;stroke-width:0.2;image-rendering:optimizeQuality;shape-rendering:geometricPrecision;text-rendering:geometricPrecision;stroke-dasharray:none;stroke:#9f9f9f;stroke-opacity:0.6095711" /><path
     class="fil0"
     d="m -338.64078,-35.952771 c 1.08717,1.543345 2.00194,3.669672 3.55798,5.873549 8.82093,12.491041 30.30356,27.3234754 41.77235,25.2192418 8.76573,-1.6082712 14.26774,-8.0016788 21.05557,-17.0024958 14.06473,-18.649543 16.19975,-54.398971 12.77783,-82.636374 -2.23256,-18.42275 10.43461,-49.6472 7.06023,-60.66252 -7.98265,-26.05877 -35.45802,-13.06185 -56.59692,17.30007 -11.21906,16.11427 -19.60664,25.10878 -24.05153,48.639945 -3.20771,16.982207 -10.22806,28.632817 -8.61437,45.284082 0.007,0.07439 2.83229,17.691433 3.03886,17.984502 z"
     id="path51"
     style="clip-rule:evenodd;fill:#d7eec0;fill-opacity:1;fill-rule:evenodd;stroke-width:0.2;image-rendering:optimizeQuality;shape-rendering:geometricPrecision;text-rendering:geometricPrecision;stroke-dasharray:none;stroke:#9f9f9f;stroke-opacity:0.6095711" /><path
     class="fil0"
     d="m -229.27295,-17.013316 c 11.36796,3.997458 18.02956,-7.575602 27.48793,-18.482719 7.22909,-8.336228 15.8634,-22.809766 19.21155,-36.074058 6.93755,-27.483987 18.50225,-41.797017 7.30559,-63.885377 -7.15969,-14.12502 -16.63937,-22.82735 -26.75922,-30.5549 -8.98678,-6.86232 -22.33975,0.23536 -30.49018,5.96643 -8.06326,5.6702 -15.73962,21.4878 -18.32109,35.00819 -4.15172,21.74435 -4.8214,29.342492 -2.88503,54.735772 1.34566,17.64815 -0.54126,25.292284 5.70202,38.64089 5.72688,12.244412 10.14964,11.621754 18.74843,14.645772 z"
     id="path52"
     style="clip-rule:evenodd;fill:#d7eec0;fill-opacity:1;fill-rule:evenodd;stroke-width:0.2;image-rendering:optimizeQuality;shape-rendering:geometricPrecision;text-rendering:geometricPrecision;stroke-dasharray:none;stroke:#9f9f9f;stroke-opacity:0.6095711" /><path
     class="fil0"
     d="m -349.897,-168.39775 c 2.34485,0.49596 4.71948,1.64073 8.0731,2.3459 19.01045,3.99836 45.7205,-7.4471 60.52596,-21.70512 10.6879,-10.29258 20.30638,-26.87621 29.09916,-34.00364 18.76837,-15.21343 35.08889,-31.42599 45.53771,-58.13808 7.98184,-20.40615 0.58635,-44.32236 -16.33691,-52.04946 -15.02814,-6.86232 -112.4351,7.07107 -126.06431,12.80214 -13.48467,5.66976 -23.82693,31.78218 -28.82511,45.07172 -8.65535,23.01221 -9.71438,30.56392 -4.82468,54.73578 3.52903,17.4439 9.1805,24.20703 19.62823,37.55157 0.0467,0.0595 12.74121,13.29495 13.18685,13.38919 z"
     id="path53"
     style="clip-rule:evenodd;fill:#d7eec0;fill-opacity:1;fill-rule:evenodd;stroke-width:0.2;image-rendering:optimizeQuality;shape-rendering:geometricPrecision;text-rendering:geometricPrecision;stroke-dasharray:none;stroke:#9f9f9f;stroke-opacity:0.6095711" /><path
     class="fil0"
     d="m -4.86014,455.17319 c -3.4407728,0.91528 -5.903386,0.81789 -9.635147,2.09296 -2.798958,0.95586 -5.054191,1.6466 -7.83129,2.89192 -3.566185,1.5988 -14.235504,5.40644 -16.518059,8.98729 -2.897594,4.54617 -2.473816,10.25019 -2.937212,16.21932 -0.695914,8.9661 5.862675,11.156 9.806462,12.20699 5.064573,1.34947 6.998214,2.1642 12.427548,2.1642 4.439151,0 5.814586,-0.3377 10.1605667,-1.15739 2.09512,-0.39497 14.8918002,-7.81817 16.1328063,-9.8922 4.151168,-6.93806 3.279841,-7.99852 3.279841,-17.66303 0,-10.00131 -5.0902564,-13.10738 -10.1829717,-15.12054 -0.21557768,-0.0852 -4.6563686,-0.74169 -4.7025443,-0.72952 z"
     id="path54"
     style="clip-rule:evenodd;fill:#d7eec0;fill-opacity:1;fill-rule:evenodd;stroke-width:0.2;image-rendering:optimizeQuality;shape-rendering:geometricPrecision;text-rendering:geometricPrecision;stroke-dasharray:none;stroke:#9f9f9f;stroke-opacity:0.6095711" /></g><text
   xml:space="preserve"
   style="font-weight:bold;font-size:34.6667px;line-height:0.9;font-family:'Bai Jamjuree SemiBold';-inkscape-font-specification:'Bai Jamjuree SemiBold,  Bold';opacity:0.434685;fill:#000000;fill-opacity:1;stroke-width:5.46898;stroke-linecap:round;stroke-linejoin:round;paint-order:stroke fill markers"
   x="-828.18927"
   y="-350.60492"
   id="text4"><tspan
     sodipodi:role="line"
     id="tspan4" /></text><text
   xml:space="preserve"
   style="font-weight:bold;font-size:34.6667px;line-height:0.9;font-family:'Bai Jamjuree SemiBold';-inkscape-font-specification:'Bai Jamjuree SemiBold,  Bold';clip-rule:evenodd;opacity:0.434685;fill:#000000;fill-opacity:1;fill-rule:evenodd;stroke-width:5.46898;stroke-linecap:round;stroke-linejoin:round;paint-order:stroke fill markers;image-rendering:optimizeQuality;shape-rendering:geometricPrecision;text-rendering:geometricPrecision"
   x="-828.18964"
   y="-350.603"
   id="text4-6"><tspan
     sodipodi:role="line"
     id="tspan4-7"
     x="-828.18964"
     y="-350.603" /></text></g>
</svg>
